{"glyphs":{"0":{"ha":776,"x_min":63,"x_max":714,"o":"m 389 -14 q 203 50 275 -14 q 97 229 131 114 q 63 499 63 344 q 97 767 63 653 q 203 943 131 881 q 390 1006 275 1006 q 571 943 499 1006 q 678 766 643 881 q 714 497 714 651 q 678 228 714 343 q 570 50 642 114 q 389 -14 499 -14 m 389 0 q 474 26 439 0 q 529 110 508 53 q 560 264 550 168 q 569 497 569 360 q 560 729 569 635 q 529 881 550 824 q 474 965 508 939 q 390 992 440 992 q 304 965 339 992 q 248 881 269 939 q 217 729 226 824 q 207 497 207 635 q 217 264 207 360 q 247 110 226 168 q 303 26 268 53 q 389 0 339 0 z "},"1":{"ha":776,"x_min":92,"x_max":663,"o":"m 133 0 l 133 14 l 226 14 q 290 25 264 14 q 328 58 315 36 q 340 114 340 81 l 340 906 q 250 800 283 835 q 197 754 217 765 q 157 743 176 743 q 108 764 124 743 q 92 818 92 785 q 190 828 149 819 q 263 858 231 838 q 326 911 294 878 l 408 997 l 481 997 l 481 114 q 493 58 481 81 q 531 25 506 36 q 594 14 557 14 l 663 14 l 663 0 l 133 0 z "},"2":{"ha":776,"x_min":71,"x_max":675,"o":"m 71 0 l 71 101 l 272 319 q 386 452 342 394 q 456 560 431 510 q 490 658 481 610 q 500 760 500 706 q 485 894 500 843 q 438 969 469 946 q 354 992 406 992 q 267 965 300 992 q 220 881 235 939 q 206 729 206 824 q 145 738 172 729 q 102 767 118 746 q 86 825 86 788 q 118 917 86 876 q 210 982 150 958 q 356 1006 271 1006 q 511 976 447 1006 q 608 894 575 947 q 640 768 640 842 q 626 681 640 725 q 572 584 611 638 q 463 458 533 531 q 282 282 393 385 l 97 111 l 535 111 q 628 135 601 111 q 660 222 654 158 l 661 240 l 675 240 l 667 0 l 71 0 z "},"3":{"ha":776,"x_min":81,"x_max":696,"o":"m 350 -14 q 205 8 265 -14 q 113 65 144 29 q 81 144 81 101 q 105 206 81 183 q 168 229 129 229 q 189 101 168 151 q 251 25 210 50 q 353 0 292 0 q 466 31 422 0 q 531 119 510 61 q 551 257 551 176 q 524 408 551 351 q 442 491 497 465 q 300 517 386 517 l 256 517 l 256 531 l 300 531 q 423 558 375 531 q 494 642 471 586 q 518 783 518 699 q 481 942 518 892 q 371 992 443 992 q 283 963 317 992 q 233 877 249 935 q 217 729 217 819 q 132 751 167 729 q 97 831 97 774 q 129 921 97 882 q 222 983 161 960 q 371 1006 283 1006 q 583 947 504 1006 q 661 776 661 889 q 630 657 661 708 q 537 573 599 606 q 383 528 475 540 q 519 506 461 524 q 617 454 578 488 q 676 374 657 421 q 696 268 696 328 q 667 136 696 190 q 588 49 638 82 q 476 1 538 15 q 350 -14 415 -14 z "},"4":{"ha":776,"x_min":24,"x_max":757,"o":"m 299 0 l 299 14 l 338 14 q 401 25 375 14 q 439 58 426 36 q 451 114 451 81 l 451 272 l 24 272 l 24 329 l 453 992 l 585 992 l 585 350 l 757 350 l 757 272 l 585 272 l 585 114 q 597 58 585 81 q 635 25 610 36 q 699 14 661 14 l 717 14 l 717 0 l 299 0 m 53 350 l 451 350 l 451 607 q 451 685 451 638 q 451 787 451 733 q 452 890 451 840 q 454 971 453 939 q 428 930 443 953 q 398 883 414 907 q 367 834 382 858 q 338 789 351 810 l 53 350 z "},"5":{"ha":776,"x_min":90,"x_max":676,"o":"m 346 -15 q 198 6 254 -15 q 116 62 142 28 q 90 131 90 96 q 112 185 90 163 q 178 208 133 208 q 199 90 178 136 q 260 22 219 43 q 357 0 300 0 q 457 31 418 0 q 514 126 496 61 q 532 294 532 192 q 511 458 532 397 q 446 547 490 519 q 329 575 401 575 q 240 561 276 575 q 178 527 203 547 q 133 488 153 507 l 117 493 l 160 990 l 624 990 l 631 781 l 617 781 l 615 796 q 602 846 613 828 q 572 872 592 864 q 518 879 551 879 l 164 879 l 131 503 q 231 573 172 550 q 360 596 290 596 q 516 565 444 596 q 632 469 588 535 q 676 300 676 404 q 658 176 676 233 q 599 76 639 118 q 497 9 560 33 q 346 -15 433 -15 z "},"6":{"ha":776,"x_min":85,"x_max":706,"o":"m 407 -14 q 242 38 315 -14 q 127 203 169 90 q 85 500 85 317 q 107 690 85 599 q 174 852 129 781 q 287 965 218 924 q 447 1006 356 1006 q 576 985 525 1006 q 651 931 626 964 q 676 860 676 897 q 649 799 676 821 q 569 776 622 776 q 558 896 569 849 q 519 967 546 943 q 447 992 492 992 q 331 943 378 992 q 258 792 283 894 q 226 528 232 690 q 279 565 250 549 q 345 592 308 582 q 426 603 382 603 q 630 527 554 603 q 706 318 706 451 q 670 146 706 221 q 568 28 635 71 q 407 -14 501 -14 m 411 0 q 500 31 467 0 q 549 128 533 61 q 564 304 564 194 q 547 467 564 406 q 494 556 531 528 q 399 585 458 585 q 331 573 363 585 q 272 544 299 561 q 226 508 246 526 q 238 274 228 371 q 271 117 249 178 q 328 28 293 56 q 411 0 363 0 z "},"7":{"ha":776,"x_min":82,"x_max":710,"o":"m 264 0 l 669 879 l 236 879 q 134 852 164 879 q 97 754 104 825 l 96 739 l 82 739 l 90 990 l 710 990 l 710 950 l 368 0 l 264 0 z "},"8":{"ha":776,"x_min":64,"x_max":713,"o":"m 386 -14 q 208 20 279 -14 q 100 113 136 54 q 64 244 64 172 q 119 399 64 335 q 293 494 175 463 q 181 569 225 529 q 117 655 138 608 q 96 757 96 701 q 126 878 96 821 q 219 970 156 935 q 385 1006 283 1006 q 541 975 478 1006 q 637 890 604 944 q 669 767 669 836 q 622 628 669 685 q 464 540 574 572 q 606 457 551 501 q 687 361 661 413 q 713 247 713 310 q 624 56 713 125 q 386 -14 535 -14 m 394 0 q 545 57 497 0 q 593 206 593 114 q 580 288 593 253 q 535 354 567 324 q 448 416 503 385 q 310 486 393 447 q 219 392 246 451 q 192 250 192 333 q 245 58 192 117 q 394 0 299 0 m 443 550 q 513 614 489 579 q 544 688 536 649 q 553 771 553 728 q 534 897 553 849 q 478 969 515 946 q 385 992 440 992 q 261 944 303 992 q 219 804 219 896 q 244 689 219 731 q 319 617 269 647 q 443 550 368 588 z "},"9":{"ha":776,"x_min":71,"x_max":692,"o":"m 324 -15 q 208 3 254 -15 q 138 49 161 21 q 114 107 114 76 q 128 148 114 131 q 169 171 143 165 q 225 38 183 78 q 335 -1 267 -1 q 457 47 413 -1 q 523 199 501 94 q 549 476 544 304 q 499 431 529 453 q 429 395 469 408 q 336 382 389 382 q 200 416 260 382 q 106 515 140 450 q 71 674 71 581 q 106 849 71 774 q 208 965 142 924 q 368 1006 275 1006 q 535 957 463 1006 q 650 806 608 908 q 692 539 692 703 q 674 330 692 429 q 615 153 657 231 q 503 30 574 75 q 324 -15 432 -15 m 368 406 q 453 422 417 406 q 513 462 489 439 q 550 501 538 485 q 539 727 549 633 q 508 879 529 821 q 454 965 488 938 q 371 992 421 992 q 283 960 318 992 q 231 860 247 929 q 214 678 214 792 q 230 520 214 581 q 280 433 246 460 q 368 406 314 406 z "},"\u0000":{"ha":0,"x_min":0,"x_max":0,"o":""},"\r":{"ha":313,"x_min":0,"x_max":0,"o":""}," ":{"ha":313,"x_min":0,"x_max":0,"o":""},"!":{"ha":463,"x_min":150,"x_max":311,"o":"m 221 279 l 150 992 l 311 992 l 242 279 l 221 279 m 231 -10 q 174 14 193 -10 q 156 85 156 38 q 174 156 156 132 q 231 179 193 179 q 287 156 268 179 q 306 85 306 132 q 287 14 306 38 q 231 -10 268 -10 z "},"\"":{"ha":396,"x_min":42,"x_max":354,"o":"m 97 665 l 42 992 l 174 992 l 118 665 l 97 665 m 278 665 l 222 992 l 354 992 l 299 665 l 278 665 z "},"#":{"ha":776,"x_min":35,"x_max":742,"o":"m 139 0 l 199 324 l 35 324 l 35 338 l 201 338 l 264 678 l 79 678 l 79 692 l 267 692 l 322 992 l 336 992 l 281 692 l 546 692 l 601 992 l 615 992 l 560 692 l 742 692 l 742 678 l 557 678 l 494 338 l 697 338 l 697 324 l 492 324 l 432 0 l 418 0 l 478 324 l 213 324 l 153 0 l 139 0 m 215 338 l 481 338 l 543 678 l 278 678 l 215 338 z "},"$":{"ha":776,"x_min":78,"x_max":679,"o":"m 379 57 q 251 68 307 57 q 156 101 194 79 q 98 156 118 124 q 78 231 78 189 q 90 289 78 265 q 124 325 101 313 q 178 338 146 338 q 201 191 179 250 q 267 102 222 132 q 379 71 311 72 l 379 447 q 255 509 306 479 q 174 570 204 539 q 129 639 143 601 q 115 724 115 676 q 178 883 115 822 q 379 950 240 944 l 379 1056 l 393 1056 l 393 950 q 533 932 475 950 q 621 881 590 914 q 651 799 651 847 q 622 728 651 751 q 542 704 592 704 q 526 828 542 778 q 478 906 511 879 q 393 936 446 933 l 393 575 q 516 515 463 543 q 606 458 569 488 q 660 389 642 428 q 679 293 679 350 q 610 125 679 188 q 393 57 542 63 l 393 -110 l 379 -110 l 379 57 m 393 71 q 519 117 474 74 q 565 246 565 161 q 529 354 565 311 q 393 440 493 397 l 393 71 m 379 936 q 267 894 308 936 q 226 767 226 851 q 240 694 226 725 q 286 636 253 663 q 379 581 319 610 l 379 936 z "},"%":{"ha":1244,"x_min":63,"x_max":1182,"o":"m 364 0 l 860 992 l 875 992 l 379 0 l 364 0 m 290 389 q 117 474 171 389 q 63 699 63 560 q 117 922 63 839 q 292 1006 171 1006 q 462 922 406 1006 q 518 699 518 839 q 493 536 518 606 q 417 428 468 467 q 290 389 367 389 m 290 403 q 350 433 328 403 q 382 528 372 463 q 392 699 392 593 q 382 869 392 804 q 350 963 372 933 q 292 992 328 992 q 231 963 254 992 q 198 869 208 933 q 188 699 188 804 q 198 528 188 593 q 231 433 208 463 q 290 403 254 403 m 954 -14 q 781 72 835 -14 q 726 296 726 157 q 781 519 726 436 q 956 603 835 603 q 1126 519 1069 603 q 1182 296 1182 436 q 1157 133 1182 203 q 1081 25 1132 64 q 954 -14 1031 -14 m 954 0 q 1014 30 992 0 q 1046 125 1036 60 q 1056 296 1056 190 q 1046 466 1056 401 q 1014 560 1036 531 q 956 589 992 589 q 895 560 918 589 q 862 466 872 531 q 851 296 851 401 q 862 125 851 190 q 895 30 872 60 q 954 0 918 0 z "},"&":{"ha":1031,"x_min":50,"x_max":1018,"o":"m 378 -14 q 198 23 271 -14 q 88 123 125 60 q 50 265 50 186 q 76 385 50 333 q 156 475 103 436 q 289 543 210 514 q 216 635 243 594 q 177 713 189 675 q 165 793 165 751 q 192 906 165 858 q 276 980 219 954 q 421 1006 332 1006 q 569 980 514 1006 q 649 910 624 954 q 674 810 674 865 q 651 716 674 757 q 574 640 628 675 q 425 572 519 606 l 696 285 q 717 414 711 349 q 724 531 724 479 l 724 585 l 974 585 l 974 571 l 961 571 q 890 557 918 571 q 844 510 863 543 q 813 421 826 478 q 787 330 803 378 q 747 231 771 282 l 843 129 q 913 60 885 86 q 963 24 942 35 q 1006 14 985 14 l 1018 14 l 1018 0 l 796 0 l 682 122 q 606 53 649 85 q 508 4 564 22 q 378 -14 453 -14 m 394 0 q 535 39 476 0 q 640 167 593 78 l 301 529 q 235 465 260 501 q 198 381 210 429 q 186 267 186 332 q 199 148 186 199 q 237 65 211 97 q 301 16 263 32 q 394 0 340 0 m 413 586 q 522 673 492 624 q 551 807 551 722 q 536 912 551 871 q 492 972 521 953 q 418 992 463 992 q 321 949 354 992 q 288 824 288 907 q 298 744 288 778 q 335 676 308 711 q 413 586 363 640 z "},"'":{"ha":215,"x_min":42,"x_max":174,"o":"m 97 665 l 42 992 l 174 992 l 118 665 l 97 665 z "},"(":{"ha":481,"x_min":79,"x_max":436,"o":"m 436 -178 q 230 -47 308 -126 q 115 153 151 33 q 79 440 79 274 q 115 726 79 607 q 230 925 151 844 q 436 1056 308 1006 l 436 1042 q 322 938 365 999 q 258 799 279 876 q 231 632 238 722 q 224 440 224 542 q 231 248 224 339 q 258 80 238 157 q 322 -59 279 3 q 436 -164 365 -121 l 436 -178 z "},")":{"ha":481,"x_min":44,"x_max":401,"o":"m 44 -164 q 158 -59 115 -121 q 222 80 201 3 q 250 248 243 157 q 257 440 257 339 q 250 632 257 542 q 222 799 243 722 q 158 938 201 876 q 44 1042 115 999 l 44 1056 q 251 925 172 1006 q 365 726 329 844 q 401 440 401 607 q 365 153 401 274 q 251 -47 329 33 q 44 -178 172 -126 l 44 -164 z "},"*":{"ha":694,"x_min":57,"x_max":629,"o":"m 283 525 l 332 764 l 106 613 l 57 721 l 317 790 l 57 860 l 106 969 l 332 815 l 283 1056 l 404 1056 l 353 815 l 581 967 l 629 858 l 368 790 l 629 722 l 581 615 l 353 764 l 404 525 l 283 525 z "},"+":{"ha":776,"x_min":90,"x_max":686,"o":"m 374 199 l 374 482 l 90 482 l 90 510 l 374 510 l 374 794 l 401 794 l 401 510 l 686 510 l 686 482 l 401 482 l 401 199 l 374 199 z "},",":{"ha":347,"x_min":42,"x_max":269,"o":"m 42 -200 q 117 -167 85 -186 q 169 -121 150 -147 q 188 -60 188 -94 q 176 -15 188 -31 q 147 10 164 1 q 113 28 131 19 q 84 51 96 36 q 72 94 72 67 q 98 158 72 136 q 163 179 124 179 q 238 149 206 179 q 269 50 269 119 q 216 -105 269 -31 q 42 -214 163 -179 l 42 -200 z "},"-":{"ha":431,"x_min":35,"x_max":396,"o":"m 35 365 l 35 393 l 396 393 l 396 365 l 35 365 z "},".":{"ha":347,"x_min":99,"x_max":249,"o":"m 174 -10 q 117 14 136 -10 q 99 85 99 38 q 117 156 99 132 q 174 179 136 179 q 230 156 211 179 q 249 85 249 132 q 230 14 249 38 q 174 -10 211 -10 z "},"/":{"ha":400,"x_min":33,"x_max":367,"o":"m 33 -168 l 353 1056 l 367 1056 l 47 -168 l 33 -168 z "},":":{"ha":397,"x_min":124,"x_max":274,"o":"m 199 563 q 142 586 161 563 q 124 657 124 610 q 142 728 124 704 q 199 751 161 751 q 255 728 236 751 q 274 657 274 704 q 255 586 274 610 q 199 563 236 563 m 199 -10 q 142 14 161 -10 q 124 85 124 38 q 142 156 124 132 q 199 179 161 179 q 255 156 236 179 q 274 85 274 132 q 255 14 274 38 q 199 -10 236 -10 z "},";":{"ha":397,"x_min":67,"x_max":294,"o":"m 67 -200 q 142 -167 110 -186 q 194 -121 175 -147 q 213 -60 213 -94 q 201 -15 213 -31 q 172 10 189 1 q 138 28 156 19 q 109 51 121 36 q 97 94 97 67 q 123 158 97 136 q 188 179 149 179 q 263 149 231 179 q 294 50 294 119 q 241 -105 294 -31 q 67 -214 188 -179 l 67 -200 m 200 563 q 144 586 163 563 q 125 657 125 610 q 144 728 125 704 q 200 751 163 751 q 256 728 238 751 q 275 657 275 704 q 256 586 275 610 q 200 563 238 563 z "},"<":{"ha":776,"x_min":90,"x_max":686,"o":"m 686 165 l 90 482 l 90 510 l 686 826 l 686 794 l 121 496 l 686 197 l 686 165 z "},"=":{"ha":776,"x_min":94,"x_max":682,"o":"m 94 632 l 94 660 l 682 660 l 682 632 l 94 632 m 94 332 l 94 360 l 682 360 l 682 332 l 94 332 z "},">":{"ha":776,"x_min":90,"x_max":686,"o":"m 90 165 l 90 197 l 656 496 l 90 794 l 90 826 l 686 510 l 686 482 l 90 165 z "},"?":{"ha":694,"x_min":60,"x_max":624,"o":"m 281 467 q 396 502 351 474 q 461 589 440 531 q 482 740 482 647 q 466 881 482 825 q 416 964 450 936 q 326 992 382 992 q 242 967 275 992 q 192 892 208 943 q 175 760 175 842 q 92 784 125 760 q 60 856 60 808 q 90 933 60 899 q 179 986 121 967 q 318 1006 238 1006 q 543 940 463 1006 q 624 751 624 875 q 555 572 624 643 q 343 464 486 500 l 322 279 l 301 279 l 281 467 m 310 -10 q 253 14 272 -10 q 235 85 235 38 q 253 156 235 132 q 310 179 272 179 q 366 156 347 179 q 385 85 385 132 q 366 14 385 38 q 310 -10 347 -10 z "},"@":{"ha":1279,"x_min":90,"x_max":1206,"o":"m 600 -197 q 336 -142 451 -197 q 156 24 221 -87 q 90 303 90 135 q 138 576 90 450 q 271 794 185 701 q 476 940 357 888 q 736 992 594 992 q 996 932 892 992 q 1153 772 1100 872 q 1206 544 1206 671 q 1181 363 1206 444 q 1113 225 1156 282 q 1019 138 1071 168 q 915 107 968 107 q 861 116 889 107 q 809 147 833 125 q 770 207 785 169 q 756 303 756 244 l 753 303 q 704 193 735 236 q 633 128 674 150 q 544 107 593 107 q 416 163 467 107 q 365 332 365 218 q 385 461 365 392 q 446 593 406 531 q 548 695 486 656 q 694 735 610 735 q 780 717 751 735 q 824 672 808 700 l 924 722 l 938 722 l 867 369 q 851 289 857 325 q 846 225 846 253 q 868 147 846 171 q 926 122 890 122 q 1000 148 965 122 q 1062 226 1035 174 q 1105 359 1089 279 q 1121 549 1121 439 q 1071 794 1121 699 q 932 933 1021 889 q 728 978 843 978 q 532 934 626 978 q 363 806 438 890 q 244 595 288 721 q 200 306 200 469 q 233 74 200 168 q 322 -76 265 -19 q 453 -157 379 -132 q 611 -182 528 -182 q 802 -149 706 -182 q 990 -47 899 -115 l 999 -60 q 874 -135 939 -104 q 740 -182 808 -167 q 600 -197 671 -197 m 578 132 q 651 158 618 132 q 710 233 685 183 q 749 354 735 282 l 807 665 q 776 702 801 685 q 713 719 751 719 q 628 690 665 719 q 565 611 592 660 q 522 504 539 563 q 498 388 506 446 q 490 281 490 329 q 514 165 490 197 q 578 132 538 132 z "},"A":{"ha":979,"x_min":0,"x_max":979,"o":"m 0 0 l 0 14 l 40 14 q 92 24 71 14 q 128 57 113 33 q 157 122 143 81 l 460 992 l 531 992 l 879 88 q 901 44 890 60 q 927 21 913 28 q 961 14 942 14 l 979 14 l 979 0 l 597 0 l 597 14 l 629 14 q 706 26 682 14 q 729 71 729 39 q 728 88 729 79 q 724 108 726 97 q 717 132 722 119 l 632 360 l 256 360 l 179 142 q 172 119 175 131 q 168 99 169 108 q 167 82 167 90 q 200 29 167 44 q 307 14 233 14 l 339 14 l 339 0 l 0 0 m 260 374 l 626 374 l 525 644 q 492 735 507 692 q 463 817 476 778 q 439 894 450 857 q 421 838 429 864 q 404 788 413 813 q 385 734 396 763 q 363 668 375 706 l 260 374 z "},"B":{"ha":908,"x_min":53,"x_max":824,"o":"m 53 0 l 53 14 l 71 14 q 134 25 108 14 q 172 58 160 36 q 185 114 185 81 l 185 883 q 172 936 185 915 q 134 967 160 957 q 71 978 108 978 l 53 978 l 53 992 l 425 992 q 692 932 603 992 q 782 756 782 872 q 752 637 782 686 q 663 560 722 588 q 515 525 604 532 l 515 522 q 752 447 681 515 q 824 267 824 378 q 735 66 824 132 q 467 0 647 0 l 53 0 m 460 14 q 626 72 576 14 q 675 267 675 131 q 653 409 675 356 q 585 488 632 463 q 463 513 539 513 l 325 513 l 325 14 l 460 14 m 421 526 q 544 548 497 526 q 612 617 590 569 q 633 743 633 665 q 584 924 633 871 q 418 978 535 978 l 325 978 l 325 526 l 421 526 z "},"C":{"ha":853,"x_min":79,"x_max":806,"o":"m 510 -14 q 271 50 367 -14 q 127 228 175 114 q 79 493 79 342 q 128 761 79 646 q 276 941 176 876 q 526 1006 375 1006 q 678 983 617 1006 q 773 925 740 961 q 806 846 806 889 q 771 776 806 799 q 685 753 736 753 q 667 891 685 839 q 610 967 649 943 q 508 990 571 990 q 350 935 411 990 q 261 770 289 879 q 233 500 233 661 q 263 222 233 333 q 358 56 293 111 q 526 0 422 0 q 678 48 621 0 q 765 203 736 96 q 792 183 783 196 q 800 150 800 169 q 782 95 800 124 q 728 42 764 67 q 638 1 692 17 q 510 -14 583 -14 z "},"D":{"ha":1010,"x_min":53,"x_max":931,"o":"m 53 0 l 53 14 l 71 14 q 134 25 108 14 q 172 58 160 36 q 185 114 185 81 l 185 883 q 172 936 185 915 q 134 967 160 957 q 71 978 108 978 l 53 978 l 53 992 l 478 992 q 722 934 621 992 q 877 766 824 876 q 931 497 931 656 q 880 234 931 346 q 729 61 829 122 q 478 0 629 0 l 53 0 m 446 14 q 635 64 563 14 q 742 221 708 114 q 776 497 776 328 q 742 772 776 665 q 635 928 708 878 q 447 978 563 978 l 325 978 l 325 14 l 446 14 z "},"E":{"ha":865,"x_min":53,"x_max":807,"o":"m 53 0 l 53 14 l 71 14 q 134 25 108 14 q 172 58 160 36 q 185 114 185 81 l 185 883 q 172 936 185 915 q 134 967 160 957 q 71 978 108 978 l 53 978 l 53 992 l 751 992 l 760 749 l 746 749 l 743 794 q 719 904 739 864 q 659 961 700 944 q 547 978 618 978 l 325 978 l 325 526 l 674 526 l 674 513 l 325 513 l 325 14 l 582 14 q 701 31 657 14 q 766 88 746 47 q 790 197 786 128 l 793 243 l 807 243 l 797 0 l 53 0 z "},"F":{"ha":819,"x_min":53,"x_max":761,"o":"m 53 0 l 53 14 l 71 14 q 134 25 108 14 q 172 58 160 36 q 185 114 185 81 l 185 883 q 172 936 185 915 q 134 967 160 957 q 71 978 108 978 l 53 978 l 53 992 l 753 992 l 761 749 l 747 749 l 744 794 q 721 904 740 864 q 660 961 701 944 q 547 978 618 978 l 325 978 l 325 494 l 674 494 l 674 481 l 325 481 l 325 114 q 338 58 325 81 q 376 25 350 36 q 439 14 401 14 l 457 14 l 457 0 l 53 0 z "},"G":{"ha":992,"x_min":79,"x_max":965,"o":"m 557 -14 q 290 50 396 -14 q 131 228 183 114 q 79 497 79 343 q 131 762 79 647 q 287 941 182 876 q 551 1006 392 1006 q 726 986 654 1006 q 835 933 797 967 q 872 854 872 899 q 842 783 872 807 q 743 753 813 758 q 723 892 743 839 q 660 968 703 944 q 546 992 617 992 q 365 942 433 992 q 265 784 296 893 q 233 497 233 675 q 268 209 233 318 q 379 50 303 100 q 579 0 456 0 q 657 6 619 0 q 724 21 694 13 l 724 350 q 711 403 724 382 q 673 434 699 424 q 610 444 647 444 l 604 444 l 604 458 l 965 458 l 965 444 l 960 444 q 903 433 924 444 q 873 400 882 422 q 864 344 864 378 l 864 50 q 721 2 794 18 q 557 -14 647 -14 z "},"H":{"ha":1101,"x_min":54,"x_max":1049,"o":"m 54 0 l 54 14 l 72 14 q 135 25 110 14 q 174 58 161 36 q 186 114 186 81 l 186 883 q 174 936 186 915 q 135 967 161 957 q 72 978 110 978 l 54 978 l 54 992 l 458 992 l 458 978 l 440 978 q 377 967 403 978 q 339 933 351 956 q 326 878 326 911 l 326 525 l 776 525 l 776 878 q 764 933 776 911 q 726 967 751 956 q 663 978 701 978 l 644 978 l 644 992 l 1049 992 l 1049 978 l 1031 978 q 968 967 993 978 q 930 936 943 957 q 917 883 917 915 l 917 114 q 930 58 917 81 q 968 25 943 36 q 1031 14 993 14 l 1049 14 l 1049 0 l 644 0 l 644 14 l 663 14 q 726 25 701 14 q 764 58 751 36 q 776 114 776 81 l 776 511 l 326 511 l 326 114 q 339 58 326 81 q 377 25 351 36 q 440 14 403 14 l 458 14 l 458 0 l 54 0 z "},"I":{"ha":510,"x_min":53,"x_max":457,"o":"m 53 0 l 53 14 l 71 14 q 134 25 108 14 q 172 58 160 36 q 185 114 185 81 l 185 883 q 172 936 185 915 q 134 967 160 957 q 71 978 108 978 l 53 978 l 53 992 l 457 992 l 457 978 l 439 978 q 376 967 401 978 q 338 933 350 956 q 325 878 325 911 l 325 114 q 338 58 325 81 q 376 25 350 36 q 439 14 401 14 l 457 14 l 457 0 l 53 0 z "},"J":{"ha":496,"x_min":-15,"x_max":457,"o":"m -15 -333 l -15 -319 l -3 -319 q 99 -297 57 -319 q 163 -217 140 -274 q 185 -64 185 -161 l 185 883 q 172 936 185 915 q 134 967 160 957 q 71 978 108 978 l 53 978 l 53 992 l 457 992 l 457 978 l 439 978 q 376 967 401 978 q 338 933 350 956 q 325 878 325 911 l 325 -11 q 301 -167 325 -104 q 233 -265 276 -229 q 133 -317 190 -301 q 8 -333 75 -333 l -15 -333 z "},"K":{"ha":972,"x_min":53,"x_max":989,"o":"m 53 0 l 53 14 l 71 14 q 134 25 108 14 q 172 58 160 36 q 185 114 185 81 l 185 883 q 172 936 185 915 q 134 967 160 957 q 71 978 108 978 l 53 978 l 53 992 l 457 992 l 457 978 l 439 978 q 376 967 401 978 q 338 933 350 956 q 325 878 325 911 l 325 411 l 679 813 q 720 862 704 840 q 744 901 736 883 q 751 931 751 918 q 738 958 751 947 q 694 972 724 968 q 621 976 665 976 l 621 992 l 928 992 l 928 976 q 868 965 897 976 q 806 924 839 953 q 728 844 772 894 l 514 604 l 819 171 q 876 96 851 126 q 919 47 900 65 q 953 22 938 29 q 986 14 969 14 l 989 14 l 989 0 l 974 0 q 859 6 904 0 q 785 25 814 11 q 732 63 756 39 q 682 125 708 88 l 421 499 l 325 389 l 325 114 q 338 58 325 81 q 376 25 350 36 q 439 14 401 14 l 457 14 l 457 0 l 53 0 z "},"L":{"ha":865,"x_min":53,"x_max":807,"o":"m 53 0 l 53 14 l 71 14 q 134 25 108 14 q 172 58 160 36 q 185 114 185 81 l 185 883 q 172 936 185 915 q 134 967 160 957 q 71 978 108 978 l 53 978 l 53 992 l 457 992 l 457 978 l 439 978 q 376 967 401 978 q 338 933 350 956 q 325 878 325 911 l 325 14 l 582 14 q 699 35 656 14 q 764 110 743 57 q 790 253 785 163 l 793 299 l 807 299 l 797 0 l 53 0 z "},"M":{"ha":1303,"x_min":53,"x_max":1250,"o":"m 53 0 l 53 14 l 107 14 q 170 25 144 14 q 208 58 196 36 q 221 114 221 81 l 221 883 q 208 936 221 915 q 170 967 196 957 q 107 978 144 978 l 53 978 l 53 992 l 335 992 l 689 156 l 996 992 l 1250 992 l 1250 978 l 1232 978 q 1169 967 1194 978 q 1131 933 1143 956 q 1118 878 1118 911 l 1118 114 q 1131 58 1118 81 q 1169 25 1143 36 q 1232 14 1194 14 l 1250 14 l 1250 0 l 881 0 l 881 14 l 885 14 q 938 25 915 14 q 972 58 960 36 q 985 114 985 81 l 985 919 l 647 0 l 614 0 l 235 901 l 235 114 q 247 58 235 81 q 285 25 260 36 q 349 14 311 14 l 374 14 l 374 0 l 53 0 z "},"N":{"ha":1060,"x_min":53,"x_max":1021,"o":"m 53 0 l 53 14 l 93 14 q 156 25 131 14 q 194 58 182 36 q 207 114 207 81 l 207 883 q 194 936 207 915 q 156 967 182 957 q 93 978 131 978 l 53 978 l 53 992 l 324 992 l 853 199 l 853 878 q 840 933 853 911 q 803 967 828 956 q 739 978 778 978 l 700 978 l 700 992 l 1021 992 l 1021 978 l 981 978 q 918 967 943 978 q 880 933 893 956 q 867 878 867 911 l 867 0 l 825 0 l 221 906 l 221 114 q 233 58 221 81 q 272 25 246 36 q 335 14 297 14 l 374 14 l 374 0 l 53 0 z "},"O":{"ha":1031,"x_min":78,"x_max":951,"o":"m 515 -14 q 271 50 368 -14 q 126 229 174 114 q 78 499 78 344 q 126 767 78 653 q 272 944 174 881 q 517 1007 369 1007 q 753 944 657 1007 q 901 766 850 881 q 951 497 951 651 q 901 228 951 343 q 753 50 850 114 q 515 -14 656 -14 m 515 0 q 642 28 589 0 q 730 117 696 57 q 781 272 764 178 q 797 497 797 367 q 781 722 797 628 q 730 876 764 815 q 643 965 696 936 q 517 993 590 993 q 388 965 442 993 q 300 876 335 936 q 249 722 265 815 q 232 497 232 628 q 249 272 232 367 q 299 117 265 178 q 387 28 333 57 q 515 0 440 0 z "},"P":{"ha":839,"x_min":53,"x_max":785,"o":"m 53 0 l 53 14 l 71 14 q 134 25 108 14 q 172 58 160 36 q 185 114 185 81 l 185 883 q 172 936 185 915 q 134 967 160 957 q 71 978 108 978 l 53 978 l 53 992 l 443 992 q 701 915 618 992 q 785 701 785 838 q 765 583 785 639 q 702 482 746 526 q 587 412 658 438 q 413 386 515 386 l 325 386 l 325 114 q 338 58 325 81 q 376 25 350 36 q 439 14 401 14 l 457 14 l 457 0 l 53 0 m 399 400 q 507 417 463 400 q 580 469 551 433 q 622 560 608 504 q 635 696 635 617 q 613 859 635 797 q 544 949 592 921 q 419 978 497 978 l 325 978 l 325 400 l 399 400 z "},"Q":{"ha":1031,"x_min":78,"x_max":951,"o":"m 776 -319 q 667 -304 721 -319 q 568 -254 614 -289 q 492 -160 522 -219 q 456 -11 463 -100 q 245 69 329 3 q 119 246 161 136 q 78 499 78 356 q 126 767 78 653 q 272 944 174 881 q 517 1007 369 1007 q 753 944 657 1007 q 901 766 850 881 q 951 497 951 651 q 863 160 951 294 q 608 -6 775 25 q 630 -155 613 -96 q 674 -247 647 -214 q 736 -292 700 -279 q 814 -306 772 -306 l 836 -306 l 836 -319 l 776 -319 m 515 0 q 642 28 589 0 q 730 117 696 57 q 781 272 764 178 q 797 497 797 367 q 781 722 797 628 q 730 876 764 815 q 643 965 696 936 q 517 993 590 993 q 388 965 442 993 q 300 876 335 936 q 249 722 265 815 q 232 497 232 628 q 249 272 232 367 q 299 117 265 178 q 387 28 333 57 q 515 0 440 0 z "},"R":{"ha":911,"x_min":53,"x_max":919,"o":"m 53 0 l 53 14 l 71 14 q 134 25 108 14 q 172 58 160 36 q 185 114 185 81 l 185 883 q 172 936 185 915 q 134 967 160 957 q 71 978 108 978 l 53 978 l 53 992 l 426 992 q 626 962 547 992 q 744 874 706 932 q 783 732 783 815 q 751 599 783 651 q 667 518 718 547 q 563 474 617 489 l 758 168 q 809 94 788 124 q 849 47 831 64 q 883 22 867 29 q 915 14 899 14 l 919 14 l 919 0 l 900 0 q 792 5 835 0 q 722 22 750 10 q 673 59 694 35 q 626 122 651 83 l 413 463 l 325 463 l 325 114 q 338 58 325 81 q 376 25 350 36 q 439 14 401 14 l 457 14 l 457 0 l 53 0 m 422 476 q 547 501 500 476 q 614 579 593 525 q 635 722 635 633 q 613 870 635 814 q 544 952 592 926 q 419 978 497 978 l 325 978 l 325 476 l 422 476 z "},"S":{"ha":756,"x_min":67,"x_max":685,"o":"m 358 -14 q 236 1 290 -14 q 144 41 182 15 q 86 101 106 67 q 67 178 67 136 q 78 231 67 210 q 113 264 90 253 q 167 275 135 275 q 190 123 168 185 q 256 31 211 61 q 368 0 300 0 q 512 52 457 0 q 567 206 567 104 q 544 307 567 268 q 470 377 521 346 q 338 446 419 408 q 249 491 294 467 q 166 549 204 515 q 105 633 128 583 q 82 750 82 682 q 118 890 82 833 q 220 976 154 947 q 375 1006 286 1006 q 517 983 457 1006 q 612 925 578 961 q 646 846 646 889 q 615 783 646 806 q 536 760 585 760 q 499 933 536 875 q 374 992 461 992 q 281 970 321 992 q 219 906 240 949 q 197 800 197 864 q 222 690 197 732 q 298 619 247 649 q 425 553 349 589 q 553 486 494 521 q 649 399 613 451 q 685 260 685 346 q 647 114 685 175 q 535 19 608 53 q 358 -14 463 -14 z "},"T":{"ha":851,"x_min":28,"x_max":824,"o":"m 222 0 l 222 14 l 240 14 q 303 25 278 14 q 342 58 329 36 q 354 114 354 81 l 354 978 l 240 978 q 129 961 171 978 q 68 904 88 944 q 44 794 49 864 l 42 749 l 28 749 l 36 992 l 815 992 l 824 749 l 810 749 l 807 794 q 783 904 803 864 q 723 961 764 944 q 611 978 682 978 l 494 978 l 494 114 q 507 58 494 81 q 545 25 519 36 q 608 14 571 14 l 626 14 l 626 0 l 222 0 z "},"U":{"ha":996,"x_min":21,"x_max":975,"o":"m 503 -14 q 315 17 393 -14 q 194 118 236 49 q 153 300 153 188 l 153 883 q 140 936 153 915 q 102 967 128 957 q 39 978 76 978 l 21 978 l 21 992 l 425 992 l 425 978 l 407 978 q 344 967 369 978 q 306 934 318 956 q 293 879 293 913 l 293 292 q 323 118 293 181 q 406 31 353 56 q 525 7 458 7 q 688 40 619 7 q 792 137 756 74 q 829 286 829 200 l 829 883 q 817 936 829 915 q 778 967 804 957 q 715 978 753 978 l 697 978 l 697 992 l 975 992 l 975 978 l 957 978 q 894 967 919 978 q 856 933 868 956 q 843 878 843 911 l 843 283 q 804 125 843 192 q 690 22 765 58 q 503 -14 614 -14 z "},"V":{"ha":938,"x_min":0,"x_max":938,"o":"m 118 903 q 96 948 108 932 q 65 971 83 964 q 18 978 47 978 l 0 978 l 0 992 l 382 992 l 382 978 l 349 978 q 283 966 304 978 q 263 925 263 954 q 264 906 263 917 q 269 885 265 896 q 276 860 272 874 l 449 364 q 472 297 461 329 q 492 235 482 265 q 509 176 501 204 q 524 122 517 149 q 547 199 535 158 q 574 283 560 240 q 600 364 588 325 l 758 849 q 767 876 764 864 q 772 899 769 888 q 774 918 774 910 q 751 965 774 951 q 681 978 729 978 l 599 978 l 599 992 l 938 992 l 938 978 l 888 978 q 843 968 861 978 q 811 935 825 958 q 783 871 797 911 l 496 0 l 436 0 l 118 903 z "},"W":{"ha":1454,"x_min":13,"x_max":1417,"o":"m 129 904 q 109 948 121 932 q 78 971 97 964 q 31 978 60 978 l 13 978 l 13 992 l 394 992 l 394 978 l 363 978 q 299 965 319 978 q 279 922 279 953 q 281 904 279 914 q 285 883 282 894 q 290 860 288 872 l 439 371 q 463 287 451 329 q 483 201 474 244 q 501 111 493 157 q 524 209 510 151 q 556 333 539 267 l 721 982 l 779 982 l 982 381 q 1017 270 1001 324 q 1046 172 1033 217 q 1065 94 1058 126 q 1078 145 1074 126 q 1090 188 1083 164 q 1107 254 1096 211 l 1261 838 q 1271 879 1268 861 q 1274 911 1274 897 q 1251 963 1274 949 q 1179 978 1228 978 l 1147 978 l 1147 992 l 1417 992 l 1417 978 l 1390 978 q 1342 968 1361 978 q 1309 935 1322 958 q 1285 869 1296 911 l 1054 0 l 971 0 l 696 829 l 490 0 l 404 0 l 129 904 z "},"X":{"ha":917,"x_min":11,"x_max":906,"o":"m 11 0 l 11 14 l 42 14 q 91 23 69 14 q 133 54 113 32 q 179 114 154 76 l 410 465 l 165 903 q 133 948 150 932 q 97 971 117 964 q 46 978 76 978 l 29 978 l 29 992 l 406 992 l 406 978 l 393 978 q 335 969 354 978 q 317 938 317 960 q 324 903 317 924 q 347 856 332 883 l 500 583 l 676 853 q 706 905 696 883 q 717 940 717 926 q 697 969 717 961 q 636 978 676 978 l 568 978 l 568 992 l 872 992 l 872 978 l 847 978 q 799 969 821 978 q 756 938 776 960 q 710 878 735 917 l 507 568 l 775 89 q 808 44 792 61 q 844 21 824 28 q 894 14 865 14 l 906 14 l 906 0 l 531 0 l 531 14 l 547 14 q 605 23 586 14 q 624 54 624 32 q 616 89 624 68 q 593 136 608 110 l 417 451 l 213 139 q 191 103 200 119 q 177 74 182 86 q 172 51 172 61 q 192 22 172 31 q 253 14 213 14 l 342 14 l 342 0 l 11 0 z "},"Y":{"ha":868,"x_min":-7,"x_max":882,"o":"m 221 0 l 221 14 l 253 14 q 316 25 290 14 q 354 58 342 36 q 367 114 367 81 l 367 435 l 119 904 q 92 948 106 932 q 61 971 78 964 q 21 978 44 978 l -7 978 l -7 992 l 375 992 l 375 978 l 328 978 q 280 969 296 978 q 264 940 264 961 q 271 907 264 926 q 292 860 278 888 l 411 629 q 439 576 426 601 q 463 527 451 550 q 483 484 474 504 q 500 447 493 464 q 541 528 517 479 q 593 629 565 576 l 699 833 q 724 889 715 865 q 732 929 732 913 q 710 967 732 957 q 640 978 688 978 l 585 978 l 585 992 l 882 992 l 882 978 l 847 978 q 808 968 825 978 q 773 935 790 958 q 733 869 756 911 l 507 432 l 507 114 q 519 58 507 81 q 558 25 532 36 q 621 14 583 14 l 653 14 l 653 0 l 221 0 z "},"Z":{"ha":822,"x_min":50,"x_max":765,"o":"m 50 0 l 50 14 l 585 978 l 299 978 q 178 960 222 978 q 113 899 133 942 q 90 783 93 857 l 89 749 l 75 749 l 83 992 l 742 992 l 742 978 l 207 14 l 540 14 q 657 32 614 14 q 722 92 700 50 q 749 208 743 135 l 751 243 l 765 243 l 757 0 l 50 0 z "},"[":{"ha":500,"x_min":139,"x_max":449,"o":"m 139 -178 l 139 1056 l 449 1056 l 449 1042 l 389 1042 q 321 1033 346 1042 q 285 1002 296 1024 q 275 942 275 981 l 275 -64 q 285 -124 275 -101 q 321 -155 296 -146 q 389 -164 346 -164 l 449 -164 l 449 -178 l 139 -178 z "},"\\":{"ha":333,"x_min":0,"x_max":333,"o":"m 319 -168 l 0 1056 l 14 1056 l 333 -168 l 319 -168 z "},"]":{"ha":500,"x_min":51,"x_max":361,"o":"m 51 -178 l 51 -164 l 111 -164 q 179 -155 154 -164 q 215 -124 204 -146 q 225 -64 225 -101 l 225 942 q 215 1002 225 981 q 179 1033 204 1024 q 111 1042 154 1042 l 51 1042 l 51 1056 l 361 1056 l 361 -178 l 51 -178 z "},"^":{"ha":700,"x_min":76,"x_max":624,"o":"m 76 363 l 332 992 l 365 992 l 624 363 l 593 363 l 349 964 l 107 363 l 76 363 z "},"_":{"ha":638,"x_min":-7,"x_max":644,"o":"m -7 -171 l -7 -143 l 644 -143 l 644 -171 l -7 -171 z "},"`":{"ha":353,"x_min":56,"x_max":297,"o":"m 283 842 q 224 891 257 863 q 158 949 190 919 q 98 1006 125 979 q 56 1050 71 1032 l 56 1064 l 181 1064 q 215 996 196 1033 q 256 922 235 958 q 297 856 278 886 l 297 842 l 283 842 z "},"a":{"ha":782,"x_min":69,"x_max":722,"o":"m 299 -14 q 131 41 193 -14 q 69 192 69 96 q 148 351 69 299 q 386 410 226 404 l 501 414 l 501 518 q 493 646 501 596 q 457 720 485 696 q 372 744 429 744 q 269 694 292 744 q 246 538 246 644 q 158 557 188 538 q 128 621 128 576 q 162 701 128 671 q 253 744 196 731 q 378 758 310 758 q 569 704 506 758 q 632 518 632 650 l 632 103 q 640 50 632 69 q 668 22 649 31 q 718 14 688 14 l 722 14 l 722 0 l 513 0 l 513 146 l 510 146 q 465 55 496 90 q 392 3 435 19 q 299 -14 350 -14 m 326 6 q 417 32 378 6 q 479 103 457 58 q 501 199 501 147 l 501 399 l 413 394 q 249 340 294 389 q 204 176 204 292 q 217 83 204 121 q 258 25 231 44 q 326 6 286 6 z "},"b":{"ha":853,"x_min":25,"x_max":776,"o":"m 497 -14 q 354 38 407 -14 q 282 196 301 89 l 279 196 l 279 0 l 25 0 l 25 14 l 36 14 q 103 25 78 14 q 139 60 128 36 q 150 121 150 83 l 150 933 q 139 996 150 972 q 103 1031 128 1019 q 36 1042 78 1042 l 32 1042 l 32 1056 l 281 1056 l 281 800 q 281 695 281 764 q 278 551 281 626 l 281 551 q 353 708 300 657 q 500 758 407 758 q 706 661 636 758 q 776 374 776 564 q 744 160 776 247 q 651 30 713 74 q 497 -14 589 -14 m 474 7 q 572 44 535 7 q 625 162 608 81 q 642 375 642 243 q 625 585 642 506 q 571 701 608 665 q 472 738 533 738 q 326 646 371 738 q 281 374 281 554 q 328 97 281 188 q 474 7 376 7 z "},"c":{"ha":683,"x_min":76,"x_max":635,"o":"m 396 -14 q 229 24 301 -14 q 117 149 157 63 q 76 375 76 235 q 117 602 76 518 q 228 722 158 686 q 385 758 297 758 q 499 743 443 758 q 592 697 556 728 q 628 614 628 665 q 613 565 628 583 q 572 538 599 546 q 504 529 544 529 q 494 651 504 603 q 457 722 483 699 q 382 744 431 744 q 293 713 332 744 q 233 602 254 682 q 211 374 211 522 q 232 155 211 238 q 299 36 253 72 q 417 0 344 0 q 499 15 463 0 q 563 69 536 31 q 606 174 590 107 q 627 160 619 171 q 635 129 635 149 q 608 63 635 96 q 529 8 582 31 q 396 -14 476 -14 z "},"d":{"ha":853,"x_min":76,"x_max":828,"o":"m 356 -14 q 203 30 265 -14 q 108 160 140 74 q 76 374 76 247 q 108 587 76 501 q 201 715 139 672 q 353 758 263 758 q 501 708 447 758 q 572 551 554 657 l 575 551 q 573 649 574 601 q 572 737 572 697 q 572 800 572 776 l 572 933 q 561 996 572 972 q 525 1031 550 1019 q 458 1042 500 1042 l 454 1042 l 454 1056 l 703 1056 l 703 121 q 714 60 703 83 q 751 25 725 36 q 817 14 776 14 l 828 14 l 828 0 l 574 0 l 574 196 l 571 196 q 499 38 553 89 q 356 -14 446 -14 m 379 7 q 525 97 478 7 q 572 374 572 188 q 552 575 572 494 q 490 697 532 656 q 381 738 449 738 q 282 701 319 738 q 228 585 244 665 q 211 375 211 506 q 228 162 211 243 q 282 44 244 81 q 379 7 319 7 z "},"e":{"ha":743,"x_min":76,"x_max":674,"o":"m 406 -14 q 163 86 250 -14 q 76 367 76 186 q 157 660 76 561 q 385 758 238 758 q 597 675 519 758 q 674 426 674 592 l 674 393 l 211 393 q 232 165 213 251 q 295 40 251 79 q 410 0 339 0 q 503 19 463 0 q 572 77 544 39 q 610 171 600 115 q 635 154 626 168 q 643 125 643 140 q 617 65 643 97 q 538 9 590 32 q 406 -14 486 -14 m 533 407 q 518 603 533 529 q 469 710 503 676 q 382 744 436 744 q 289 710 325 744 q 235 603 253 676 q 211 407 217 529 l 533 407 z "},"f":{"ha":513,"x_min":38,"x_max":610,"o":"m 38 0 l 38 14 l 56 14 q 122 25 97 14 q 158 60 147 36 q 169 121 169 83 l 169 731 l 43 731 l 43 744 l 169 744 l 169 814 q 235 1003 169 938 q 432 1069 300 1069 q 531 1057 492 1069 q 590 1023 569 1044 q 610 972 610 1001 q 595 930 610 947 q 555 903 581 913 q 496 894 529 894 q 476 1019 496 983 q 406 1056 456 1056 q 324 1005 347 1056 q 300 826 300 954 l 300 744 l 496 744 l 496 731 l 300 731 l 300 128 q 311 61 300 86 q 348 25 322 36 q 414 14 374 14 l 467 14 l 467 0 l 38 0 z "},"g":{"ha":747,"x_min":32,"x_max":731,"o":"m 321 -333 q 104 -281 176 -333 q 32 -143 32 -229 q 54 -59 32 -94 q 122 -3 76 -24 q 238 18 168 18 q 156 72 183 35 q 129 151 129 110 q 156 228 129 192 q 240 285 183 265 q 134 363 174 308 q 94 501 94 418 q 160 690 94 621 q 356 758 225 758 q 443 747 404 758 q 513 713 482 735 q 568 761 533 735 q 650 788 603 788 q 710 766 690 788 q 731 714 731 744 q 713 668 731 686 q 657 650 696 650 q 642 715 657 694 q 596 736 628 736 q 563 730 578 736 q 524 704 547 724 q 585 619 564 671 q 606 506 606 568 q 544 335 606 403 q 356 267 482 267 q 305 270 329 267 q 258 279 281 274 q 213 246 225 265 q 200 203 200 226 q 226 150 200 167 q 303 133 251 133 l 460 133 q 636 75 583 133 q 689 -74 689 17 q 599 -263 689 -193 q 321 -333 510 -333 m 332 -319 q 526 -272 464 -319 q 589 -131 589 -224 q 551 -24 589 -58 q 433 10 513 10 l 283 10 q 212 -4 246 10 q 156 -53 178 -18 q 135 -149 135 -87 q 158 -244 135 -206 q 226 -301 182 -282 q 332 -319 269 -319 m 351 281 q 424 304 397 281 q 463 378 451 328 q 475 506 475 428 q 463 640 475 588 q 423 719 450 693 q 350 744 396 744 q 278 717 306 744 q 238 638 250 690 q 225 504 225 585 q 238 378 225 428 q 279 304 251 328 q 351 281 307 281 z "},"h":{"ha":882,"x_min":25,"x_max":843,"o":"m 25 0 l 25 14 l 36 14 q 104 26 79 14 q 140 65 129 38 q 150 142 150 93 l 150 917 q 140 991 150 964 q 106 1030 129 1018 q 39 1042 82 1042 l 32 1042 l 32 1056 l 281 1056 l 281 775 q 281 722 281 749 q 281 668 281 694 q 279 614 281 642 l 282 614 q 336 710 301 679 q 412 749 371 740 q 488 758 453 758 q 672 694 611 758 q 732 486 732 629 l 732 142 q 742 65 732 93 q 774 26 751 38 q 836 14 797 14 l 843 14 l 843 0 l 601 0 l 601 533 q 568 681 601 624 q 453 738 535 738 q 350 703 388 738 q 297 613 313 668 q 281 499 281 558 l 281 142 q 291 65 281 93 q 326 26 301 38 q 392 14 350 14 l 399 14 l 399 0 l 25 0 z "},"i":{"ha":444,"x_min":32,"x_max":426,"o":"m 32 0 l 32 14 l 50 14 q 117 25 92 14 q 153 60 142 36 q 164 121 164 83 l 164 622 q 153 685 164 661 q 117 719 142 708 q 50 731 92 731 l 46 731 l 46 744 l 294 744 l 294 128 q 306 61 294 86 q 342 25 317 36 q 408 14 368 14 l 426 14 l 426 0 l 32 0 m 222 878 q 178 895 196 878 q 161 956 161 913 q 178 1017 161 1000 q 222 1033 196 1033 q 265 1017 247 1033 q 283 956 283 1000 q 265 895 283 913 q 222 878 247 878 z "},"j":{"ha":417,"x_min":-17,"x_max":281,"o":"m -17 -333 l -17 -319 l -7 -319 q 78 -294 43 -319 q 132 -203 114 -269 q 150 -12 150 -136 l 150 622 q 139 685 150 661 q 103 719 128 708 q 36 731 78 731 l 32 731 l 32 744 l 281 744 l 281 -11 q 245 -206 281 -135 q 148 -305 210 -276 q 6 -333 86 -333 l -17 -333 m 208 878 q 165 895 182 878 q 147 956 147 913 q 165 1017 147 1000 q 208 1033 182 1033 q 251 1017 233 1033 q 269 956 269 1000 q 251 895 269 913 q 208 878 233 878 z "},"k":{"ha":813,"x_min":25,"x_max":814,"o":"m 25 0 l 25 14 l 36 14 q 103 25 78 14 q 139 60 128 36 q 150 121 150 83 l 150 933 q 139 996 150 972 q 103 1031 128 1019 q 36 1042 78 1042 l 32 1042 l 32 1056 l 281 1056 l 281 481 q 281 426 281 453 q 280 371 281 399 q 278 315 279 343 l 514 579 q 551 624 536 604 q 574 660 567 644 q 582 688 582 676 q 551 721 582 711 q 457 731 521 731 l 457 744 l 764 744 l 764 731 q 702 724 729 731 q 642 690 675 717 q 556 604 610 664 l 447 482 l 661 153 q 730 58 704 88 q 774 22 756 29 q 810 14 792 14 l 814 14 l 814 0 l 753 0 q 680 6 711 0 q 624 23 649 11 q 580 55 600 35 q 540 106 560 75 l 363 386 l 281 294 l 281 128 q 292 61 281 86 q 328 25 303 36 q 394 14 353 14 l 399 14 l 399 0 l 25 0 z "},"l":{"ha":431,"x_min":18,"x_max":413,"o":"m 18 0 l 18 14 l 36 14 q 103 25 78 14 q 139 60 128 36 q 150 121 150 83 l 150 933 q 139 996 150 972 q 103 1031 128 1019 q 36 1042 78 1042 l 18 1042 l 18 1056 l 281 1056 l 281 128 q 292 61 281 86 q 328 25 303 36 q 394 14 353 14 l 413 14 l 413 0 l 18 0 z "},"m":{"ha":1313,"x_min":39,"x_max":1281,"o":"m 39 0 l 39 14 l 50 14 q 117 25 92 14 q 153 60 142 36 q 164 121 164 83 l 164 622 q 153 685 164 661 q 117 719 142 708 q 50 731 92 731 l 46 731 l 46 744 l 293 744 l 293 613 l 296 613 q 348 705 315 674 q 421 747 381 736 q 503 758 461 758 q 635 723 576 758 q 722 589 694 688 l 725 589 q 776 700 743 664 q 849 747 808 736 q 928 758 889 758 q 1105 690 1047 758 q 1163 482 1163 621 l 1163 128 q 1174 61 1163 86 q 1210 25 1185 36 q 1276 14 1236 14 l 1281 14 l 1281 0 l 1032 0 l 1032 510 q 1000 678 1032 625 q 897 731 968 731 q 807 703 844 731 q 751 625 769 676 q 732 500 732 574 l 732 128 q 743 61 732 86 q 780 25 754 36 q 846 14 806 14 l 850 14 l 850 0 l 601 0 l 601 510 q 569 678 601 625 q 463 731 536 731 q 369 703 407 731 q 313 619 332 675 q 294 481 294 564 l 294 128 q 306 61 294 86 q 342 25 317 36 q 408 14 368 14 l 413 14 l 413 0 l 39 0 z "},"n":{"ha":896,"x_min":39,"x_max":857,"o":"m 39 0 l 39 14 l 50 14 q 118 26 93 14 q 153 65 143 38 q 164 142 164 93 l 164 606 q 153 680 164 653 q 119 719 143 707 q 53 731 96 731 l 46 731 l 46 744 l 293 744 l 293 614 l 296 614 q 350 710 315 679 q 426 749 385 740 q 501 758 467 758 q 685 694 625 758 q 746 486 746 629 l 746 142 q 756 65 746 93 q 788 26 765 38 q 850 14 811 14 l 857 14 l 857 0 l 615 0 l 615 533 q 582 681 615 624 q 467 738 549 738 q 364 703 401 738 q 310 613 326 668 q 294 499 294 558 l 294 142 q 305 65 294 93 q 340 26 315 38 q 406 14 364 14 l 413 14 l 413 0 l 39 0 z "},"o":{"ha":801,"x_min":76,"x_max":725,"o":"m 399 -14 q 163 82 249 -14 q 76 374 76 178 q 159 663 76 568 q 403 758 242 758 q 639 663 553 758 q 725 374 725 568 q 642 82 725 178 q 399 -14 560 -14 m 401 0 q 511 38 469 0 q 572 157 553 75 q 590 374 590 239 q 572 589 590 507 q 511 708 553 671 q 400 744 469 744 q 290 708 332 744 q 230 589 249 671 q 211 374 211 507 q 230 157 211 239 q 291 38 249 75 q 401 0 333 0 z "},"p":{"ha":853,"x_min":18,"x_max":776,"o":"m 25 -333 l 25 -319 l 36 -319 q 103 -308 78 -319 q 139 -274 128 -297 q 150 -212 150 -250 l 150 622 q 139 685 150 661 q 103 719 128 708 q 36 731 78 731 l 18 731 l 18 744 l 278 744 l 278 551 l 281 551 q 353 708 300 657 q 500 758 407 758 q 706 661 636 758 q 776 374 776 564 q 705 85 776 183 q 497 -14 633 -14 q 354 38 407 -14 q 282 196 301 89 l 279 196 q 281 126 281 161 q 281 57 281 92 l 281 -206 q 292 -272 281 -246 q 328 -308 303 -297 q 394 -319 353 -319 l 399 -319 l 399 -333 l 25 -333 m 474 7 q 572 44 535 7 q 625 162 608 81 q 642 375 642 243 q 625 585 642 506 q 571 701 608 665 q 472 738 533 738 q 363 697 406 738 q 301 575 321 656 q 281 374 281 494 q 301 168 281 250 q 365 47 322 86 q 474 7 408 7 z "},"q":{"ha":853,"x_min":76,"x_max":828,"o":"m 413 -333 l 413 -319 l 458 -319 q 525 -308 500 -319 q 561 -274 550 -297 q 572 -212 572 -250 l 572 56 q 573 103 572 79 q 574 149 574 126 q 574 196 574 172 l 571 196 q 531 78 558 125 q 460 9 503 32 q 356 -14 417 -14 q 148 85 219 -14 q 76 374 76 183 q 108 587 76 501 q 201 715 139 672 q 353 758 263 758 q 501 708 447 758 q 572 551 554 657 l 575 551 l 575 744 l 821 744 l 821 731 l 817 731 q 751 719 776 731 q 714 685 725 708 q 703 622 703 661 l 703 -206 q 714 -272 703 -246 q 751 -308 725 -297 q 817 -319 776 -319 l 828 -319 l 828 -333 l 413 -333 m 379 7 q 488 47 444 7 q 551 168 531 86 q 572 374 572 250 q 527 646 572 554 q 381 738 482 738 q 282 701 319 738 q 228 585 244 665 q 211 375 211 506 q 228 162 211 243 q 282 44 244 81 q 379 7 319 7 z "},"r":{"ha":654,"x_min":32,"x_max":633,"o":"m 32 0 l 32 14 l 50 14 q 117 25 92 14 q 153 60 142 36 q 164 121 164 83 l 164 622 q 153 685 164 661 q 117 719 142 708 q 50 731 92 731 l 46 731 l 46 744 l 293 744 l 293 606 l 296 606 q 325 676 306 642 q 384 735 344 711 q 490 758 424 758 q 597 731 560 758 q 633 656 633 704 q 603 586 633 614 q 504 558 574 558 q 475 677 504 644 q 410 710 446 710 q 346 681 369 710 q 311 608 322 653 q 297 515 300 563 q 294 426 294 467 l 294 128 q 306 61 294 86 q 342 25 317 36 q 408 14 368 14 l 426 14 l 426 0 l 32 0 z "},"s":{"ha":626,"x_min":63,"x_max":565,"o":"m 297 -14 q 175 3 228 -14 q 92 52 122 19 q 63 133 63 85 q 78 192 63 171 q 113 221 93 213 q 150 229 133 229 q 164 103 150 154 q 211 26 178 53 q 300 0 244 0 q 417 38 374 0 q 460 151 460 76 q 443 228 460 200 q 388 279 426 257 q 282 331 350 301 q 157 398 203 365 q 92 469 111 431 q 72 561 72 508 q 139 706 72 656 q 324 757 206 757 q 438 740 390 757 q 511 693 486 722 q 536 629 536 664 q 510 569 536 592 q 436 546 485 546 q 407 698 436 653 q 317 743 378 743 q 238 728 269 743 q 191 683 207 713 q 175 610 175 654 q 194 532 175 561 q 255 482 214 503 q 357 435 296 461 q 482 370 436 403 q 547 298 528 338 q 565 204 565 258 q 493 41 565 96 q 297 -14 421 -14 z "},"t":{"ha":489,"x_min":26,"x_max":457,"o":"m 333 -14 q 180 34 228 -14 q 132 201 132 82 l 132 731 l 26 731 l 26 744 q 113 753 76 744 q 176 782 150 763 q 222 835 204 801 q 249 915 239 868 l 263 915 l 263 744 l 457 744 l 457 731 l 263 731 l 263 150 q 290 42 263 78 q 372 6 318 6 q 413 10 392 6 q 457 22 433 14 l 457 8 q 403 -7 439 0 q 333 -14 367 -14 z "},"u":{"ha":882,"x_min":32,"x_max":850,"o":"m 393 -14 q 210 51 271 -14 q 150 258 150 115 l 150 606 q 140 680 150 653 q 104 719 129 707 q 36 731 79 731 l 32 731 l 32 744 l 281 744 l 281 251 q 293 109 281 163 q 335 31 306 56 q 415 6 365 6 q 519 38 478 6 q 581 134 560 71 q 601 286 601 197 l 601 606 q 591 680 601 653 q 556 719 581 707 q 488 731 531 731 l 483 731 l 483 744 l 732 744 l 732 138 q 742 63 732 90 q 778 25 753 36 q 846 14 803 14 l 850 14 l 850 0 l 611 0 l 611 190 l 608 190 q 573 78 597 119 q 517 18 549 38 q 453 -8 486 -1 q 393 -14 421 -14 z "},"v":{"ha":804,"x_min":6,"x_max":800,"o":"m 93 657 q 72 701 83 685 q 44 724 60 717 q 6 731 29 731 l 6 744 l 353 744 l 353 731 l 319 731 q 253 719 275 731 q 232 678 232 707 q 236 649 232 665 q 247 613 240 633 l 357 306 q 388 217 375 256 q 415 141 401 179 q 444 50 428 103 q 460 99 453 76 q 475 144 467 121 q 494 199 483 168 l 635 604 q 646 643 642 626 q 650 674 650 660 q 626 718 650 706 q 549 731 601 731 l 503 731 l 503 744 l 800 744 l 800 731 l 761 731 q 716 721 735 731 q 683 688 697 711 q 656 622 669 664 l 442 0 l 332 0 l 93 657 z "},"w":{"ha":1197,"x_min":1,"x_max":1196,"o":"m 99 657 q 80 701 92 685 q 53 724 68 717 q 17 731 38 731 l 1 731 l 1 744 l 344 744 l 344 731 l 314 731 q 248 719 267 731 q 229 679 229 707 q 233 650 229 667 q 242 613 236 633 l 336 268 q 355 199 346 233 q 374 130 364 164 q 393 61 383 96 l 396 61 q 414 132 406 97 q 431 201 422 167 q 450 272 440 236 l 572 740 l 661 740 l 818 265 q 837 210 828 238 q 855 157 846 183 q 873 103 864 131 q 890 49 882 76 l 893 49 q 911 118 903 83 q 928 188 919 153 q 946 257 938 222 l 1035 604 q 1044 644 1040 626 q 1047 675 1047 661 q 1025 719 1047 707 q 947 731 1003 731 l 899 731 l 899 744 l 1196 744 l 1196 731 l 1160 731 q 1113 721 1133 731 q 1079 688 1093 711 q 1054 622 1065 664 l 894 0 l 785 0 l 567 660 l 394 0 l 290 0 l 99 657 z "},"x":{"ha":803,"x_min":7,"x_max":796,"o":"m 7 0 l 7 14 l 40 14 q 90 22 68 14 q 131 49 111 29 q 175 100 151 68 l 358 357 l 165 657 q 131 701 147 685 q 95 724 114 717 q 51 731 76 731 l 33 731 l 33 744 l 386 744 l 386 731 l 376 731 q 316 723 335 731 q 297 697 297 715 q 306 667 297 685 q 329 626 315 650 l 446 447 l 558 606 q 590 657 579 635 q 601 693 601 679 q 580 722 601 714 q 514 731 558 731 l 454 731 l 454 744 l 758 744 l 758 731 l 739 731 q 690 723 711 731 q 648 697 668 715 q 604 644 628 678 l 454 435 l 681 89 q 715 44 700 61 q 747 21 731 28 q 785 14 764 14 l 796 14 l 796 0 l 438 0 l 438 14 l 451 14 q 521 23 500 14 q 542 50 542 32 q 527 93 542 67 q 489 156 513 119 l 367 343 l 221 139 q 188 88 199 108 q 178 51 178 67 q 199 22 178 31 q 265 14 221 14 l 338 14 l 338 0 l 7 0 z "},"y":{"ha":785,"x_min":6,"x_max":785,"o":"m 53 -319 q 211 -305 151 -319 q 306 -259 271 -290 q 366 -178 342 -228 q 417 -61 390 -129 l 113 654 q 88 701 100 685 q 64 724 76 717 q 33 731 51 731 l 6 731 l 6 744 l 339 744 l 339 731 l 335 731 q 273 719 296 731 q 250 676 250 707 q 254 648 250 664 q 267 613 258 632 l 386 322 q 408 268 397 297 q 431 208 419 239 q 451 150 442 178 q 469 99 461 122 q 504 202 488 153 q 532 286 521 251 l 633 604 q 643 639 640 624 q 646 667 646 654 q 624 715 646 699 q 554 731 603 731 l 496 731 l 496 744 l 785 744 l 785 731 l 774 731 q 719 722 740 731 q 683 690 697 714 q 654 622 669 667 l 451 -6 q 389 -169 419 -106 q 318 -269 358 -233 q 217 -319 278 -306 q 65 -333 157 -333 l 53 -333 l 53 -319 z "},"z":{"ha":710,"x_min":58,"x_max":632,"o":"m 58 0 l 58 14 l 478 724 l 261 724 q 170 710 204 724 q 119 663 136 696 q 94 574 101 631 l 92 547 l 78 547 l 92 744 l 624 744 l 624 731 l 204 21 l 449 21 q 541 37 507 21 q 592 90 575 53 q 615 192 610 128 l 618 225 l 632 225 l 624 0 l 58 0 z "},"{":{"ha":594,"x_min":69,"x_max":525,"o":"m 433 -178 q 285 -124 336 -178 q 233 22 233 -69 l 233 278 q 212 372 233 339 q 153 418 190 404 q 69 433 115 432 l 69 447 q 153 462 115 449 q 212 506 190 475 q 233 593 233 538 l 233 857 q 285 1003 233 951 q 433 1056 336 1056 l 525 1056 l 525 1042 l 483 1042 q 396 1005 422 1042 q 369 896 369 968 l 369 613 q 351 532 369 568 q 293 473 333 496 q 188 442 253 450 l 188 440 q 294 408 254 432 q 351 349 333 385 q 369 268 369 314 l 369 -18 q 396 -126 369 -89 q 483 -164 422 -164 l 525 -164 l 525 -178 l 433 -178 z "},"|":{"ha":776,"x_min":360,"x_max":415,"o":"m 360 -333 l 360 1056 l 415 1056 l 415 -333 l 360 -333 z "},"}":{"ha":594,"x_min":69,"x_max":525,"o":"m 69 -178 l 69 -164 l 111 -164 q 199 -126 172 -164 q 225 -18 225 -89 l 225 268 q 242 349 225 314 q 300 408 260 385 q 407 440 340 432 l 407 442 q 301 473 342 450 q 243 532 261 496 q 225 613 225 568 l 225 896 q 199 1005 225 968 q 111 1042 172 1042 l 69 1042 l 69 1056 l 161 1056 q 310 1003 260 1056 q 361 857 361 951 l 361 593 q 383 506 361 538 q 442 462 406 475 q 525 447 479 449 l 525 433 q 442 418 479 432 q 383 372 406 404 q 361 278 361 339 l 361 22 q 310 -124 361 -69 q 161 -178 260 -178 l 69 -178 z "},"~":{"ha":776,"x_min":89,"x_max":686,"o":"m 89 385 q 103 454 96 417 q 126 526 111 492 q 168 583 142 561 q 236 606 194 606 q 322 577 285 606 q 394 513 360 549 q 465 444 431 476 q 540 413 499 413 q 604 444 582 413 q 638 520 626 475 q 660 606 650 565 l 686 606 q 674 543 682 581 q 649 469 665 506 q 606 409 633 433 q 538 385 579 385 q 447 421 486 385 q 372 496 408 457 q 331 538 351 519 q 288 567 310 556 q 238 578 265 578 q 176 553 199 578 q 141 485 154 529 q 117 385 128 442 l 89 385 z "}," ":{"ha":313,"x_min":0,"x_max":0,"o":""},"¡":{"ha":463,"x_min":150,"x_max":311,"o":"m 150 -250 l 219 464 l 240 464 l 311 -250 l 150 -250 m 231 564 q 174 588 193 564 q 156 658 156 611 q 174 729 156 706 q 231 753 193 753 q 287 729 268 753 q 306 658 306 706 q 287 588 306 611 q 231 564 268 564 z "},"¢":{"ha":776,"x_min":110,"x_max":689,"o":"m 424 119 q 261 162 332 122 q 150 286 190 201 q 110 508 110 371 q 153 733 110 650 q 267 853 196 817 q 424 892 339 890 l 424 992 l 438 992 l 438 892 q 565 876 508 892 q 656 829 622 861 q 689 747 689 797 q 674 698 689 717 q 633 671 660 679 q 565 663 606 663 q 552 783 565 736 q 511 853 539 829 q 438 878 483 876 l 438 133 q 544 149 503 133 q 610 202 585 164 q 653 307 636 240 q 674 293 667 304 q 682 263 682 282 q 657 197 682 229 q 578 142 632 164 q 438 119 524 119 l 438 0 l 424 0 l 424 119 m 424 878 q 322 837 361 876 q 263 716 282 797 q 244 507 244 635 q 263 303 244 383 q 320 183 281 224 q 424 135 360 143 l 424 878 z "},"£":{"ha":776,"x_min":68,"x_max":747,"o":"m 564 -14 q 502 -1 529 -14 q 450 29 475 13 q 384 71 418 51 q 303 90 350 90 q 194 61 244 90 q 108 7 144 32 l 89 -7 l 81 4 l 106 22 q 167 79 131 40 q 230 176 203 118 q 257 310 257 235 q 244 406 257 361 q 214 494 232 451 l 68 494 l 68 508 l 208 508 q 165 624 186 565 q 143 753 143 683 q 218 939 143 872 q 436 1006 293 1006 q 569 985 517 1006 q 647 931 621 965 q 672 854 672 897 q 642 783 672 806 q 563 760 613 760 q 547 890 563 839 q 497 967 531 942 q 408 992 463 992 q 294 940 332 992 q 256 792 256 889 q 267 686 256 735 q 295 594 278 638 q 328 508 313 550 l 556 508 l 556 494 l 333 494 q 349 447 342 471 q 360 398 356 422 q 364 347 364 374 q 348 260 364 301 q 298 179 332 219 q 207 94 264 139 l 208 92 q 283 138 235 111 q 389 165 331 165 q 465 149 433 165 q 522 114 497 132 q 582 74 554 92 q 639 56 610 56 q 692 74 669 56 q 736 128 714 93 l 747 119 q 710 67 735 99 q 649 10 685 35 q 564 -14 613 -14 z "},"¤":{"ha":776,"x_min":89,"x_max":686,"o":"m 147 199 l 89 257 l 179 349 q 145 418 157 381 q 133 497 133 456 q 146 577 133 539 q 181 646 158 615 l 89 738 l 147 796 l 238 704 q 307 740 269 728 q 388 753 344 753 q 466 740 428 753 q 535 704 504 728 l 628 797 l 686 738 l 594 646 q 631 577 618 615 q 643 497 643 539 q 631 418 643 456 q 594 349 618 381 l 686 257 l 629 199 l 536 290 q 467 256 506 268 q 388 243 429 243 q 308 256 346 243 q 239 290 271 268 l 147 199 m 388 319 q 478 344 438 319 q 542 408 518 368 q 565 497 565 449 q 542 588 565 547 q 478 653 518 629 q 388 676 438 676 q 299 653 339 676 q 235 588 258 629 q 211 497 211 547 q 235 408 211 449 q 299 344 258 368 q 388 319 339 319 z "},"¥":{"ha":776,"x_min":7,"x_max":769,"o":"m 179 0 l 179 14 l 211 14 q 274 25 249 14 q 313 58 300 36 q 325 114 325 81 l 325 272 l 117 272 l 117 286 l 325 286 l 325 429 l 117 429 l 117 443 l 322 443 l 88 904 q 51 962 67 946 q 15 978 35 978 l 7 978 l 7 992 l 344 992 l 344 978 l 294 978 q 247 969 263 978 q 231 940 231 961 q 238 907 231 926 q 258 860 246 888 l 367 631 q 394 574 382 600 q 416 527 406 549 q 435 486 426 506 q 451 450 443 467 q 466 489 458 469 q 496 561 474 508 l 610 835 q 628 886 622 864 q 635 924 635 908 q 613 966 635 954 q 546 978 592 978 l 486 978 l 486 992 l 769 992 l 769 978 l 753 978 q 689 954 714 978 q 639 869 664 931 l 463 443 l 668 443 l 668 429 l 460 429 l 460 286 l 668 286 l 668 272 l 460 272 l 460 114 q 472 58 460 81 q 510 25 485 36 q 574 14 536 14 l 606 14 l 606 0 l 179 0 z "},"¦":{"ha":776,"x_min":374,"x_max":401,"o":"m 374 500 l 374 1056 l 401 1056 l 401 500 l 374 500 m 374 -333 l 374 222 l 401 222 l 401 -333 l 374 -333 z "},"§":{"ha":756,"x_min":108,"x_max":685,"o":"m 383 -158 q 286 -148 331 -158 q 209 -117 242 -137 q 158 -67 176 -97 q 140 1 140 -37 q 156 61 140 40 q 191 91 171 82 q 228 100 211 100 q 267 -82 228 -19 q 399 -144 306 -144 q 489 -125 450 -144 q 549 -68 528 -106 q 571 25 571 -31 q 548 113 571 79 q 472 179 525 147 q 332 256 419 211 q 244 304 285 279 q 174 359 204 329 q 126 425 143 389 q 108 508 108 461 q 133 603 108 564 q 200 667 157 642 q 155 738 171 699 q 139 829 139 778 q 207 998 139 940 q 390 1056 275 1056 q 513 1035 461 1056 q 592 980 564 1015 q 621 899 621 944 q 594 835 621 856 q 522 815 567 815 q 490 982 522 922 q 376 1042 457 1042 q 301 1025 335 1042 q 248 974 268 1008 q 228 885 228 939 q 252 794 228 829 q 328 728 276 758 q 458 660 379 699 q 573 597 522 629 q 654 519 624 564 q 685 410 685 475 q 658 308 685 349 q 592 242 632 268 q 631 175 617 213 q 644 85 644 138 q 617 -40 644 15 q 533 -126 590 -94 q 383 -158 475 -158 m 578 256 q 600 298 593 275 q 607 347 607 321 q 597 400 607 374 q 556 454 588 426 q 461 511 525 482 q 317 583 381 550 q 211 656 253 617 q 187 619 194 640 q 179 574 179 599 q 203 499 179 531 q 277 438 228 468 q 400 369 326 408 q 470 332 438 350 q 530 296 503 314 q 578 256 557 278 z "},"¨":{"ha":801,"x_min":207,"x_max":593,"o":"m 532 878 q 488 895 506 878 q 471 956 471 913 q 488 1017 471 1000 q 532 1033 506 1033 q 575 1017 557 1033 q 593 956 593 1000 q 575 895 593 913 q 532 878 557 878 m 268 878 q 224 895 242 878 q 207 956 207 913 q 224 1017 207 1000 q 268 1033 242 1033 q 311 1017 293 1033 q 329 956 329 1000 q 311 895 329 913 q 268 878 293 878 z "},"©":{"ha":1174,"x_min":76,"x_max":1097,"o":"m 586 -14 q 382 24 475 -14 q 220 130 289 61 q 114 292 151 199 q 76 497 76 386 q 114 701 76 608 q 219 863 151 794 q 381 969 288 931 q 586 1007 475 1007 q 791 969 697 1007 q 953 863 885 932 q 1060 701 1022 794 q 1097 496 1097 607 q 1060 292 1097 385 q 953 130 1022 199 q 791 24 885 61 q 586 -14 697 -14 m 589 179 q 431 219 494 179 q 335 330 367 258 q 303 497 303 401 q 338 666 303 596 q 442 774 374 736 q 610 813 510 813 q 709 801 665 813 q 778 767 753 789 q 804 714 804 744 q 776 663 804 681 q 707 644 747 644 q 694 731 707 697 q 653 781 681 765 q 583 797 626 797 q 489 766 525 797 q 436 668 453 735 q 419 497 419 601 q 441 324 419 392 q 505 225 463 257 q 607 193 547 193 q 718 230 672 193 q 782 338 764 267 q 799 323 793 333 q 806 299 806 313 q 778 242 806 269 q 701 197 750 215 q 589 179 653 179 m 589 0 q 785 37 696 0 q 941 141 875 74 q 1044 299 1007 208 q 1081 497 1081 389 q 1044 695 1081 604 q 941 853 1007 786 q 785 956 875 919 q 586 993 694 993 q 389 956 479 993 q 233 853 299 919 q 130 696 167 786 q 93 497 93 606 q 131 296 93 388 q 236 138 168 204 q 394 36 304 72 q 589 0 485 0 z "},"ª":{"ha":531,"x_min":49,"x_max":507,"o":"m 189 528 q 87 561 125 528 q 49 654 49 594 q 104 757 49 724 q 272 796 160 790 l 332 799 l 332 853 q 317 956 332 928 q 264 985 303 985 q 210 956 225 985 q 196 853 196 928 q 115 867 144 853 q 86 914 86 881 q 110 963 86 944 q 176 990 135 982 q 265 999 217 999 q 402 965 357 999 q 447 849 447 931 l 447 604 q 460 562 447 574 q 507 550 474 550 l 507 536 l 340 536 l 340 632 l 338 632 q 283 554 319 581 q 189 528 246 528 m 240 563 q 288 580 268 563 q 320 626 308 597 q 332 686 332 654 l 332 783 l 289 782 q 195 749 221 781 q 169 667 169 718 q 189 590 169 617 q 240 563 208 563 z "},"«":{"ha":714,"x_min":90,"x_max":624,"o":"m 603 111 l 342 368 l 342 382 l 603 639 l 624 639 l 469 375 l 624 111 l 603 111 m 351 111 l 90 368 l 90 382 l 351 639 l 372 639 l 218 375 l 372 111 l 351 111 z "},"¬":{"ha":776,"x_min":86,"x_max":676,"o":"m 649 167 l 649 493 l 86 493 l 86 521 l 676 521 l 676 167 l 649 167 z "},"­":{"ha":431,"x_min":35,"x_max":396,"o":"m 35 365 l 35 393 l 396 393 l 396 365 l 35 365 z "},"®":{"ha":1174,"x_min":76,"x_max":1097,"o":"m 586 -14 q 382 24 475 -14 q 220 130 289 61 q 114 292 151 199 q 76 497 76 386 q 114 701 76 608 q 219 863 151 794 q 381 969 288 931 q 586 1007 475 1007 q 791 969 697 1007 q 953 863 885 932 q 1060 701 1022 794 q 1097 496 1097 607 q 1060 292 1097 385 q 953 130 1022 199 q 791 24 885 61 q 586 -14 697 -14 m 589 0 q 785 37 696 0 q 941 141 875 74 q 1044 299 1007 208 q 1081 497 1081 389 q 1044 695 1081 604 q 941 853 1007 786 q 785 956 875 919 q 586 993 694 993 q 389 956 479 993 q 233 853 299 919 q 130 696 167 786 q 93 497 93 606 q 131 296 93 388 q 236 138 168 204 q 394 36 304 72 q 589 0 485 0 m 319 196 l 319 210 l 338 210 q 385 218 365 210 q 406 258 406 226 l 406 733 q 385 774 406 765 q 338 782 365 782 l 319 782 l 319 796 l 574 796 q 753 754 693 796 q 813 633 813 713 q 794 557 813 588 q 747 508 776 526 q 679 478 717 489 l 814 261 q 849 221 833 232 q 888 210 865 210 l 888 196 l 736 196 l 571 475 l 514 475 l 514 258 q 535 218 514 226 q 582 210 556 210 l 601 210 l 601 196 l 319 196 m 572 489 q 673 523 643 489 q 703 636 703 557 q 672 749 703 715 q 568 782 642 782 l 514 782 l 514 489 l 572 489 z "},"¯":{"ha":638,"x_min":-7,"x_max":644,"o":"m -7 1083 l -7 1111 l 644 1111 l 644 1083 l -7 1083 z "},"°":{"ha":556,"x_min":67,"x_max":488,"o":"m 276 588 q 125 646 183 588 q 67 797 67 704 q 125 949 67 890 q 276 1008 183 1008 q 429 949 371 1008 q 488 797 488 890 q 429 646 488 704 q 276 588 371 588 m 278 615 q 407 665 357 615 q 457 797 457 715 q 406 931 457 881 q 278 981 356 981 q 149 931 200 981 q 97 797 97 881 q 148 665 97 715 q 278 615 199 615 z "},"±":{"ha":776,"x_min":90,"x_max":686,"o":"m 90 26 l 90 54 l 686 54 l 686 26 l 90 26 m 374 199 l 374 482 l 90 482 l 90 510 l 374 510 l 374 794 l 401 794 l 401 510 l 686 510 l 686 482 l 401 482 l 401 199 l 374 199 z "},"²":{"ha":556,"x_min":58,"x_max":485,"o":"m 58 538 l 58 600 l 226 753 q 295 830 269 793 q 332 906 321 867 q 343 993 343 946 q 335 1069 343 1038 q 309 1116 328 1100 q 258 1132 290 1132 q 208 1116 228 1132 q 179 1064 189 1100 q 169 969 169 1028 q 96 985 122 969 q 69 1038 69 1000 q 91 1095 69 1071 q 156 1133 113 1119 q 261 1146 199 1146 q 416 1106 364 1146 q 468 990 468 1067 q 454 926 468 956 q 408 863 440 896 q 317 786 375 831 l 104 625 l 386 625 q 449 640 431 625 q 469 694 467 656 l 471 711 l 485 711 l 478 538 l 58 538 z "},"³":{"ha":556,"x_min":56,"x_max":488,"o":"m 246 528 q 104 559 153 528 q 56 640 56 590 q 74 691 56 672 q 122 710 93 710 q 150 581 122 621 q 242 542 178 542 q 332 576 303 542 q 361 688 361 611 q 326 808 361 771 q 214 846 292 846 l 168 846 l 168 860 l 214 860 q 308 897 279 860 q 338 1011 338 933 q 317 1103 338 1075 q 254 1131 296 1131 q 187 1092 207 1131 q 167 968 167 1054 q 92 980 119 968 q 64 1029 64 992 q 86 1088 64 1063 q 151 1129 108 1114 q 257 1144 194 1144 q 408 1106 351 1144 q 464 1003 464 1068 q 418 903 464 943 q 294 856 372 863 l 294 853 q 434 810 381 846 q 488 697 488 774 q 449 592 488 629 q 356 542 411 556 q 246 528 300 528 z "},"´":{"ha":353,"x_min":56,"x_max":297,"o":"m 56 856 q 97 922 75 886 q 138 996 118 958 q 172 1064 158 1033 l 297 1064 l 297 1050 q 255 1006 282 1032 q 195 949 228 979 q 130 891 163 919 q 69 842 97 863 l 56 842 l 56 856 z "},"µ":{"ha":854,"x_min":119,"x_max":796,"o":"m 228 -333 q 174 -320 199 -333 q 135 -269 150 -307 q 119 -154 119 -231 q 122 -78 119 -122 q 128 24 125 -35 q 133 153 131 82 q 136 313 136 225 l 136 744 l 267 744 l 267 278 q 280 124 267 183 q 324 35 293 64 q 404 7 354 7 q 497 38 458 7 q 554 134 535 69 q 574 300 574 199 l 574 744 l 704 744 l 704 135 q 724 41 704 68 q 792 14 743 14 l 796 14 l 796 0 l 721 0 q 619 37 654 0 q 575 150 583 74 l 572 150 q 506 26 551 65 q 375 -14 460 -14 q 270 6 317 -14 q 192 65 224 25 q 147 165 161 104 q 153 22 147 83 q 172 -82 158 -39 q 206 -152 185 -125 q 257 -194 226 -179 q 329 -212 288 -208 q 308 -299 329 -264 q 228 -333 288 -333 z "},"¶":{"ha":857,"x_min":56,"x_max":800,"o":"m 235 -154 l 235 -140 l 253 -140 q 310 -133 285 -140 q 351 -105 336 -126 q 367 -40 367 -83 l 367 536 l 268 536 q 141 574 188 536 q 75 674 94 613 q 56 808 56 736 q 76 939 56 883 q 145 1025 97 994 q 271 1056 193 1056 l 800 1056 l 800 1042 l 782 1042 q 725 1035 751 1042 q 683 1007 699 1028 q 668 942 668 986 l 668 -40 q 683 -105 668 -83 q 725 -133 699 -126 q 782 -140 751 -140 l 800 -140 l 800 -154 l 583 -154 l 583 1042 l 451 1042 l 451 -154 l 235 -154 z "},"·":{"ha":347,"x_min":99,"x_max":249,"o":"m 174 400 q 117 424 136 400 q 99 494 99 447 q 117 565 99 542 q 174 589 136 589 q 230 565 211 589 q 249 494 249 542 q 230 424 249 447 q 174 400 211 400 z "},"¸":{"ha":463,"x_min":83,"x_max":374,"o":"m 192 -333 q 130 -328 156 -333 q 83 -318 104 -324 l 83 -303 q 121 -311 103 -308 q 157 -314 139 -314 q 238 -284 213 -314 q 263 -190 263 -254 q 255 -135 263 -158 q 232 -99 247 -112 q 190 -82 217 -85 l 210 0 l 224 0 l 208 -69 q 330 -106 286 -75 q 374 -194 374 -136 q 331 -294 374 -254 q 192 -333 288 -333 z "},"¹":{"ha":556,"x_min":58,"x_max":467,"o":"m 86 538 l 86 551 l 163 551 q 203 560 186 551 q 219 604 219 569 l 219 1064 q 174 1013 192 1032 q 143 985 157 993 q 111 976 129 976 q 72 992 85 976 q 58 1033 58 1008 q 126 1039 99 1035 q 174 1053 153 1043 q 217 1079 196 1063 l 289 1138 l 344 1138 l 344 604 q 362 560 344 569 q 403 551 379 551 l 467 551 l 467 538 l 86 538 z "},"º":{"ha":551,"x_min":49,"x_max":503,"o":"m 275 528 q 108 587 168 528 q 49 764 49 646 q 106 941 49 883 q 278 999 164 999 q 442 941 382 999 q 503 764 503 883 q 444 587 503 646 q 275 528 386 528 m 276 542 q 360 592 336 542 q 383 764 383 642 q 360 936 383 888 q 275 985 336 985 q 193 936 217 985 q 169 764 169 888 q 193 592 169 642 q 276 542 217 542 z "},"»":{"ha":714,"x_min":90,"x_max":624,"o":"m 342 111 l 496 375 l 342 639 l 363 639 l 624 382 l 624 368 l 363 111 l 342 111 m 90 111 l 244 375 l 90 639 l 111 639 l 372 382 l 372 368 l 111 111 l 90 111 z "},"¼":{"ha":1167,"x_min":14,"x_max":1135,"o":"m 329 0 l 825 992 l 840 992 l 344 0 l 329 0 z "},"½":{"ha":1167,"x_min":14,"x_max":1115,"o":"m 301 0 l 797 992 l 813 992 l 317 0 l 301 0 z "},"¾":{"ha":1167,"x_min":56,"x_max":1135,"o":"m 357 0 l 853 992 l 868 992 l 372 0 l 357 0 z "},"¿":{"ha":694,"x_min":71,"x_max":635,"o":"m 414 272 q 299 237 343 265 q 233 150 254 208 q 213 -1 213 92 q 228 -142 213 -86 q 278 -225 244 -197 q 368 -253 313 -253 q 453 -228 419 -253 q 503 -153 486 -204 q 519 -21 519 -103 q 602 -45 569 -21 q 635 -117 635 -69 q 604 -194 635 -160 q 515 -247 574 -228 q 376 -267 457 -267 q 151 -201 232 -267 q 71 -12 71 -136 q 140 167 71 96 q 351 275 208 239 l 372 460 l 393 460 l 414 272 m 385 749 q 441 725 422 749 q 460 654 460 701 q 441 583 460 607 q 385 560 422 560 q 328 583 347 560 q 310 654 310 607 q 328 725 310 701 q 385 749 347 749 z "},"À":{"ha":979,"x_min":0,"x_max":979,"o":"m 0 0 l 0 14 l 40 14 q 92 24 71 14 q 128 57 113 33 q 157 122 143 81 l 460 992 l 531 992 l 879 88 q 901 44 890 60 q 927 21 913 28 q 961 14 942 14 l 979 14 l 979 0 l 597 0 l 597 14 l 629 14 q 706 26 682 14 q 729 71 729 39 q 728 88 729 79 q 724 108 726 97 q 717 132 722 119 l 632 360 l 256 360 l 179 142 q 172 119 175 131 q 168 99 169 108 q 167 82 167 90 q 200 29 167 44 q 307 14 233 14 l 339 14 l 339 0 l 0 0 m 260 374 l 626 374 l 525 644 q 492 735 507 692 q 463 817 476 778 q 439 894 450 857 q 421 838 429 864 q 404 788 413 813 q 385 734 396 763 q 363 668 375 706 l 260 374 m 517 1071 q 457 1120 490 1092 q 391 1178 424 1149 q 331 1235 358 1208 q 289 1279 304 1261 l 289 1293 l 414 1293 q 449 1225 429 1263 q 490 1151 468 1188 q 531 1085 511 1115 l 531 1071 l 517 1071 z "},"Á":{"ha":979,"x_min":0,"x_max":979,"o":"m 0 0 l 0 14 l 40 14 q 92 24 71 14 q 128 57 113 33 q 157 122 143 81 l 460 992 l 531 992 l 879 88 q 901 44 890 60 q 927 21 913 28 q 961 14 942 14 l 979 14 l 979 0 l 597 0 l 597 14 l 629 14 q 706 26 682 14 q 729 71 729 39 q 728 88 729 79 q 724 108 726 97 q 717 132 722 119 l 632 360 l 256 360 l 179 142 q 172 119 175 131 q 168 99 169 108 q 167 82 167 90 q 200 29 167 44 q 307 14 233 14 l 339 14 l 339 0 l 0 0 m 260 374 l 626 374 l 525 644 q 492 735 507 692 q 463 817 476 778 q 439 894 450 857 q 421 838 429 864 q 404 788 413 813 q 385 734 396 763 q 363 668 375 706 l 260 374 m 450 1085 q 491 1151 469 1115 q 533 1225 513 1188 q 567 1293 553 1263 l 692 1293 l 692 1279 q 649 1235 676 1261 q 590 1178 622 1208 q 524 1120 557 1149 q 464 1071 492 1092 l 450 1071 l 450 1085 z "},"Â":{"ha":979,"x_min":0,"x_max":979,"o":"m 0 0 l 0 14 l 40 14 q 92 24 71 14 q 128 57 113 33 q 157 122 143 81 l 460 992 l 531 992 l 879 88 q 901 44 890 60 q 927 21 913 28 q 961 14 942 14 l 979 14 l 979 0 l 597 0 l 597 14 l 629 14 q 706 26 682 14 q 729 71 729 39 q 728 88 729 79 q 724 108 726 97 q 717 132 722 119 l 632 360 l 256 360 l 179 142 q 172 119 175 131 q 168 99 169 108 q 167 82 167 90 q 200 29 167 44 q 307 14 233 14 l 339 14 l 339 0 l 0 0 m 260 374 l 626 374 l 525 644 q 492 735 507 692 q 463 817 476 778 q 439 894 450 857 q 421 838 429 864 q 404 788 413 813 q 385 734 396 763 q 363 668 375 706 l 260 374 m 286 1085 q 342 1151 314 1115 q 395 1225 369 1188 q 439 1293 421 1263 l 543 1293 q 587 1225 561 1263 q 641 1151 613 1188 q 696 1085 669 1115 l 696 1071 l 682 1071 q 619 1110 656 1086 q 547 1161 582 1135 q 492 1210 513 1188 q 435 1161 471 1188 q 363 1110 400 1135 q 300 1071 326 1086 l 286 1071 l 286 1085 z "},"Ã":{"ha":979,"x_min":0,"x_max":979,"o":"m 0 0 l 0 14 l 40 14 q 92 24 71 14 q 128 57 113 33 q 157 122 143 81 l 460 992 l 531 992 l 879 88 q 901 44 890 60 q 927 21 913 28 q 961 14 942 14 l 979 14 l 979 0 l 597 0 l 597 14 l 629 14 q 706 26 682 14 q 729 71 729 39 q 728 88 729 79 q 724 108 726 97 q 717 132 722 119 l 632 360 l 256 360 l 179 142 q 172 119 175 131 q 168 99 169 108 q 167 82 167 90 q 200 29 167 44 q 307 14 233 14 l 339 14 l 339 0 l 0 0 m 260 374 l 626 374 l 525 644 q 492 735 507 692 q 463 817 476 778 q 439 894 450 857 q 421 838 429 864 q 404 788 413 813 q 385 734 396 763 q 363 668 375 706 l 260 374 m 604 1071 q 536 1084 569 1071 q 470 1115 503 1097 q 404 1145 438 1132 q 333 1158 371 1158 q 276 1135 288 1158 q 257 1085 264 1113 l 243 1085 q 261 1164 247 1126 q 303 1225 275 1201 q 376 1249 332 1249 q 445 1235 413 1249 q 510 1205 478 1222 q 577 1174 543 1188 q 647 1161 611 1161 q 704 1183 690 1161 q 724 1235 718 1204 l 738 1235 q 719 1158 733 1196 q 678 1095 706 1119 q 604 1071 650 1071 z "},"Ä":{"ha":979,"x_min":0,"x_max":979,"o":"m 0 0 l 0 14 l 40 14 q 92 24 71 14 q 128 57 113 33 q 157 122 143 81 l 460 992 l 531 992 l 879 88 q 901 44 890 60 q 927 21 913 28 q 961 14 942 14 l 979 14 l 979 0 l 597 0 l 597 14 l 629 14 q 706 26 682 14 q 729 71 729 39 q 728 88 729 79 q 724 108 726 97 q 717 132 722 119 l 632 360 l 256 360 l 179 142 q 172 119 175 131 q 168 99 169 108 q 167 82 167 90 q 200 29 167 44 q 307 14 233 14 l 339 14 l 339 0 l 0 0 m 260 374 l 626 374 l 525 644 q 492 735 507 692 q 463 817 476 778 q 439 894 450 857 q 421 838 429 864 q 404 788 413 813 q 385 734 396 763 q 363 668 375 706 l 260 374 m 622 1107 q 578 1124 596 1107 q 561 1185 561 1142 q 578 1246 561 1229 q 622 1263 596 1263 q 665 1246 647 1263 q 683 1185 683 1229 q 665 1124 683 1142 q 622 1107 647 1107 m 358 1107 q 315 1124 332 1107 q 297 1185 297 1142 q 315 1246 297 1229 q 358 1263 332 1263 q 401 1246 383 1263 q 419 1185 419 1229 q 401 1124 419 1142 q 358 1107 383 1107 z "},"Å":{"ha":979,"x_min":0,"x_max":979,"o":"m 0 0 l 0 14 l 40 14 q 92 24 71 14 q 128 58 113 35 q 158 124 144 82 l 439 929 q 356 980 386 942 q 325 1075 325 1018 q 374 1188 325 1149 q 492 1226 422 1226 q 610 1188 561 1226 q 658 1075 658 1149 q 631 983 658 1019 q 554 932 603 946 l 879 88 q 901 44 890 60 q 927 21 913 28 q 961 14 942 14 l 979 14 l 979 0 l 597 0 l 597 14 l 629 14 q 706 26 682 14 q 729 71 729 39 q 728 88 729 79 q 724 108 726 97 q 717 132 722 119 l 632 360 l 256 360 l 179 142 q 172 119 175 131 q 168 99 169 108 q 167 82 167 90 q 200 29 167 44 q 307 14 233 14 l 339 14 l 339 0 l 0 0 m 260 374 l 626 374 l 525 644 q 492 735 507 692 q 463 817 476 778 q 439 894 450 857 q 415 822 426 854 q 392 753 404 789 q 363 668 381 718 l 260 374 m 492 938 q 597 969 553 938 q 642 1075 642 1001 q 597 1181 642 1149 q 492 1213 553 1213 q 386 1181 431 1213 q 342 1075 342 1149 q 386 969 342 1001 q 492 938 431 938 z "},"Æ":{"ha":1321,"x_min":0,"x_max":1263,"o":"m 0 0 l 0 14 l 36 14 q 82 24 63 14 q 120 58 101 35 q 160 122 139 82 l 621 978 l 439 978 l 439 992 l 1207 992 l 1215 749 l 1201 749 l 1199 794 q 1175 904 1194 864 q 1115 961 1156 944 q 1003 978 1074 978 l 781 978 l 781 526 l 1129 526 l 1129 513 l 781 513 l 781 14 l 1038 14 q 1157 31 1113 14 q 1222 88 1201 47 q 1246 197 1242 128 l 1249 243 l 1263 243 l 1253 0 l 508 0 l 508 14 l 526 14 q 594 22 569 14 q 630 51 619 31 q 640 107 640 72 l 640 360 l 304 360 l 188 143 q 167 97 174 117 q 161 61 161 76 q 183 24 161 35 q 249 14 204 14 l 338 14 l 338 0 l 0 0 m 311 374 l 640 374 l 640 978 l 638 978 l 311 374 z "},"Ç":{"ha":853,"x_min":79,"x_max":806,"o":"m 510 -14 q 271 50 367 -14 q 127 228 175 114 q 79 493 79 342 q 128 761 79 646 q 276 941 176 876 q 526 1006 375 1006 q 678 983 617 1006 q 773 925 740 961 q 806 846 806 889 q 771 776 806 799 q 685 753 736 753 q 667 891 685 839 q 610 967 649 943 q 508 990 571 990 q 350 935 411 990 q 261 770 289 879 q 233 500 233 661 q 263 222 233 333 q 358 56 293 111 q 526 0 422 0 q 678 48 621 0 q 765 203 736 96 q 792 183 783 196 q 800 150 800 169 q 782 95 800 124 q 728 42 764 67 q 638 1 692 17 q 510 -14 583 -14 m 458 -333 q 397 -328 422 -333 q 350 -318 371 -324 l 350 -303 q 388 -311 369 -308 q 424 -314 406 -314 q 504 -284 479 -314 q 529 -190 529 -254 q 522 -135 529 -158 q 499 -99 514 -112 q 457 -82 483 -85 l 476 0 l 490 0 l 475 -69 q 597 -106 553 -75 q 640 -194 640 -136 q 597 -294 640 -254 q 458 -333 554 -333 z "},"È":{"ha":865,"x_min":53,"x_max":807,"o":"m 53 0 l 53 14 l 71 14 q 134 25 108 14 q 172 58 160 36 q 185 114 185 81 l 185 883 q 172 936 185 915 q 134 967 160 957 q 71 978 108 978 l 53 978 l 53 992 l 751 992 l 760 749 l 746 749 l 743 794 q 719 904 739 864 q 659 961 700 944 q 547 978 618 978 l 325 978 l 325 526 l 674 526 l 674 513 l 325 513 l 325 14 l 582 14 q 701 31 657 14 q 766 88 746 47 q 790 197 786 128 l 793 243 l 807 243 l 797 0 l 53 0 m 474 1071 q 414 1120 447 1092 q 348 1178 381 1149 q 288 1235 315 1208 q 246 1279 261 1261 l 246 1293 l 371 1293 q 406 1225 386 1263 q 447 1151 425 1188 q 488 1085 468 1115 l 488 1071 l 474 1071 z "},"É":{"ha":865,"x_min":53,"x_max":807,"o":"m 53 0 l 53 14 l 71 14 q 134 25 108 14 q 172 58 160 36 q 185 114 185 81 l 185 883 q 172 936 185 915 q 134 967 160 957 q 71 978 108 978 l 53 978 l 53 992 l 751 992 l 760 749 l 746 749 l 743 794 q 719 904 739 864 q 659 961 700 944 q 547 978 618 978 l 325 978 l 325 526 l 674 526 l 674 513 l 325 513 l 325 14 l 582 14 q 701 31 657 14 q 766 88 746 47 q 790 197 786 128 l 793 243 l 807 243 l 797 0 l 53 0 m 388 1085 q 428 1151 407 1115 q 470 1225 450 1188 q 504 1293 490 1263 l 629 1293 l 629 1279 q 587 1235 614 1261 q 527 1178 560 1208 q 462 1120 494 1149 q 401 1071 429 1092 l 388 1071 l 388 1085 z "},"Ê":{"ha":865,"x_min":53,"x_max":807,"o":"m 53 0 l 53 14 l 71 14 q 134 25 108 14 q 172 58 160 36 q 185 114 185 81 l 185 883 q 172 936 185 915 q 134 967 160 957 q 71 978 108 978 l 53 978 l 53 992 l 751 992 l 760 749 l 746 749 l 743 794 q 719 904 739 864 q 659 961 700 944 q 547 978 618 978 l 325 978 l 325 526 l 674 526 l 674 513 l 325 513 l 325 14 l 582 14 q 701 31 657 14 q 766 88 746 47 q 790 197 786 128 l 793 243 l 807 243 l 797 0 l 53 0 m 238 1085 q 293 1151 265 1115 q 347 1225 321 1188 q 390 1293 372 1263 l 494 1293 q 538 1225 513 1263 q 592 1151 564 1188 q 647 1085 621 1115 l 647 1071 l 633 1071 q 570 1110 607 1086 q 499 1161 533 1135 q 443 1210 464 1188 q 387 1161 422 1188 q 315 1110 351 1135 q 251 1071 278 1086 l 238 1071 l 238 1085 z "},"Ë":{"ha":865,"x_min":53,"x_max":807,"o":"m 53 0 l 53 14 l 71 14 q 134 25 108 14 q 172 58 160 36 q 185 114 185 81 l 185 883 q 172 936 185 915 q 134 967 160 957 q 71 978 108 978 l 53 978 l 53 992 l 751 992 l 760 749 l 746 749 l 743 794 q 719 904 739 864 q 659 961 700 944 q 547 978 618 978 l 325 978 l 325 526 l 674 526 l 674 513 l 325 513 l 325 14 l 582 14 q 701 31 657 14 q 766 88 746 47 q 790 197 786 128 l 793 243 l 807 243 l 797 0 l 53 0 m 567 1107 q 523 1124 540 1107 q 506 1185 506 1142 q 523 1246 506 1229 q 567 1263 540 1263 q 610 1246 592 1263 q 628 1185 628 1229 q 610 1124 628 1142 q 567 1107 592 1107 m 303 1107 q 259 1124 276 1107 q 242 1185 242 1142 q 259 1246 242 1229 q 303 1263 276 1263 q 346 1246 328 1263 q 364 1185 364 1229 q 346 1124 364 1142 q 303 1107 328 1107 z "},"Ì":{"ha":510,"x_min":53,"x_max":457,"o":"m 53 0 l 53 14 l 71 14 q 134 25 108 14 q 172 58 160 36 q 185 114 185 81 l 185 883 q 172 936 185 915 q 134 967 160 957 q 71 978 108 978 l 53 978 l 53 992 l 457 992 l 457 978 l 439 978 q 376 967 401 978 q 338 933 350 956 q 325 878 325 911 l 325 114 q 338 58 325 81 q 376 25 350 36 q 439 14 401 14 l 457 14 l 457 0 l 53 0 m 290 1071 q 231 1120 264 1092 q 165 1178 197 1149 q 105 1235 132 1208 q 63 1279 78 1261 l 63 1293 l 188 1293 q 222 1225 203 1263 q 263 1151 242 1188 q 304 1085 285 1115 l 304 1071 l 290 1071 z "},"Í":{"ha":510,"x_min":53,"x_max":457,"o":"m 53 0 l 53 14 l 71 14 q 134 25 108 14 q 172 58 160 36 q 185 114 185 81 l 185 883 q 172 936 185 915 q 134 967 160 957 q 71 978 108 978 l 53 978 l 53 992 l 457 992 l 457 978 l 439 978 q 376 967 401 978 q 338 933 350 956 q 325 878 325 911 l 325 114 q 338 58 325 81 q 376 25 350 36 q 439 14 401 14 l 457 14 l 457 0 l 53 0 m 201 1085 q 242 1151 221 1115 q 284 1225 264 1188 q 318 1293 304 1263 l 443 1293 l 443 1279 q 401 1235 428 1261 q 341 1178 374 1208 q 276 1120 308 1149 q 215 1071 243 1092 l 201 1071 l 201 1085 z "},"Î":{"ha":510,"x_min":49,"x_max":458,"o":"m 53 0 l 53 14 l 71 14 q 134 25 108 14 q 172 58 160 36 q 185 114 185 81 l 185 883 q 172 936 185 915 q 134 967 160 957 q 71 978 108 978 l 53 978 l 53 992 l 457 992 l 457 978 l 439 978 q 376 967 401 978 q 338 933 350 956 q 325 878 325 911 l 325 114 q 338 58 325 81 q 376 25 350 36 q 439 14 401 14 l 457 14 l 457 0 l 53 0 m 49 1085 q 104 1151 76 1115 q 158 1225 132 1188 q 201 1293 183 1263 l 306 1293 q 349 1225 324 1263 q 403 1151 375 1188 q 458 1085 432 1115 l 458 1071 l 444 1071 q 381 1110 418 1086 q 310 1161 344 1135 q 254 1210 275 1188 q 198 1161 233 1188 q 126 1110 163 1135 q 63 1071 89 1086 l 49 1071 l 49 1085 z "},"Ï":{"ha":510,"x_min":53,"x_max":457,"o":"m 53 0 l 53 14 l 71 14 q 134 25 108 14 q 172 58 160 36 q 185 114 185 81 l 185 883 q 172 936 185 915 q 134 967 160 957 q 71 978 108 978 l 53 978 l 53 992 l 457 992 l 457 978 l 439 978 q 376 967 401 978 q 338 933 350 956 q 325 878 325 911 l 325 114 q 338 58 325 81 q 376 25 350 36 q 439 14 401 14 l 457 14 l 457 0 l 53 0 m 383 1107 q 340 1124 357 1107 q 322 1185 322 1142 q 340 1246 322 1229 q 383 1263 357 1263 q 426 1246 408 1263 q 444 1185 444 1229 q 426 1124 444 1142 q 383 1107 408 1107 m 119 1107 q 76 1124 93 1107 q 58 1185 58 1142 q 76 1246 58 1229 q 119 1263 93 1263 q 163 1246 144 1263 q 181 1185 181 1229 q 163 1124 181 1142 q 119 1107 144 1107 z "},"Ð":{"ha":1010,"x_min":53,"x_max":931,"o":"m 53 0 l 53 14 l 71 14 q 134 25 108 14 q 172 58 160 36 q 185 114 185 81 l 185 513 l 53 513 l 53 526 l 185 526 l 185 883 q 172 936 185 915 q 134 967 160 957 q 71 978 108 978 l 53 978 l 53 992 l 478 992 q 722 934 621 992 q 877 766 824 876 q 931 497 931 656 q 880 234 931 346 q 729 61 829 122 q 478 0 629 0 l 53 0 m 446 14 q 635 64 563 14 q 742 221 708 114 q 776 497 776 328 q 742 772 776 665 q 635 928 708 878 q 447 978 563 978 l 325 978 l 325 526 l 561 526 l 561 513 l 325 513 l 325 14 l 446 14 z "},"Ñ":{"ha":1060,"x_min":53,"x_max":1021,"o":"m 53 0 l 53 14 l 93 14 q 156 25 131 14 q 194 58 182 36 q 207 114 207 81 l 207 883 q 194 936 207 915 q 156 967 182 957 q 93 978 131 978 l 53 978 l 53 992 l 324 992 l 853 199 l 853 878 q 840 933 853 911 q 803 967 828 956 q 739 978 778 978 l 700 978 l 700 992 l 1021 992 l 1021 978 l 981 978 q 918 967 943 978 q 880 933 893 956 q 867 878 867 911 l 867 0 l 825 0 l 221 906 l 221 114 q 233 58 221 81 q 272 25 246 36 q 335 14 297 14 l 374 14 l 374 0 l 53 0 m 661 1071 q 593 1084 626 1071 q 527 1115 560 1097 q 461 1145 494 1132 q 390 1158 428 1158 q 333 1135 344 1158 q 314 1085 321 1113 l 300 1085 q 318 1164 304 1126 q 360 1225 332 1201 q 433 1249 389 1249 q 502 1235 469 1249 q 567 1205 535 1222 q 634 1174 600 1188 q 704 1161 668 1161 q 761 1183 747 1161 q 781 1235 775 1204 l 794 1235 q 776 1158 790 1196 q 735 1095 763 1119 q 661 1071 707 1071 z "},"Ò":{"ha":1031,"x_min":78,"x_max":951,"o":"m 515 -14 q 271 50 368 -14 q 126 229 174 114 q 78 499 78 344 q 126 767 78 653 q 272 944 174 881 q 517 1007 369 1007 q 753 944 657 1007 q 901 766 850 881 q 951 497 951 651 q 901 228 951 343 q 753 50 850 114 q 515 -14 656 -14 m 515 0 q 642 28 589 0 q 730 117 696 57 q 781 272 764 178 q 797 497 797 367 q 781 722 797 628 q 730 876 764 815 q 643 965 696 936 q 517 993 590 993 q 388 965 442 993 q 300 876 335 936 q 249 722 265 815 q 232 497 232 628 q 249 272 232 367 q 299 117 265 178 q 387 28 333 57 q 515 0 440 0 m 554 1071 q 494 1120 528 1092 q 428 1178 461 1149 q 369 1235 396 1208 q 326 1279 342 1261 l 326 1293 l 451 1293 q 486 1225 467 1263 q 527 1151 506 1188 q 568 1085 549 1115 l 568 1071 l 554 1071 z "},"Ó":{"ha":1031,"x_min":78,"x_max":951,"o":"m 515 -14 q 271 50 368 -14 q 126 229 174 114 q 78 499 78 344 q 126 767 78 653 q 272 944 174 881 q 517 1007 369 1007 q 753 944 657 1007 q 901 766 850 881 q 951 497 951 651 q 901 228 951 343 q 753 50 850 114 q 515 -14 656 -14 m 515 0 q 642 28 589 0 q 730 117 696 57 q 781 272 764 178 q 797 497 797 367 q 781 722 797 628 q 730 876 764 815 q 643 965 696 936 q 517 993 590 993 q 388 965 442 993 q 300 876 335 936 q 249 722 265 815 q 232 497 232 628 q 249 272 232 367 q 299 117 265 178 q 387 28 333 57 q 515 0 440 0 m 458 1085 q 499 1151 478 1115 q 541 1225 521 1188 q 575 1293 561 1263 l 700 1293 l 700 1279 q 658 1235 685 1261 q 598 1178 631 1208 q 533 1120 565 1149 q 472 1071 500 1092 l 458 1071 l 458 1085 z "},"Ô":{"ha":1031,"x_min":78,"x_max":951,"o":"m 515 -14 q 271 50 368 -14 q 126 229 174 114 q 78 499 78 344 q 126 767 78 653 q 272 944 174 881 q 517 1007 369 1007 q 753 944 657 1007 q 901 766 850 881 q 951 497 951 651 q 901 228 951 343 q 753 50 850 114 q 515 -14 656 -14 m 515 0 q 642 28 589 0 q 730 117 696 57 q 781 272 764 178 q 797 497 797 367 q 781 722 797 628 q 730 876 764 815 q 643 965 696 936 q 517 993 590 993 q 388 965 442 993 q 300 876 335 936 q 249 722 265 815 q 232 497 232 628 q 249 272 232 367 q 299 117 265 178 q 387 28 333 57 q 515 0 440 0 m 311 1085 q 367 1151 339 1115 q 420 1225 394 1188 q 464 1293 446 1263 l 568 1293 q 612 1225 586 1263 q 666 1151 638 1188 q 721 1085 694 1115 l 721 1071 l 707 1071 q 644 1110 681 1086 q 572 1161 607 1135 q 517 1210 538 1188 q 460 1161 496 1188 q 388 1110 425 1135 q 325 1071 351 1086 l 311 1071 l 311 1085 z "},"Õ":{"ha":1031,"x_min":78,"x_max":951,"o":"m 515 -14 q 271 50 368 -14 q 126 229 174 114 q 78 499 78 344 q 126 767 78 653 q 272 944 174 881 q 517 1007 369 1007 q 753 944 657 1007 q 901 766 850 881 q 951 497 951 651 q 901 228 951 343 q 753 50 850 114 q 515 -14 656 -14 m 515 0 q 642 28 589 0 q 730 117 696 57 q 781 272 764 178 q 797 497 797 367 q 781 722 797 628 q 730 876 764 815 q 643 965 696 936 q 517 993 590 993 q 388 965 442 993 q 300 876 335 936 q 249 722 265 815 q 232 497 232 628 q 249 272 232 367 q 299 117 265 178 q 387 28 333 57 q 515 0 440 0 m 619 1071 q 551 1084 585 1071 q 485 1115 518 1097 q 419 1145 453 1132 q 349 1158 386 1158 q 291 1135 303 1158 q 272 1085 279 1113 l 258 1085 q 276 1164 263 1126 q 319 1225 290 1201 q 392 1249 347 1249 q 460 1235 428 1249 q 526 1205 493 1222 q 592 1174 558 1188 q 663 1161 626 1161 q 719 1183 706 1161 q 739 1235 733 1204 l 753 1235 q 735 1158 749 1196 q 693 1095 721 1119 q 619 1071 665 1071 z "},"Ö":{"ha":1031,"x_min":78,"x_max":951,"o":"m 515 -14 q 271 50 368 -14 q 126 229 174 114 q 78 499 78 344 q 126 767 78 653 q 272 944 174 881 q 517 1007 369 1007 q 753 944 657 1007 q 901 766 850 881 q 951 497 951 651 q 901 228 951 343 q 753 50 850 114 q 515 -14 656 -14 m 515 0 q 642 28 589 0 q 730 117 696 57 q 781 272 764 178 q 797 497 797 367 q 781 722 797 628 q 730 876 764 815 q 643 965 696 936 q 517 993 590 993 q 388 965 442 993 q 300 876 335 936 q 249 722 265 815 q 232 497 232 628 q 249 272 232 367 q 299 117 265 178 q 387 28 333 57 q 515 0 440 0 m 643 1107 q 599 1124 617 1107 q 582 1185 582 1142 q 599 1246 582 1229 q 643 1263 617 1263 q 686 1246 668 1263 q 704 1185 704 1229 q 686 1124 704 1142 q 643 1107 668 1107 m 379 1107 q 335 1124 353 1107 q 318 1185 318 1142 q 335 1246 318 1229 q 379 1263 353 1263 q 422 1246 404 1263 q 440 1185 440 1229 q 422 1124 440 1142 q 379 1107 404 1107 z "},"×":{"ha":776,"x_min":94,"x_max":682,"o":"m 114 201 l 94 221 l 369 496 l 94 771 l 114 790 l 389 515 l 663 790 l 682 771 l 407 496 l 682 221 l 663 201 l 389 476 l 114 201 z "},"Ø":{"ha":1031,"x_min":78,"x_max":951,"o":"m 265 54 q 124 233 171 118 q 78 499 78 347 q 126 767 78 653 q 272 944 174 881 q 517 1007 369 1007 q 645 991 586 1007 q 753 944 704 975 l 810 1049 l 825 1049 l 764 936 q 903 760 856 874 q 951 497 951 647 q 901 228 951 343 q 753 50 850 114 q 515 -14 656 -14 q 384 2 443 -14 q 276 47 325 18 l 219 -56 l 204 -56 l 265 54 m 722 889 q 637 967 688 942 q 517 993 586 993 q 388 965 442 993 q 300 876 335 936 q 249 722 265 815 q 232 497 232 628 q 248 273 232 367 q 299 118 264 179 l 722 889 m 515 0 q 642 28 589 0 q 730 117 696 57 q 781 272 764 178 q 797 497 797 367 q 781 722 797 628 q 731 876 765 817 l 307 104 q 394 26 342 51 q 515 0 446 0 z "},"Ù":{"ha":996,"x_min":21,"x_max":975,"o":"m 503 -14 q 315 17 393 -14 q 194 118 236 49 q 153 300 153 188 l 153 883 q 140 936 153 915 q 102 967 128 957 q 39 978 76 978 l 21 978 l 21 992 l 425 992 l 425 978 l 407 978 q 344 967 369 978 q 306 934 318 956 q 293 879 293 913 l 293 292 q 323 118 293 181 q 406 31 353 56 q 525 7 458 7 q 688 40 619 7 q 792 137 756 74 q 829 286 829 200 l 829 883 q 817 936 829 915 q 778 967 804 957 q 715 978 753 978 l 697 978 l 697 992 l 975 992 l 975 978 l 957 978 q 894 967 919 978 q 856 933 868 956 q 843 878 843 911 l 843 283 q 804 125 843 192 q 690 22 765 58 q 503 -14 614 -14 m 549 1071 q 489 1120 522 1092 q 423 1178 456 1149 q 363 1235 390 1208 q 321 1279 336 1261 l 321 1293 l 446 1293 q 481 1225 461 1263 q 522 1151 500 1188 q 563 1085 543 1115 l 563 1071 l 549 1071 z "},"Ú":{"ha":996,"x_min":21,"x_max":975,"o":"m 503 -14 q 315 17 393 -14 q 194 118 236 49 q 153 300 153 188 l 153 883 q 140 936 153 915 q 102 967 128 957 q 39 978 76 978 l 21 978 l 21 992 l 425 992 l 425 978 l 407 978 q 344 967 369 978 q 306 934 318 956 q 293 879 293 913 l 293 292 q 323 118 293 181 q 406 31 353 56 q 525 7 458 7 q 688 40 619 7 q 792 137 756 74 q 829 286 829 200 l 829 883 q 817 936 829 915 q 778 967 804 957 q 715 978 753 978 l 697 978 l 697 992 l 975 992 l 975 978 l 957 978 q 894 967 919 978 q 856 933 868 956 q 843 878 843 911 l 843 283 q 804 125 843 192 q 690 22 765 58 q 503 -14 614 -14 m 458 1085 q 499 1151 478 1115 q 541 1225 521 1188 q 575 1293 561 1263 l 700 1293 l 700 1279 q 658 1235 685 1261 q 598 1178 631 1208 q 533 1120 565 1149 q 472 1071 500 1092 l 458 1071 l 458 1085 z "},"Û":{"ha":996,"x_min":21,"x_max":975,"o":"m 503 -14 q 315 17 393 -14 q 194 118 236 49 q 153 300 153 188 l 153 883 q 140 936 153 915 q 102 967 128 957 q 39 978 76 978 l 21 978 l 21 992 l 425 992 l 425 978 l 407 978 q 344 967 369 978 q 306 934 318 956 q 293 879 293 913 l 293 292 q 323 118 293 181 q 406 31 353 56 q 525 7 458 7 q 688 40 619 7 q 792 137 756 74 q 829 286 829 200 l 829 883 q 817 936 829 915 q 778 967 804 957 q 715 978 753 978 l 697 978 l 697 992 l 975 992 l 975 978 l 957 978 q 894 967 919 978 q 856 933 868 956 q 843 878 843 911 l 843 283 q 804 125 843 192 q 690 22 765 58 q 503 -14 614 -14 m 319 1085 q 375 1151 347 1115 q 428 1225 403 1188 q 472 1293 454 1263 l 576 1293 q 620 1225 594 1263 q 674 1151 646 1188 q 729 1085 703 1115 l 729 1071 l 715 1071 q 652 1110 689 1086 q 581 1161 615 1135 q 525 1210 546 1188 q 469 1161 504 1188 q 397 1110 433 1135 q 333 1071 360 1086 l 319 1071 l 319 1085 z "},"Ü":{"ha":996,"x_min":21,"x_max":975,"o":"m 503 -14 q 315 17 393 -14 q 194 118 236 49 q 153 300 153 188 l 153 883 q 140 936 153 915 q 102 967 128 957 q 39 978 76 978 l 21 978 l 21 992 l 425 992 l 425 978 l 407 978 q 344 967 369 978 q 306 934 318 956 q 293 879 293 913 l 293 292 q 323 118 293 181 q 406 31 353 56 q 525 7 458 7 q 688 40 619 7 q 792 137 756 74 q 829 286 829 200 l 829 883 q 817 936 829 915 q 778 967 804 957 q 715 978 753 978 l 697 978 l 697 992 l 975 992 l 975 978 l 957 978 q 894 967 919 978 q 856 933 868 956 q 843 878 843 911 l 843 283 q 804 125 843 192 q 690 22 765 58 q 503 -14 614 -14 m 658 1107 q 615 1124 632 1107 q 597 1185 597 1142 q 615 1246 597 1229 q 658 1263 632 1263 q 701 1246 683 1263 q 719 1185 719 1229 q 701 1124 719 1142 q 658 1107 683 1107 m 394 1107 q 351 1124 368 1107 q 333 1185 333 1142 q 351 1246 333 1229 q 394 1263 368 1263 q 438 1246 419 1263 q 456 1185 456 1229 q 438 1124 456 1142 q 394 1107 419 1107 z "},"Ý":{"ha":868,"x_min":-7,"x_max":882,"o":"m 221 0 l 221 14 l 253 14 q 316 25 290 14 q 354 58 342 36 q 367 114 367 81 l 367 435 l 119 904 q 92 948 106 932 q 61 971 78 964 q 21 978 44 978 l -7 978 l -7 992 l 375 992 l 375 978 l 328 978 q 280 969 296 978 q 264 940 264 961 q 271 907 264 926 q 292 860 278 888 l 411 629 q 439 576 426 601 q 463 527 451 550 q 483 484 474 504 q 500 447 493 464 q 541 528 517 479 q 593 629 565 576 l 699 833 q 724 889 715 865 q 732 929 732 913 q 710 967 732 957 q 640 978 688 978 l 585 978 l 585 992 l 882 992 l 882 978 l 847 978 q 808 968 825 978 q 773 935 790 958 q 733 869 756 911 l 507 432 l 507 114 q 519 58 507 81 q 558 25 532 36 q 621 14 583 14 l 653 14 l 653 0 l 221 0 m 403 1085 q 444 1151 422 1115 q 485 1225 465 1188 q 519 1293 506 1263 l 644 1293 l 644 1279 q 602 1235 629 1261 q 542 1178 575 1208 q 477 1120 510 1149 q 417 1071 444 1092 l 403 1071 l 403 1085 z "},"Þ":{"ha":839,"x_min":53,"x_max":785,"o":"m 53 0 l 53 14 l 71 14 q 134 25 108 14 q 172 58 160 36 q 185 114 185 81 l 185 883 q 172 936 185 915 q 134 967 160 957 q 71 978 108 978 l 53 978 l 53 992 l 457 992 l 457 978 l 439 978 q 376 967 401 978 q 338 933 350 956 q 325 878 325 911 l 325 792 l 443 792 q 701 722 618 792 q 785 515 785 651 q 749 365 785 433 q 632 255 714 296 q 413 214 550 214 l 325 214 l 325 114 q 338 58 325 81 q 376 25 350 36 q 439 14 401 14 l 457 14 l 457 0 l 53 0 m 399 228 q 535 256 483 228 q 611 347 588 285 q 635 510 635 408 q 613 665 635 607 q 544 751 592 724 q 419 778 497 778 l 325 778 l 325 228 l 399 228 z "},"ß":{"ha":899,"x_min":32,"x_max":838,"o":"m 599 -14 q 490 2 538 -14 q 414 50 442 18 q 386 132 386 82 q 400 190 386 169 q 433 220 414 211 q 465 229 451 229 q 481 102 465 153 q 530 26 497 51 q 613 0 563 0 q 681 16 653 0 q 724 64 708 32 q 739 146 739 96 q 724 222 739 192 q 676 278 710 253 q 583 335 642 304 q 492 390 532 363 q 430 455 453 417 q 407 554 407 493 q 431 658 407 615 q 507 724 456 701 q 636 747 558 747 q 619 921 636 856 q 563 1016 601 986 q 463 1046 525 1046 q 333 991 372 1046 q 294 806 294 936 l 294 0 l 32 0 l 32 14 l 50 14 q 113 25 88 14 q 151 58 139 36 q 164 114 164 81 l 164 731 l 51 731 l 51 744 l 164 744 l 164 786 q 203 949 164 889 q 311 1034 243 1008 q 464 1060 379 1060 q 645 1018 579 1060 q 739 903 711 976 q 767 731 767 829 l 665 731 q 579 717 617 731 q 521 676 542 704 q 500 601 500 647 q 517 534 500 561 q 567 485 533 507 q 649 438 600 464 q 745 379 703 408 q 813 308 788 350 q 838 199 838 267 q 776 40 838 94 q 599 -14 714 -14 z "},"à":{"ha":782,"x_min":69,"x_max":722,"o":"m 299 -14 q 131 41 193 -14 q 69 192 69 96 q 148 351 69 299 q 386 410 226 404 l 501 414 l 501 518 q 493 646 501 596 q 457 720 485 696 q 372 744 429 744 q 269 694 292 744 q 246 538 246 644 q 158 557 188 538 q 128 621 128 576 q 162 701 128 671 q 253 744 196 731 q 378 758 310 758 q 569 704 506 758 q 632 518 632 650 l 632 103 q 640 50 632 69 q 668 22 649 31 q 718 14 688 14 l 722 14 l 722 0 l 513 0 l 513 146 l 510 146 q 465 55 496 90 q 392 3 435 19 q 299 -14 350 -14 m 326 6 q 417 32 378 6 q 479 103 457 58 q 501 199 501 147 l 501 399 l 413 394 q 249 340 294 389 q 204 176 204 292 q 217 83 204 121 q 258 25 231 44 q 326 6 286 6 m 422 842 q 363 891 396 863 q 297 949 329 919 q 237 1006 264 979 q 194 1050 210 1032 l 194 1064 l 319 1064 q 354 996 335 1033 q 395 922 374 958 q 436 856 417 886 l 436 842 l 422 842 z "},"á":{"ha":782,"x_min":69,"x_max":722,"o":"m 299 -14 q 131 41 193 -14 q 69 192 69 96 q 148 351 69 299 q 386 410 226 404 l 501 414 l 501 518 q 493 646 501 596 q 457 720 485 696 q 372 744 429 744 q 269 694 292 744 q 246 538 246 644 q 158 557 188 538 q 128 621 128 576 q 162 701 128 671 q 253 744 196 731 q 378 758 310 758 q 569 704 506 758 q 632 518 632 650 l 632 103 q 640 50 632 69 q 668 22 649 31 q 718 14 688 14 l 722 14 l 722 0 l 513 0 l 513 146 l 510 146 q 465 55 496 90 q 392 3 435 19 q 299 -14 350 -14 m 326 6 q 417 32 378 6 q 479 103 457 58 q 501 199 501 147 l 501 399 l 413 394 q 249 340 294 389 q 204 176 204 292 q 217 83 204 121 q 258 25 231 44 q 326 6 286 6 m 338 856 q 378 922 357 886 q 420 996 400 958 q 454 1064 440 1033 l 579 1064 l 579 1050 q 537 1006 564 1032 q 477 949 510 979 q 412 891 444 919 q 351 842 379 863 l 338 842 l 338 856 z "},"â":{"ha":782,"x_min":69,"x_max":722,"o":"m 299 -14 q 131 41 193 -14 q 69 192 69 96 q 148 351 69 299 q 386 410 226 404 l 501 414 l 501 518 q 493 646 501 596 q 457 720 485 696 q 372 744 429 744 q 269 694 292 744 q 246 538 246 644 q 158 557 188 538 q 128 621 128 576 q 162 701 128 671 q 253 744 196 731 q 378 758 310 758 q 569 704 506 758 q 632 518 632 650 l 632 103 q 640 50 632 69 q 668 22 649 31 q 718 14 688 14 l 722 14 l 722 0 l 513 0 l 513 146 l 510 146 q 465 55 496 90 q 392 3 435 19 q 299 -14 350 -14 m 326 6 q 417 32 378 6 q 479 103 457 58 q 501 199 501 147 l 501 399 l 413 394 q 249 340 294 389 q 204 176 204 292 q 217 83 204 121 q 258 25 231 44 q 326 6 286 6 m 176 856 q 232 922 204 886 q 285 996 260 958 q 329 1064 311 1033 l 433 1064 q 477 996 451 1033 q 531 922 503 958 q 586 856 560 886 l 586 842 l 572 842 q 509 881 546 857 q 438 932 472 906 q 382 981 403 958 q 326 932 361 958 q 253 881 290 906 q 190 842 217 857 l 176 842 l 176 856 z "},"ã":{"ha":782,"x_min":69,"x_max":722,"o":"m 299 -14 q 131 41 193 -14 q 69 192 69 96 q 148 351 69 299 q 386 410 226 404 l 501 414 l 501 518 q 493 646 501 596 q 457 720 485 696 q 372 744 429 744 q 269 694 292 744 q 246 538 246 644 q 158 557 188 538 q 128 621 128 576 q 162 701 128 671 q 253 744 196 731 q 378 758 310 758 q 569 704 506 758 q 632 518 632 650 l 632 103 q 640 50 632 69 q 668 22 649 31 q 718 14 688 14 l 722 14 l 722 0 l 513 0 l 513 146 l 510 146 q 465 55 496 90 q 392 3 435 19 q 299 -14 350 -14 m 326 6 q 417 32 378 6 q 479 103 457 58 q 501 199 501 147 l 501 399 l 413 394 q 249 340 294 389 q 204 176 204 292 q 217 83 204 121 q 258 25 231 44 q 326 6 286 6 m 500 842 q 432 855 465 842 q 366 885 399 868 q 300 916 333 903 q 229 929 267 929 q 172 906 183 929 q 153 856 160 883 l 139 856 q 157 935 143 897 q 199 996 171 972 q 272 1019 228 1019 q 341 1006 308 1019 q 406 976 374 993 q 473 945 439 958 q 543 932 507 932 q 600 953 586 932 q 619 1006 614 975 l 633 1006 q 615 928 629 967 q 574 866 601 890 q 500 842 546 842 z "},"ä":{"ha":782,"x_min":69,"x_max":722,"o":"m 299 -14 q 131 41 193 -14 q 69 192 69 96 q 148 351 69 299 q 386 410 226 404 l 501 414 l 501 518 q 493 646 501 596 q 457 720 485 696 q 372 744 429 744 q 269 694 292 744 q 246 538 246 644 q 158 557 188 538 q 128 621 128 576 q 162 701 128 671 q 253 744 196 731 q 378 758 310 758 q 569 704 506 758 q 632 518 632 650 l 632 103 q 640 50 632 69 q 668 22 649 31 q 718 14 688 14 l 722 14 l 722 0 l 513 0 l 513 146 l 510 146 q 465 55 496 90 q 392 3 435 19 q 299 -14 350 -14 m 326 6 q 417 32 378 6 q 479 103 457 58 q 501 199 501 147 l 501 399 l 413 394 q 249 340 294 389 q 204 176 204 292 q 217 83 204 121 q 258 25 231 44 q 326 6 286 6 m 508 878 q 465 895 482 878 q 447 956 447 913 q 465 1017 447 1000 q 508 1033 482 1033 q 551 1017 533 1033 q 569 956 569 1000 q 551 895 569 913 q 508 878 533 878 m 244 878 q 201 895 218 878 q 183 956 183 913 q 201 1017 183 1000 q 244 1033 218 1033 q 288 1017 269 1033 q 306 956 306 1000 q 288 895 306 913 q 244 878 269 878 z "},"å":{"ha":782,"x_min":69,"x_max":722,"o":"m 299 -14 q 131 41 193 -14 q 69 192 69 96 q 148 351 69 299 q 386 410 226 404 l 501 414 l 501 518 q 493 646 501 596 q 457 720 485 696 q 372 744 429 744 q 269 694 292 744 q 246 538 246 644 q 158 557 188 538 q 128 621 128 576 q 162 701 128 671 q 253 744 196 731 q 378 758 310 758 q 569 704 506 758 q 632 518 632 650 l 632 103 q 640 50 632 69 q 668 22 649 31 q 718 14 688 14 l 722 14 l 722 0 l 513 0 l 513 146 l 510 146 q 465 55 496 90 q 392 3 435 19 q 299 -14 350 -14 m 326 6 q 417 32 378 6 q 479 103 457 58 q 501 199 501 147 l 501 399 l 413 394 q 249 340 294 389 q 204 176 204 292 q 217 83 204 121 q 258 25 231 44 q 326 6 286 6 m 389 828 q 271 867 319 828 q 222 979 222 906 q 271 1092 222 1053 q 389 1131 319 1131 q 507 1092 458 1131 q 556 979 556 1053 q 507 867 556 906 q 389 828 458 828 m 389 842 q 497 876 456 842 q 539 979 539 911 q 497 1083 539 1049 q 389 1117 456 1117 q 281 1083 322 1117 q 239 979 239 1049 q 281 876 239 911 q 389 842 322 842 z "},"æ":{"ha":1168,"x_min":69,"x_max":1099,"o":"m 299 -14 q 176 11 228 -14 q 97 82 125 36 q 69 192 69 128 q 148 351 69 299 q 386 410 226 404 l 501 414 l 501 518 q 493 646 501 596 q 457 720 485 696 q 372 744 429 744 q 269 694 292 744 q 246 538 246 644 q 158 557 188 538 q 128 621 128 576 q 162 701 128 671 q 253 744 196 731 q 378 758 310 758 q 472 750 431 758 q 544 723 513 742 q 594 674 575 704 q 688 738 633 717 q 810 758 742 758 q 1022 675 944 758 q 1099 426 1099 592 l 1099 393 l 636 393 q 657 165 638 251 q 720 40 676 79 q 835 0 764 0 q 928 19 888 0 q 997 77 969 39 q 1035 171 1025 115 q 1060 154 1051 168 q 1068 125 1068 140 q 1042 65 1068 97 q 963 9 1015 32 q 831 -14 911 -14 q 646 35 722 -14 q 533 178 569 85 q 484 75 515 118 q 407 9 453 32 q 299 -14 361 -14 m 326 6 q 417 31 378 6 q 479 101 457 57 q 501 199 501 144 l 501 399 l 413 394 q 288 369 333 392 q 224 301 243 347 q 204 176 204 254 q 235 49 204 92 q 326 6 265 6 m 958 407 q 943 603 958 529 q 894 710 928 676 q 807 744 861 744 q 714 710 750 744 q 660 603 678 676 q 636 407 642 529 l 958 407 z "},"ç":{"ha":683,"x_min":76,"x_max":635,"o":"m 396 -14 q 229 24 301 -14 q 117 149 157 63 q 76 375 76 235 q 117 602 76 518 q 228 722 158 686 q 385 758 297 758 q 499 743 443 758 q 592 697 556 728 q 628 614 628 665 q 613 565 628 583 q 572 538 599 546 q 504 529 544 529 q 494 651 504 603 q 457 722 483 699 q 382 744 431 744 q 293 713 332 744 q 233 602 254 682 q 211 374 211 522 q 232 155 211 238 q 299 36 253 72 q 417 0 344 0 q 499 15 463 0 q 563 69 536 31 q 606 174 590 107 q 627 160 619 171 q 635 129 635 149 q 608 63 635 96 q 529 8 582 31 q 396 -14 476 -14 m 356 -333 q 294 -328 319 -333 q 247 -318 268 -324 l 247 -303 q 285 -311 267 -308 q 321 -314 303 -314 q 401 -284 376 -314 q 426 -190 426 -254 q 419 -135 426 -158 q 396 -99 411 -112 q 354 -82 381 -85 l 374 0 l 388 0 l 372 -69 q 494 -106 450 -75 q 538 -194 538 -136 q 494 -294 538 -254 q 356 -333 451 -333 z "},"è":{"ha":743,"x_min":76,"x_max":674,"o":"m 406 -14 q 163 86 250 -14 q 76 367 76 186 q 157 660 76 561 q 385 758 238 758 q 597 675 519 758 q 674 426 674 592 l 674 393 l 211 393 q 232 165 213 251 q 295 40 251 79 q 410 0 339 0 q 503 19 463 0 q 572 77 544 39 q 610 171 600 115 q 635 154 626 168 q 643 125 643 140 q 617 65 643 97 q 538 9 590 32 q 406 -14 486 -14 m 533 407 q 518 603 533 529 q 469 710 503 676 q 382 744 436 744 q 289 710 325 744 q 235 603 253 676 q 211 407 217 529 l 533 407 m 433 842 q 374 891 407 863 q 308 949 340 919 q 248 1006 275 979 q 206 1050 221 1032 l 206 1064 l 331 1064 q 365 996 346 1033 q 406 922 385 958 q 447 856 428 886 l 447 842 l 433 842 z "},"é":{"ha":743,"x_min":76,"x_max":674,"o":"m 406 -14 q 163 86 250 -14 q 76 367 76 186 q 157 660 76 561 q 385 758 238 758 q 597 675 519 758 q 674 426 674 592 l 674 393 l 211 393 q 232 165 213 251 q 295 40 251 79 q 410 0 339 0 q 503 19 463 0 q 572 77 544 39 q 610 171 600 115 q 635 154 626 168 q 643 125 643 140 q 617 65 643 97 q 538 9 590 32 q 406 -14 486 -14 m 533 407 q 518 603 533 529 q 469 710 503 676 q 382 744 436 744 q 289 710 325 744 q 235 603 253 676 q 211 407 217 529 l 533 407 m 339 856 q 380 922 358 886 q 422 996 401 958 q 456 1064 442 1033 l 581 1064 l 581 1050 q 538 1006 565 1032 q 478 949 511 979 q 413 891 446 919 q 353 842 381 863 l 339 842 l 339 856 z "},"ê":{"ha":743,"x_min":76,"x_max":674,"o":"m 406 -14 q 163 86 250 -14 q 76 367 76 186 q 157 660 76 561 q 385 758 238 758 q 597 675 519 758 q 674 426 674 592 l 674 393 l 211 393 q 232 165 213 251 q 295 40 251 79 q 410 0 339 0 q 503 19 463 0 q 572 77 544 39 q 610 171 600 115 q 635 154 626 168 q 643 125 643 140 q 617 65 643 97 q 538 9 590 32 q 406 -14 486 -14 m 533 407 q 518 603 533 529 q 469 710 503 676 q 382 744 436 744 q 289 710 325 744 q 235 603 253 676 q 211 407 217 529 l 533 407 m 172 856 q 228 922 200 886 q 281 996 256 958 q 325 1064 307 1033 l 429 1064 q 473 996 447 1033 q 527 922 499 958 q 582 856 556 886 l 582 842 l 568 842 q 505 881 542 857 q 433 932 468 906 q 378 981 399 958 q 322 932 357 958 q 249 881 286 906 q 186 842 213 857 l 172 842 l 172 856 z "},"ë":{"ha":743,"x_min":76,"x_max":674,"o":"m 406 -14 q 163 86 250 -14 q 76 367 76 186 q 157 660 76 561 q 385 758 238 758 q 597 675 519 758 q 674 426 674 592 l 674 393 l 211 393 q 232 165 213 251 q 295 40 251 79 q 410 0 339 0 q 503 19 463 0 q 572 77 544 39 q 610 171 600 115 q 635 154 626 168 q 643 125 643 140 q 617 65 643 97 q 538 9 590 32 q 406 -14 486 -14 m 533 407 q 518 603 533 529 q 469 710 503 676 q 382 744 436 744 q 289 710 325 744 q 235 603 253 676 q 211 407 217 529 l 533 407 m 506 878 q 462 895 479 878 q 444 956 444 913 q 462 1017 444 1000 q 506 1033 479 1033 q 549 1017 531 1033 q 567 956 567 1000 q 549 895 567 913 q 506 878 531 878 m 242 878 q 198 895 215 878 q 181 956 181 913 q 198 1017 181 1000 q 242 1033 215 1033 q 285 1017 267 1033 q 303 956 303 1000 q 285 895 303 913 q 242 878 267 878 z "},"ì":{"ha":444,"x_min":32,"x_max":426,"o":"m 32 0 l 32 14 l 50 14 q 117 25 92 14 q 153 60 142 36 q 164 121 164 83 l 164 622 q 153 685 164 661 q 117 719 142 708 q 50 731 92 731 l 46 731 l 46 744 l 294 744 l 294 128 q 306 61 294 86 q 342 25 317 36 q 408 14 368 14 l 426 14 l 426 0 l 32 0 m 265 842 q 206 891 239 863 q 140 949 172 919 q 80 1006 107 979 q 38 1050 53 1032 l 38 1064 l 163 1064 q 197 996 178 1033 q 238 922 217 958 q 279 856 260 886 l 279 842 l 265 842 z "},"í":{"ha":444,"x_min":32,"x_max":426,"o":"m 32 0 l 32 14 l 50 14 q 117 25 92 14 q 153 60 142 36 q 164 121 164 83 l 164 622 q 153 685 164 661 q 117 719 142 708 q 50 731 92 731 l 46 731 l 46 744 l 294 744 l 294 128 q 306 61 294 86 q 342 25 317 36 q 408 14 368 14 l 426 14 l 426 0 l 32 0 m 181 856 q 222 922 200 886 q 263 996 243 958 q 297 1064 283 1033 l 422 1064 l 422 1050 q 380 1006 407 1032 q 320 949 353 979 q 255 891 288 919 q 194 842 222 863 l 181 842 l 181 856 z "},"î":{"ha":444,"x_min":14,"x_max":426,"o":"m 32 0 l 32 14 l 50 14 q 117 25 92 14 q 153 60 142 36 q 164 121 164 83 l 164 622 q 153 685 164 661 q 117 719 142 708 q 50 731 92 731 l 46 731 l 46 744 l 294 744 l 294 128 q 306 61 294 86 q 342 25 317 36 q 408 14 368 14 l 426 14 l 426 0 l 32 0 m 14 856 q 69 922 42 886 q 123 996 97 958 q 167 1064 149 1033 l 271 1064 q 315 996 289 1033 q 369 922 340 958 q 424 856 397 886 l 424 842 l 410 842 q 347 881 383 857 q 275 932 310 906 q 219 981 240 958 q 163 932 199 958 q 91 881 128 906 q 28 842 54 857 l 14 842 l 14 856 z "},"ï":{"ha":444,"x_min":7,"x_max":426,"o":"m 32 0 l 32 14 l 50 14 q 117 25 92 14 q 153 60 142 36 q 164 121 164 83 l 164 622 q 153 685 164 661 q 117 719 142 708 q 50 731 92 731 l 46 731 l 46 744 l 294 744 l 294 128 q 306 61 294 86 q 342 25 317 36 q 408 14 368 14 l 426 14 l 426 0 l 32 0 m 332 878 q 288 895 306 878 q 271 956 271 913 q 288 1017 271 1000 q 332 1033 306 1033 q 375 1017 357 1033 q 393 956 393 1000 q 375 895 393 913 q 332 878 357 878 m 68 878 q 24 895 42 878 q 7 956 7 913 q 24 1017 7 1000 q 68 1033 42 1033 q 111 1017 93 1033 q 129 956 129 1000 q 111 895 129 913 q 68 878 93 878 z "},"ð":{"ha":801,"x_min":76,"x_max":725,"o":"m 399 -14 q 226 26 299 -14 q 115 145 154 65 q 76 346 76 225 q 116 546 76 467 q 225 664 156 625 q 383 703 294 703 q 467 691 431 703 q 532 658 504 679 q 576 610 560 638 q 522 776 560 704 q 436 900 485 849 l 249 793 l 249 810 l 425 911 q 319 994 376 963 q 208 1043 263 1026 l 208 1057 q 351 1008 285 1039 q 471 938 417 978 l 628 1028 l 628 1011 l 483 928 q 663 703 601 838 q 725 404 725 569 q 688 171 725 264 q 578 32 651 78 q 399 -14 506 -14 m 401 0 q 510 36 468 0 q 571 149 551 72 q 590 346 590 225 q 569 542 590 467 q 505 653 549 618 q 394 689 461 689 q 288 653 329 689 q 229 542 247 618 q 211 346 211 467 q 231 149 211 225 q 292 36 250 72 q 401 0 335 0 z "},"ñ":{"ha":896,"x_min":39,"x_max":857,"o":"m 39 0 l 39 14 l 50 14 q 118 26 93 14 q 153 65 143 38 q 164 142 164 93 l 164 606 q 153 680 164 653 q 119 719 143 707 q 53 731 96 731 l 46 731 l 46 744 l 293 744 l 293 614 l 296 614 q 350 710 315 679 q 426 749 385 740 q 501 758 467 758 q 685 694 625 758 q 746 486 746 629 l 746 142 q 756 65 746 93 q 788 26 765 38 q 850 14 811 14 l 857 14 l 857 0 l 615 0 l 615 533 q 582 681 615 624 q 467 738 549 738 q 364 703 401 738 q 310 613 326 668 q 294 499 294 558 l 294 142 q 305 65 294 93 q 340 26 315 38 q 406 14 364 14 l 413 14 l 413 0 l 39 0 m 568 842 q 500 855 533 842 q 434 885 467 868 q 368 916 401 903 q 297 929 335 929 q 240 906 251 929 q 221 856 228 883 l 207 856 q 225 935 211 897 q 267 996 239 972 q 340 1019 296 1019 q 409 1006 376 1019 q 474 976 442 993 q 541 945 507 958 q 611 932 575 932 q 668 953 654 932 q 688 1006 682 975 l 701 1006 q 683 928 697 967 q 642 866 669 890 q 568 842 614 842 z "},"ò":{"ha":801,"x_min":76,"x_max":725,"o":"m 399 -14 q 163 82 249 -14 q 76 374 76 178 q 159 663 76 568 q 403 758 242 758 q 639 663 553 758 q 725 374 725 568 q 642 82 725 178 q 399 -14 560 -14 m 401 0 q 511 38 469 0 q 572 157 553 75 q 590 374 590 239 q 572 589 590 507 q 511 708 553 671 q 400 744 469 744 q 290 708 332 744 q 230 589 249 671 q 211 374 211 507 q 230 157 211 239 q 291 38 249 75 q 401 0 333 0 m 442 842 q 382 891 415 863 q 316 949 349 919 q 256 1006 283 979 q 214 1050 229 1032 l 214 1064 l 339 1064 q 374 996 354 1033 q 415 922 393 958 q 456 856 436 886 l 456 842 l 442 842 z "},"ó":{"ha":801,"x_min":76,"x_max":725,"o":"m 399 -14 q 163 82 249 -14 q 76 374 76 178 q 159 663 76 568 q 403 758 242 758 q 639 663 553 758 q 725 374 725 568 q 642 82 725 178 q 399 -14 560 -14 m 401 0 q 511 38 469 0 q 572 157 553 75 q 590 374 590 239 q 572 589 590 507 q 511 708 553 671 q 400 744 469 744 q 290 708 332 744 q 230 589 249 671 q 211 374 211 507 q 230 157 211 239 q 291 38 249 75 q 401 0 333 0 m 365 856 q 406 922 385 886 q 448 996 428 958 q 482 1064 468 1033 l 607 1064 l 607 1050 q 565 1006 592 1032 q 505 949 538 979 q 440 891 472 919 q 379 842 407 863 l 365 842 l 365 856 z "},"ô":{"ha":801,"x_min":76,"x_max":725,"o":"m 399 -14 q 163 82 249 -14 q 76 374 76 178 q 159 663 76 568 q 403 758 242 758 q 639 663 553 758 q 725 374 725 568 q 642 82 725 178 q 399 -14 560 -14 m 401 0 q 511 38 469 0 q 572 157 553 75 q 590 374 590 239 q 572 589 590 507 q 511 708 553 671 q 400 744 469 744 q 290 708 332 744 q 230 589 249 671 q 211 374 211 507 q 230 157 211 239 q 291 38 249 75 q 401 0 333 0 m 192 856 q 247 922 219 886 q 301 996 275 958 q 344 1064 326 1033 l 449 1064 q 492 996 467 1033 q 547 922 518 958 q 601 856 575 886 l 601 842 l 588 842 q 524 881 561 857 q 453 932 488 906 q 397 981 418 958 q 341 932 376 958 q 269 881 306 906 q 206 842 232 857 l 192 842 l 192 856 z "},"õ":{"ha":801,"x_min":76,"x_max":725,"o":"m 399 -14 q 163 82 249 -14 q 76 374 76 178 q 159 663 76 568 q 403 758 242 758 q 639 663 553 758 q 725 374 725 568 q 642 82 725 178 q 399 -14 560 -14 m 401 0 q 511 38 469 0 q 572 157 553 75 q 590 374 590 239 q 572 589 590 507 q 511 708 553 671 q 400 744 469 744 q 290 708 332 744 q 230 589 249 671 q 211 374 211 507 q 230 157 211 239 q 291 38 249 75 q 401 0 333 0 m 510 842 q 442 855 475 842 q 376 885 408 868 q 310 916 343 903 q 239 929 276 929 q 181 906 193 929 q 163 856 169 883 l 149 856 q 167 935 153 897 q 209 996 181 972 q 282 1019 238 1019 q 351 1006 318 1019 q 416 976 383 993 q 483 945 449 958 q 553 932 517 932 q 610 953 596 932 q 629 1006 624 975 l 643 1006 q 625 928 639 967 q 583 866 611 890 q 510 842 556 842 z "},"ö":{"ha":801,"x_min":76,"x_max":725,"o":"m 399 -14 q 163 82 249 -14 q 76 374 76 178 q 159 663 76 568 q 403 758 242 758 q 639 663 553 758 q 725 374 725 568 q 642 82 725 178 q 399 -14 560 -14 m 401 0 q 511 38 469 0 q 572 157 553 75 q 590 374 590 239 q 572 589 590 507 q 511 708 553 671 q 400 744 469 744 q 290 708 332 744 q 230 589 249 671 q 211 374 211 507 q 230 157 211 239 q 291 38 249 75 q 401 0 333 0 m 526 878 q 483 895 500 878 q 465 956 465 913 q 483 1017 465 1000 q 526 1033 500 1033 q 569 1017 551 1033 q 588 956 588 1000 q 569 895 588 913 q 526 878 551 878 m 263 878 q 219 895 236 878 q 201 956 201 913 q 219 1017 201 1000 q 263 1033 236 1033 q 306 1017 288 1033 q 324 956 324 1000 q 306 895 324 913 q 263 878 288 878 z "},"÷":{"ha":776,"x_min":90,"x_max":686,"o":"m 90 482 l 90 510 l 686 510 l 686 482 l 90 482 m 389 200 q 349 213 365 200 q 332 258 332 226 q 349 306 332 293 q 389 318 365 318 q 429 306 413 318 q 446 258 446 293 q 429 213 446 226 q 389 200 413 200 m 389 675 q 349 688 365 675 q 332 735 332 701 q 349 781 332 768 q 389 793 365 793 q 429 781 413 793 q 446 735 446 768 q 429 688 446 701 q 389 675 413 675 z "},"ø":{"ha":801,"x_min":76,"x_max":725,"o":"m 199 47 q 108 175 140 94 q 76 374 76 256 q 159 663 76 568 q 403 758 242 758 q 512 744 463 758 q 600 700 561 729 l 663 800 l 676 800 l 610 692 q 695 567 665 646 q 725 374 725 488 q 642 82 725 178 q 399 -14 560 -14 q 208 40 286 -14 l 150 -56 l 135 -56 l 199 47 m 401 0 q 511 38 469 0 q 572 157 553 75 q 590 374 590 239 q 584 513 590 453 q 564 617 578 574 l 247 103 q 308 24 269 49 q 401 0 346 0 m 558 632 q 498 718 536 692 q 400 744 460 744 q 290 708 332 744 q 230 589 249 671 q 211 374 211 507 q 242 117 211 204 l 558 632 z "},"ù":{"ha":882,"x_min":32,"x_max":850,"o":"m 393 -14 q 210 51 271 -14 q 150 258 150 115 l 150 606 q 140 680 150 653 q 104 719 129 707 q 36 731 79 731 l 32 731 l 32 744 l 281 744 l 281 251 q 293 109 281 163 q 335 31 306 56 q 415 6 365 6 q 519 38 478 6 q 581 134 560 71 q 601 286 601 197 l 601 606 q 591 680 601 653 q 556 719 581 707 q 488 731 531 731 l 483 731 l 483 744 l 732 744 l 732 138 q 742 63 732 90 q 778 25 753 36 q 846 14 803 14 l 850 14 l 850 0 l 611 0 l 611 190 l 608 190 q 573 78 597 119 q 517 18 549 38 q 453 -8 486 -1 q 393 -14 421 -14 m 453 842 q 393 891 426 863 q 327 949 360 919 q 267 1006 294 979 q 225 1050 240 1032 l 225 1064 l 350 1064 q 385 996 365 1033 q 426 922 404 958 q 467 856 447 886 l 467 842 l 453 842 z "},"ú":{"ha":882,"x_min":32,"x_max":850,"o":"m 393 -14 q 210 51 271 -14 q 150 258 150 115 l 150 606 q 140 680 150 653 q 104 719 129 707 q 36 731 79 731 l 32 731 l 32 744 l 281 744 l 281 251 q 293 109 281 163 q 335 31 306 56 q 415 6 365 6 q 519 38 478 6 q 581 134 560 71 q 601 286 601 197 l 601 606 q 591 680 601 653 q 556 719 581 707 q 488 731 531 731 l 483 731 l 483 744 l 732 744 l 732 138 q 742 63 732 90 q 778 25 753 36 q 846 14 803 14 l 850 14 l 850 0 l 611 0 l 611 190 l 608 190 q 573 78 597 119 q 517 18 549 38 q 453 -8 486 -1 q 393 -14 421 -14 m 385 856 q 426 922 404 886 q 467 996 447 958 q 501 1064 488 1033 l 626 1064 l 626 1050 q 584 1006 611 1032 q 524 949 557 979 q 459 891 492 919 q 399 842 426 863 l 385 842 l 385 856 z "},"û":{"ha":882,"x_min":32,"x_max":850,"o":"m 393 -14 q 210 51 271 -14 q 150 258 150 115 l 150 606 q 140 680 150 653 q 104 719 129 707 q 36 731 79 731 l 32 731 l 32 744 l 281 744 l 281 251 q 293 109 281 163 q 335 31 306 56 q 415 6 365 6 q 519 38 478 6 q 581 134 560 71 q 601 286 601 197 l 601 606 q 591 680 601 653 q 556 719 581 707 q 488 731 531 731 l 483 731 l 483 744 l 732 744 l 732 138 q 742 63 732 90 q 778 25 753 36 q 846 14 803 14 l 850 14 l 850 0 l 611 0 l 611 190 l 608 190 q 573 78 597 119 q 517 18 549 38 q 453 -8 486 -1 q 393 -14 421 -14 m 232 856 q 288 922 260 886 q 341 996 315 958 q 385 1064 367 1033 l 489 1064 q 533 996 507 1033 q 587 922 558 958 q 642 856 615 886 l 642 842 l 628 842 q 565 881 601 857 q 493 932 528 906 q 438 981 458 958 q 381 932 417 958 q 309 881 346 906 q 246 842 272 857 l 232 842 l 232 856 z "},"ü":{"ha":882,"x_min":32,"x_max":850,"o":"m 393 -14 q 210 51 271 -14 q 150 258 150 115 l 150 606 q 140 680 150 653 q 104 719 129 707 q 36 731 79 731 l 32 731 l 32 744 l 281 744 l 281 251 q 293 109 281 163 q 335 31 306 56 q 415 6 365 6 q 519 38 478 6 q 581 134 560 71 q 601 286 601 197 l 601 606 q 591 680 601 653 q 556 719 581 707 q 488 731 531 731 l 483 731 l 483 744 l 732 744 l 732 138 q 742 63 732 90 q 778 25 753 36 q 846 14 803 14 l 850 14 l 850 0 l 611 0 l 611 190 l 608 190 q 573 78 597 119 q 517 18 549 38 q 453 -8 486 -1 q 393 -14 421 -14 m 571 878 q 527 895 544 878 q 510 956 510 913 q 527 1017 510 1000 q 571 1033 544 1033 q 614 1017 596 1033 q 632 956 632 1000 q 614 895 632 913 q 571 878 596 878 m 307 878 q 263 895 281 878 q 246 956 246 913 q 263 1017 246 1000 q 307 1033 281 1033 q 350 1017 332 1033 q 368 956 368 1000 q 350 895 368 913 q 307 878 332 878 z "},"ý":{"ha":785,"x_min":6,"x_max":785,"o":"m 53 -319 q 211 -305 151 -319 q 306 -259 271 -290 q 366 -178 342 -228 q 417 -61 390 -129 l 113 654 q 88 701 100 685 q 64 724 76 717 q 33 731 51 731 l 6 731 l 6 744 l 339 744 l 339 731 l 335 731 q 273 719 296 731 q 250 676 250 707 q 254 648 250 664 q 267 613 258 632 l 386 322 q 408 268 397 297 q 431 208 419 239 q 451 150 442 178 q 469 99 461 122 q 504 202 488 153 q 532 286 521 251 l 633 604 q 643 639 640 624 q 646 667 646 654 q 624 715 646 699 q 554 731 603 731 l 496 731 l 496 744 l 785 744 l 785 731 l 774 731 q 719 722 740 731 q 683 690 697 714 q 654 622 669 667 l 451 -6 q 389 -169 419 -106 q 318 -269 358 -233 q 217 -319 278 -306 q 65 -333 157 -333 l 53 -333 l 53 -319 m 360 856 q 401 922 379 886 q 442 996 422 958 q 476 1064 463 1033 l 601 1064 l 601 1050 q 559 1006 586 1032 q 499 949 532 979 q 434 891 467 919 q 374 842 401 863 l 360 842 l 360 856 z "},"þ":{"ha":853,"x_min":18,"x_max":776,"o":"m 18 -333 l 18 -319 l 36 -319 q 103 -308 78 -319 q 139 -274 128 -297 q 150 -212 150 -250 l 150 933 q 139 996 150 972 q 103 1031 128 1019 q 36 1042 78 1042 l 32 1042 l 32 1056 l 281 1056 l 281 800 q 281 737 281 776 q 280 649 281 697 q 278 551 279 601 l 281 551 q 353 708 300 657 q 500 758 407 758 q 706 661 636 758 q 776 374 776 564 q 705 85 776 183 q 497 -14 633 -14 q 354 38 407 -14 q 282 196 301 89 l 279 196 q 281 155 281 176 q 281 112 281 133 q 281 69 281 90 l 281 -206 q 292 -272 281 -246 q 328 -308 303 -297 q 394 -319 353 -319 l 413 -319 l 413 -333 l 18 -333 m 474 7 q 572 44 535 7 q 625 162 608 81 q 642 375 642 243 q 625 585 642 506 q 571 701 608 665 q 472 738 533 738 q 363 697 406 738 q 301 575 321 656 q 281 374 281 494 q 301 168 281 250 q 365 47 322 86 q 474 7 408 7 z "},"ÿ":{"ha":785,"x_min":6,"x_max":785,"o":"m 53 -319 q 211 -305 151 -319 q 306 -259 271 -290 q 366 -178 342 -228 q 417 -61 390 -129 l 113 654 q 88 701 100 685 q 64 724 76 717 q 33 731 51 731 l 6 731 l 6 744 l 339 744 l 339 731 l 335 731 q 273 719 296 731 q 250 676 250 707 q 254 648 250 664 q 267 613 258 632 l 386 322 q 408 268 397 297 q 431 208 419 239 q 451 150 442 178 q 469 99 461 122 q 504 202 488 153 q 532 286 521 251 l 633 604 q 643 639 640 624 q 646 667 646 654 q 624 715 646 699 q 554 731 603 731 l 496 731 l 496 744 l 785 744 l 785 731 l 774 731 q 719 722 740 731 q 683 690 697 714 q 654 622 669 667 l 451 -6 q 389 -169 419 -106 q 318 -269 358 -233 q 217 -319 278 -306 q 65 -333 157 -333 l 53 -333 l 53 -319 m 547 878 q 503 895 521 878 q 486 956 486 913 q 503 1017 486 1000 q 547 1033 521 1033 q 590 1017 572 1033 q 608 956 608 1000 q 590 895 608 913 q 547 878 572 878 m 283 878 q 240 895 257 878 q 222 956 222 913 q 240 1017 222 1000 q 283 1033 257 1033 q 326 1017 308 1033 q 344 956 344 1000 q 326 895 344 913 q 283 878 308 878 z "},"Ā":{"ha":979,"x_min":0,"x_max":979,"o":"m 0 0 l 0 14 l 40 14 q 92 24 71 14 q 128 57 113 33 q 157 122 143 81 l 460 992 l 531 992 l 879 88 q 901 44 890 60 q 927 21 913 28 q 961 14 942 14 l 979 14 l 979 0 l 597 0 l 597 14 l 629 14 q 706 26 682 14 q 729 71 729 39 q 728 88 729 79 q 724 108 726 97 q 717 132 722 119 l 632 360 l 256 360 l 179 142 q 172 119 175 131 q 168 99 169 108 q 167 82 167 90 q 200 29 167 44 q 307 14 233 14 l 339 14 l 339 0 l 0 0 m 260 374 l 626 374 l 525 644 q 492 735 507 692 q 463 817 476 778 q 439 894 450 857 q 421 838 429 864 q 404 788 413 813 q 385 734 396 763 q 363 668 375 706 l 260 374 m 285 1113 l 285 1140 l 688 1140 l 688 1113 l 285 1113 z "},"ā":{"ha":782,"x_min":69,"x_max":722,"o":"m 299 -14 q 131 41 193 -14 q 69 192 69 96 q 148 351 69 299 q 386 410 226 404 l 501 414 l 501 518 q 493 646 501 596 q 457 720 485 696 q 372 744 429 744 q 269 694 292 744 q 246 538 246 644 q 158 557 188 538 q 128 621 128 576 q 162 701 128 671 q 253 744 196 731 q 378 758 310 758 q 569 704 506 758 q 632 518 632 650 l 632 103 q 640 50 632 69 q 668 22 649 31 q 718 14 688 14 l 722 14 l 722 0 l 513 0 l 513 146 l 510 146 q 465 55 496 90 q 392 3 435 19 q 299 -14 350 -14 m 326 6 q 417 32 378 6 q 479 103 457 58 q 501 199 501 147 l 501 399 l 413 394 q 249 340 294 389 q 204 176 204 292 q 217 83 204 121 q 258 25 231 44 q 326 6 286 6 m 176 883 l 176 911 l 579 911 l 579 883 l 176 883 z "},"Ă":{"ha":979,"x_min":0,"x_max":979,"o":"m 0 0 l 0 14 l 40 14 q 92 24 71 14 q 128 57 113 33 q 157 122 143 81 l 460 992 l 531 992 l 879 88 q 901 44 890 60 q 927 21 913 28 q 961 14 942 14 l 979 14 l 979 0 l 597 0 l 597 14 l 629 14 q 706 26 682 14 q 729 71 729 39 q 728 88 729 79 q 724 108 726 97 q 717 132 722 119 l 632 360 l 256 360 l 179 142 q 172 119 175 131 q 168 99 169 108 q 167 82 167 90 q 200 29 167 44 q 307 14 233 14 l 339 14 l 339 0 l 0 0 m 260 374 l 626 374 l 525 644 q 492 735 507 692 q 463 817 476 778 q 439 894 450 857 q 421 838 429 864 q 404 788 413 813 q 385 734 396 763 q 363 668 375 706 l 260 374 m 486 1071 q 379 1097 421 1071 q 317 1166 338 1122 q 292 1261 296 1210 l 306 1261 q 337 1207 317 1228 q 394 1176 357 1186 q 486 1167 431 1167 q 579 1176 543 1167 q 636 1207 615 1186 q 667 1261 657 1228 l 681 1261 q 656 1166 676 1210 q 594 1097 635 1122 q 486 1071 553 1071 z "},"ă":{"ha":782,"x_min":69,"x_max":722,"o":"m 299 -14 q 131 41 193 -14 q 69 192 69 96 q 148 351 69 299 q 386 410 226 404 l 501 414 l 501 518 q 493 646 501 596 q 457 720 485 696 q 372 744 429 744 q 269 694 292 744 q 246 538 246 644 q 158 557 188 538 q 128 621 128 576 q 162 701 128 671 q 253 744 196 731 q 378 758 310 758 q 569 704 506 758 q 632 518 632 650 l 632 103 q 640 50 632 69 q 668 22 649 31 q 718 14 688 14 l 722 14 l 722 0 l 513 0 l 513 146 l 510 146 q 465 55 496 90 q 392 3 435 19 q 299 -14 350 -14 m 326 6 q 417 32 378 6 q 479 103 457 58 q 501 199 501 147 l 501 399 l 413 394 q 249 340 294 389 q 204 176 204 292 q 217 83 204 121 q 258 25 231 44 q 326 6 286 6 m 382 842 q 275 867 317 842 q 213 937 233 893 q 188 1032 192 981 l 201 1032 q 233 978 213 999 q 290 947 253 957 q 382 938 326 938 q 475 947 439 938 q 532 978 511 957 q 563 1032 553 999 l 576 1032 q 551 937 572 981 q 490 867 531 893 q 382 842 449 842 z "},"Ą":{"ha":979,"x_min":0,"x_max":979,"o":"m 0 0 l 0 14 l 40 14 q 92 24 71 14 q 128 57 113 33 q 157 122 143 81 l 460 992 l 531 992 l 879 88 q 901 44 890 60 q 927 21 913 28 q 961 14 942 14 l 979 14 l 979 0 l 597 0 l 597 14 l 629 14 q 706 26 682 14 q 729 71 729 39 q 728 88 729 79 q 724 108 726 97 q 717 132 722 119 l 632 360 l 256 360 l 179 142 q 172 119 175 131 q 168 99 169 108 q 167 82 167 90 q 200 29 167 44 q 307 14 233 14 l 339 14 l 339 0 l 0 0 m 260 374 l 626 374 l 525 644 q 492 735 507 692 q 463 817 476 778 q 439 894 450 857 q 421 838 429 864 q 404 788 413 813 q 385 734 396 763 q 363 668 375 706 l 260 374 m 819 -333 q 694 -300 744 -333 q 644 -200 644 -267 q 668 -118 644 -156 q 735 -51 692 -81 q 836 0 779 -21 l 865 0 q 780 -62 810 -18 q 750 -182 750 -107 q 775 -283 750 -249 q 853 -317 800 -317 q 895 -312 874 -317 q 942 -297 917 -307 l 942 -311 q 888 -327 919 -321 q 819 -333 856 -333 z "},"ą":{"ha":782,"x_min":69,"x_max":722,"o":"m 299 -14 q 131 41 193 -14 q 69 192 69 96 q 148 351 69 299 q 386 410 226 404 l 501 414 l 501 518 q 493 646 501 596 q 457 720 485 696 q 372 744 429 744 q 269 694 292 744 q 246 538 246 644 q 158 557 188 538 q 128 621 128 576 q 162 701 128 671 q 253 744 196 731 q 378 758 310 758 q 569 704 506 758 q 632 518 632 650 l 632 103 q 640 50 632 69 q 668 22 649 31 q 718 14 688 14 l 722 14 l 722 0 l 513 0 l 513 146 l 510 146 q 465 55 496 90 q 392 3 435 19 q 299 -14 350 -14 m 326 6 q 417 32 378 6 q 479 103 457 58 q 501 199 501 147 l 501 399 l 413 394 q 249 340 294 389 q 204 176 204 292 q 217 83 204 121 q 258 25 231 44 q 326 6 286 6 m 546 -333 q 421 -300 471 -333 q 371 -200 371 -267 q 394 -118 371 -156 q 462 -51 418 -81 q 563 0 506 -21 l 592 0 q 506 -62 536 -18 q 476 -182 476 -107 q 501 -283 476 -249 q 579 -317 526 -317 q 622 -312 600 -317 q 668 -297 643 -307 l 668 -311 q 614 -327 646 -321 q 546 -333 582 -333 z "},"Ć":{"ha":853,"x_min":79,"x_max":806,"o":"m 510 -14 q 271 50 367 -14 q 127 228 175 114 q 79 493 79 342 q 128 761 79 646 q 276 941 176 876 q 526 1006 375 1006 q 678 983 617 1006 q 773 925 740 961 q 806 846 806 889 q 771 776 806 799 q 685 753 736 753 q 667 891 685 839 q 610 967 649 943 q 508 990 571 990 q 350 935 411 990 q 261 770 289 879 q 233 500 233 661 q 263 222 233 333 q 358 56 293 111 q 526 0 422 0 q 678 48 621 0 q 765 203 736 96 q 792 183 783 196 q 800 150 800 169 q 782 95 800 124 q 728 42 764 67 q 638 1 692 17 q 510 -14 583 -14 m 464 1085 q 505 1151 483 1115 q 547 1225 526 1188 q 581 1293 567 1263 l 706 1293 l 706 1279 q 663 1235 690 1261 q 603 1178 636 1208 q 538 1120 571 1149 q 478 1071 506 1092 l 464 1071 l 464 1085 z "},"ć":{"ha":683,"x_min":76,"x_max":635,"o":"m 396 -14 q 229 24 301 -14 q 117 149 157 63 q 76 375 76 235 q 117 602 76 518 q 228 722 158 686 q 385 758 297 758 q 499 743 443 758 q 592 697 556 728 q 628 614 628 665 q 613 565 628 583 q 572 538 599 546 q 504 529 544 529 q 494 651 504 603 q 457 722 483 699 q 382 744 431 744 q 293 713 332 744 q 233 602 254 682 q 211 374 211 522 q 232 155 211 238 q 299 36 253 72 q 417 0 344 0 q 499 15 463 0 q 563 69 536 31 q 606 174 590 107 q 627 160 619 171 q 635 129 635 149 q 608 63 635 96 q 529 8 582 31 q 396 -14 476 -14 m 333 856 q 374 922 353 886 q 416 996 396 958 q 450 1064 436 1033 l 575 1064 l 575 1050 q 533 1006 560 1032 q 473 949 506 979 q 408 891 440 919 q 347 842 375 863 l 333 842 l 333 856 z "},"Ĉ":{"ha":853,"x_min":79,"x_max":806,"o":"m 510 -14 q 271 50 367 -14 q 127 228 175 114 q 79 493 79 342 q 128 761 79 646 q 276 941 176 876 q 526 1006 375 1006 q 678 983 617 1006 q 773 925 740 961 q 806 846 806 889 q 771 776 806 799 q 685 753 736 753 q 667 891 685 839 q 610 967 649 943 q 508 990 571 990 q 350 935 411 990 q 261 770 289 879 q 233 500 233 661 q 263 222 233 333 q 358 56 293 111 q 526 0 422 0 q 678 48 621 0 q 765 203 736 96 q 792 183 783 196 q 800 150 800 169 q 782 95 800 124 q 728 42 764 67 q 638 1 692 17 q 510 -14 583 -14 m 311 1085 q 367 1151 339 1115 q 420 1225 394 1188 q 464 1293 446 1263 l 568 1293 q 612 1225 586 1263 q 666 1151 638 1188 q 721 1085 694 1115 l 721 1071 l 707 1071 q 644 1110 681 1086 q 572 1161 607 1135 q 517 1210 538 1188 q 460 1161 496 1188 q 388 1110 425 1135 q 325 1071 351 1086 l 311 1071 l 311 1085 z "},"ĉ":{"ha":683,"x_min":76,"x_max":635,"o":"m 396 -14 q 229 24 301 -14 q 117 149 157 63 q 76 375 76 235 q 117 602 76 518 q 228 722 158 686 q 385 758 297 758 q 499 743 443 758 q 592 697 556 728 q 628 614 628 665 q 613 565 628 583 q 572 538 599 546 q 504 529 544 529 q 494 651 504 603 q 457 722 483 699 q 382 744 431 744 q 293 713 332 744 q 233 602 254 682 q 211 374 211 522 q 232 155 211 238 q 299 36 253 72 q 417 0 344 0 q 499 15 463 0 q 563 69 536 31 q 606 174 590 107 q 627 160 619 171 q 635 129 635 149 q 608 63 635 96 q 529 8 582 31 q 396 -14 476 -14 m 188 856 q 243 922 215 886 q 297 996 271 958 q 340 1064 322 1033 l 444 1064 q 488 996 463 1033 q 542 922 514 958 q 597 856 571 886 l 597 842 l 583 842 q 520 881 557 857 q 449 932 483 906 q 393 981 414 958 q 337 932 372 958 q 265 881 301 906 q 201 842 228 857 l 188 842 l 188 856 z "},"Ċ":{"ha":853,"x_min":79,"x_max":806,"o":"m 510 -14 q 271 50 367 -14 q 127 228 175 114 q 79 493 79 342 q 128 761 79 646 q 276 941 176 876 q 526 1006 375 1006 q 678 983 617 1006 q 773 925 740 961 q 806 846 806 889 q 771 776 806 799 q 685 753 736 753 q 667 891 685 839 q 610 967 649 943 q 508 990 571 990 q 350 935 411 990 q 261 770 289 879 q 233 500 233 661 q 263 222 233 333 q 358 56 293 111 q 526 0 422 0 q 678 48 621 0 q 765 203 736 96 q 792 183 783 196 q 800 150 800 169 q 782 95 800 124 q 728 42 764 67 q 638 1 692 17 q 510 -14 583 -14 m 521 1107 q 477 1124 494 1107 q 460 1185 460 1142 q 477 1246 460 1229 q 521 1263 494 1263 q 564 1246 546 1263 q 582 1185 582 1229 q 564 1124 582 1142 q 521 1107 546 1107 z "},"ċ":{"ha":683,"x_min":76,"x_max":635,"o":"m 396 -14 q 229 24 301 -14 q 117 149 157 63 q 76 375 76 235 q 117 602 76 518 q 228 722 158 686 q 385 758 297 758 q 499 743 443 758 q 592 697 556 728 q 628 614 628 665 q 613 565 628 583 q 572 538 599 546 q 504 529 544 529 q 494 651 504 603 q 457 722 483 699 q 382 744 431 744 q 293 713 332 744 q 233 602 254 682 q 211 374 211 522 q 232 155 211 238 q 299 36 253 72 q 417 0 344 0 q 499 15 463 0 q 563 69 536 31 q 606 174 590 107 q 627 160 619 171 q 635 129 635 149 q 608 63 635 96 q 529 8 582 31 q 396 -14 476 -14 m 393 878 q 349 895 367 878 q 332 956 332 913 q 349 1017 332 1000 q 393 1033 367 1033 q 436 1017 418 1033 q 454 956 454 1000 q 436 895 454 913 q 393 878 418 878 z "},"Č":{"ha":853,"x_min":79,"x_max":806,"o":"m 510 -14 q 271 50 367 -14 q 127 228 175 114 q 79 493 79 342 q 128 761 79 646 q 276 941 176 876 q 526 1006 375 1006 q 678 983 617 1006 q 773 925 740 961 q 806 846 806 889 q 771 776 806 799 q 685 753 736 753 q 667 891 685 839 q 610 967 649 943 q 508 990 571 990 q 350 935 411 990 q 261 770 289 879 q 233 500 233 661 q 263 222 233 333 q 358 56 293 111 q 526 0 422 0 q 678 48 621 0 q 765 203 736 96 q 792 183 783 196 q 800 150 800 169 q 782 95 800 124 q 728 42 764 67 q 638 1 692 17 q 510 -14 583 -14 m 449 1071 q 405 1140 431 1103 q 351 1213 379 1176 q 296 1279 324 1250 l 296 1293 l 310 1293 q 373 1253 336 1278 q 445 1203 410 1229 q 501 1154 481 1176 q 557 1203 522 1176 q 628 1253 592 1229 q 692 1293 665 1278 l 706 1293 l 706 1279 q 651 1213 679 1250 q 597 1140 622 1176 q 553 1071 571 1103 l 449 1071 z "},"č":{"ha":683,"x_min":76,"x_max":635,"o":"m 396 -14 q 229 24 301 -14 q 117 149 157 63 q 76 375 76 235 q 117 602 76 518 q 228 722 158 686 q 385 758 297 758 q 499 743 443 758 q 592 697 556 728 q 628 614 628 665 q 613 565 628 583 q 572 538 599 546 q 504 529 544 529 q 494 651 504 603 q 457 722 483 699 q 382 744 431 744 q 293 713 332 744 q 233 602 254 682 q 211 374 211 522 q 232 155 211 238 q 299 36 253 72 q 417 0 344 0 q 499 15 463 0 q 563 69 536 31 q 606 174 590 107 q 627 160 619 171 q 635 129 635 149 q 608 63 635 96 q 529 8 582 31 q 396 -14 476 -14 m 338 842 q 294 910 319 874 q 240 984 268 947 q 185 1050 213 1021 l 185 1064 l 199 1064 q 262 1024 225 1049 q 334 974 299 1000 q 390 925 369 947 q 446 974 411 947 q 517 1024 481 1000 q 581 1064 554 1049 l 594 1064 l 594 1050 q 540 984 568 1021 q 485 910 511 947 q 442 842 460 874 l 338 842 z "},"Ď":{"ha":1010,"x_min":53,"x_max":931,"o":"m 53 0 l 53 14 l 71 14 q 134 25 108 14 q 172 58 160 36 q 185 114 185 81 l 185 883 q 172 936 185 915 q 134 967 160 957 q 71 978 108 978 l 53 978 l 53 992 l 478 992 q 722 934 621 992 q 877 766 824 876 q 931 497 931 656 q 880 234 931 346 q 729 61 829 122 q 478 0 629 0 l 53 0 m 446 14 q 635 64 563 14 q 742 221 708 114 q 776 497 776 328 q 742 772 776 665 q 635 928 708 878 q 447 978 563 978 l 325 978 l 325 14 l 446 14 m 408 1071 q 365 1140 390 1103 q 311 1213 339 1176 q 256 1279 283 1250 l 256 1293 l 269 1293 q 333 1253 296 1278 q 405 1203 369 1229 q 461 1154 440 1176 q 517 1203 482 1176 q 588 1253 551 1229 q 651 1293 625 1278 l 665 1293 l 665 1279 q 610 1213 639 1250 q 556 1140 582 1176 q 513 1071 531 1103 l 408 1071 z "},"ď":{"ha":853,"x_min":76,"x_max":935,"o":"m 782 853 q 803 922 794 889 q 818 987 811 954 q 831 1056 825 1019 l 935 1056 l 935 1042 q 899 977 921 1013 q 850 905 876 942 q 796 833 824 868 l 782 833 l 782 853 m 356 -14 q 203 30 265 -14 q 108 160 140 74 q 76 374 76 247 q 108 587 76 501 q 201 715 139 672 q 353 758 263 758 q 501 708 447 758 q 572 551 554 657 l 575 551 q 573 649 574 601 q 572 737 572 697 q 572 800 572 776 l 572 933 q 561 996 572 972 q 525 1031 550 1019 q 458 1042 500 1042 l 454 1042 l 454 1056 l 703 1056 l 703 121 q 714 60 703 83 q 751 25 725 36 q 817 14 776 14 l 828 14 l 828 0 l 574 0 l 574 196 l 571 196 q 499 38 553 89 q 356 -14 446 -14 m 379 7 q 525 97 478 7 q 572 374 572 188 q 552 575 572 494 q 490 697 532 656 q 381 738 449 738 q 282 701 319 738 q 228 585 244 665 q 211 375 211 506 q 228 162 211 243 q 282 44 244 81 q 379 7 319 7 z "},"Đ":{"ha":1010,"x_min":53,"x_max":931,"o":"m 53 0 l 53 14 l 71 14 q 134 25 108 14 q 172 58 160 36 q 185 114 185 81 l 185 513 l 53 513 l 53 526 l 185 526 l 185 883 q 172 936 185 915 q 134 967 160 957 q 71 978 108 978 l 53 978 l 53 992 l 478 992 q 722 934 621 992 q 877 766 824 876 q 931 497 931 656 q 880 234 931 346 q 729 61 829 122 q 478 0 629 0 l 53 0 m 446 14 q 635 64 563 14 q 742 221 708 114 q 776 497 776 328 q 742 772 776 665 q 635 928 708 878 q 447 978 563 978 l 325 978 l 325 526 l 561 526 l 561 513 l 325 513 l 325 14 l 446 14 z "},"đ":{"ha":853,"x_min":76,"x_max":829,"o":"m 356 -14 q 203 29 265 -14 q 108 156 140 72 q 76 360 76 240 q 108 563 76 481 q 201 688 139 646 q 353 731 263 731 q 501 680 447 731 q 572 524 554 629 l 575 524 q 573 624 574 574 q 572 715 572 675 q 572 772 572 756 l 572 850 l 335 850 l 335 864 l 572 864 l 572 933 q 561 996 572 972 q 525 1031 550 1019 q 458 1042 500 1042 l 454 1042 l 454 1056 l 703 1056 l 703 864 l 829 864 l 829 850 l 703 850 l 703 121 q 714 60 703 83 q 751 25 725 36 q 817 14 776 14 l 828 14 l 828 0 l 574 0 l 574 196 l 571 196 q 499 38 553 89 q 356 -14 446 -14 m 379 7 q 525 95 478 7 q 572 360 572 183 q 552 551 572 474 q 490 669 532 629 q 381 710 449 710 q 282 674 319 710 q 228 562 244 639 q 211 361 211 485 q 228 158 211 236 q 282 43 244 79 q 379 7 319 7 z "},"Ē":{"ha":865,"x_min":53,"x_max":807,"o":"m 53 0 l 53 14 l 71 14 q 134 25 108 14 q 172 58 160 36 q 185 114 185 81 l 185 883 q 172 936 185 915 q 134 967 160 957 q 71 978 108 978 l 53 978 l 53 992 l 751 992 l 760 749 l 746 749 l 743 794 q 719 904 739 864 q 659 961 700 944 q 547 978 618 978 l 325 978 l 325 526 l 674 526 l 674 513 l 325 513 l 325 14 l 582 14 q 701 31 657 14 q 766 88 746 47 q 790 197 786 128 l 793 243 l 807 243 l 797 0 l 53 0 m 240 1113 l 240 1140 l 643 1140 l 643 1113 l 240 1113 z "},"ē":{"ha":743,"x_min":76,"x_max":674,"o":"m 406 -14 q 163 86 250 -14 q 76 367 76 186 q 157 660 76 561 q 385 758 238 758 q 597 675 519 758 q 674 426 674 592 l 674 393 l 211 393 q 232 165 213 251 q 295 40 251 79 q 410 0 339 0 q 503 19 463 0 q 572 77 544 39 q 610 171 600 115 q 635 154 626 168 q 643 125 643 140 q 617 65 643 97 q 538 9 590 32 q 406 -14 486 -14 m 533 407 q 518 603 533 529 q 469 710 503 676 q 382 744 436 744 q 289 710 325 744 q 235 603 253 676 q 211 407 217 529 l 533 407 m 178 883 l 178 911 l 581 911 l 581 883 l 178 883 z "},"Ĕ":{"ha":865,"x_min":53,"x_max":807,"o":"m 53 0 l 53 14 l 71 14 q 134 25 108 14 q 172 58 160 36 q 185 114 185 81 l 185 883 q 172 936 185 915 q 134 967 160 957 q 71 978 108 978 l 53 978 l 53 992 l 751 992 l 760 749 l 746 749 l 743 794 q 719 904 739 864 q 659 961 700 944 q 547 978 618 978 l 325 978 l 325 526 l 674 526 l 674 513 l 325 513 l 325 14 l 582 14 q 701 31 657 14 q 766 88 746 47 q 790 197 786 128 l 793 243 l 807 243 l 797 0 l 53 0 m 433 1071 q 326 1097 368 1071 q 264 1166 285 1122 q 239 1261 243 1210 l 253 1261 q 284 1207 264 1228 q 341 1176 304 1186 q 433 1167 378 1167 q 526 1176 490 1167 q 583 1207 563 1186 q 614 1261 604 1228 l 628 1261 q 603 1166 624 1210 q 541 1097 582 1122 q 433 1071 500 1071 z "},"ĕ":{"ha":743,"x_min":76,"x_max":674,"o":"m 406 -14 q 163 86 250 -14 q 76 367 76 186 q 157 660 76 561 q 385 758 238 758 q 597 675 519 758 q 674 426 674 592 l 674 393 l 211 393 q 232 165 213 251 q 295 40 251 79 q 410 0 339 0 q 503 19 463 0 q 572 77 544 39 q 610 171 600 115 q 635 154 626 168 q 643 125 643 140 q 617 65 643 97 q 538 9 590 32 q 406 -14 486 -14 m 533 407 q 518 603 533 529 q 469 710 503 676 q 382 744 436 744 q 289 710 325 744 q 235 603 253 676 q 211 407 217 529 l 533 407 m 385 842 q 278 867 319 842 q 215 937 236 893 q 190 1032 194 981 l 204 1032 q 235 978 215 999 q 292 947 256 957 q 385 938 329 938 q 478 947 442 938 q 535 978 514 957 q 565 1032 556 999 l 579 1032 q 554 937 575 981 q 492 867 533 893 q 385 842 451 842 z "},"Ė":{"ha":865,"x_min":53,"x_max":807,"o":"m 53 0 l 53 14 l 71 14 q 134 25 108 14 q 172 58 160 36 q 185 114 185 81 l 185 883 q 172 936 185 915 q 134 967 160 957 q 71 978 108 978 l 53 978 l 53 992 l 751 992 l 760 749 l 746 749 l 743 794 q 719 904 739 864 q 659 961 700 944 q 547 978 618 978 l 325 978 l 325 526 l 674 526 l 674 513 l 325 513 l 325 14 l 582 14 q 701 31 657 14 q 766 88 746 47 q 790 197 786 128 l 793 243 l 807 243 l 797 0 l 53 0 m 447 1088 q 403 1105 421 1088 q 386 1165 386 1122 q 403 1226 386 1210 q 447 1243 421 1243 q 490 1226 472 1243 q 508 1165 508 1210 q 490 1105 508 1122 q 447 1088 472 1088 z "},"ė":{"ha":743,"x_min":76,"x_max":674,"o":"m 406 -14 q 163 86 250 -14 q 76 367 76 186 q 157 660 76 561 q 385 758 238 758 q 597 675 519 758 q 674 426 674 592 l 674 393 l 211 393 q 232 165 213 251 q 295 40 251 79 q 410 0 339 0 q 503 19 463 0 q 572 77 544 39 q 610 171 600 115 q 635 154 626 168 q 643 125 643 140 q 617 65 643 97 q 538 9 590 32 q 406 -14 486 -14 m 533 407 q 518 603 533 529 q 469 710 503 676 q 382 744 436 744 q 289 710 325 744 q 235 603 253 676 q 211 407 217 529 l 533 407 m 382 878 q 338 895 356 878 q 321 956 321 913 q 338 1017 321 1000 q 382 1033 356 1033 q 425 1017 407 1033 q 443 956 443 1000 q 425 895 443 913 q 382 878 407 878 z "},"Ę":{"ha":865,"x_min":53,"x_max":807,"o":"m 53 0 l 53 14 l 71 14 q 134 25 108 14 q 172 58 160 36 q 185 114 185 81 l 185 883 q 172 936 185 915 q 134 967 160 957 q 71 978 108 978 l 53 978 l 53 992 l 751 992 l 760 749 l 746 749 l 743 794 q 719 904 739 864 q 659 961 700 944 q 547 978 618 978 l 325 978 l 325 526 l 674 526 l 674 513 l 325 513 l 325 14 l 582 14 q 701 31 657 14 q 766 88 746 47 q 790 197 786 128 l 793 243 l 807 243 l 797 0 l 53 0 m 656 -333 q 531 -300 581 -333 q 481 -200 481 -267 q 504 -118 481 -156 q 572 -51 528 -81 q 672 0 615 -21 l 701 0 q 616 -62 646 -18 q 586 -182 586 -107 q 611 -283 586 -249 q 689 -317 636 -317 q 731 -312 710 -317 q 778 -297 753 -307 l 778 -311 q 724 -327 756 -321 q 656 -333 692 -333 z "},"ę":{"ha":743,"x_min":76,"x_max":674,"o":"m 492 -324 q 367 -290 417 -324 q 317 -190 317 -257 q 335 -119 317 -151 q 389 -58 353 -86 q 478 -7 425 -29 q 436 -12 451 -11 q 406 -14 421 -14 q 163 86 250 -14 q 76 367 76 186 q 157 660 76 561 q 385 758 238 758 q 597 675 519 758 q 674 426 674 592 l 674 393 l 211 393 q 232 165 213 251 q 295 40 251 79 q 410 0 339 0 q 503 19 463 0 q 572 77 544 39 q 610 171 600 115 q 635 154 626 168 q 643 125 643 140 q 613 58 643 94 q 518 3 582 22 q 447 -60 471 -18 q 422 -172 422 -103 q 447 -273 422 -239 q 525 -307 472 -307 q 567 -302 546 -307 q 614 -287 589 -297 l 614 -301 q 560 -317 592 -311 q 492 -324 528 -324 m 533 407 q 518 603 533 529 q 469 710 503 676 q 382 744 436 744 q 289 710 325 744 q 235 603 253 676 q 211 407 217 529 l 533 407 z "},"Ě":{"ha":865,"x_min":53,"x_max":807,"o":"m 53 0 l 53 14 l 71 14 q 134 25 108 14 q 172 58 160 36 q 185 114 185 81 l 185 883 q 172 936 185 915 q 134 967 160 957 q 71 978 108 978 l 53 978 l 53 992 l 751 992 l 760 749 l 746 749 l 743 794 q 719 904 739 864 q 659 961 700 944 q 547 978 618 978 l 325 978 l 325 526 l 674 526 l 674 513 l 325 513 l 325 14 l 582 14 q 701 31 657 14 q 766 88 746 47 q 790 197 786 128 l 793 243 l 807 243 l 797 0 l 53 0 m 378 1071 q 334 1140 360 1103 q 281 1213 308 1176 q 225 1279 253 1250 l 225 1293 l 239 1293 q 302 1253 265 1278 q 374 1203 339 1229 q 431 1154 410 1176 q 486 1203 451 1176 q 558 1253 521 1229 q 621 1293 594 1278 l 635 1293 l 635 1279 q 580 1213 608 1250 q 526 1140 551 1176 q 482 1071 500 1103 l 378 1071 z "},"ě":{"ha":743,"x_min":76,"x_max":674,"o":"m 406 -14 q 163 86 250 -14 q 76 367 76 186 q 157 660 76 561 q 385 758 238 758 q 597 675 519 758 q 674 426 674 592 l 674 393 l 211 393 q 232 165 213 251 q 295 40 251 79 q 410 0 339 0 q 503 19 463 0 q 572 77 544 39 q 610 171 600 115 q 635 154 626 168 q 643 125 643 140 q 617 65 643 97 q 538 9 590 32 q 406 -14 486 -14 m 533 407 q 518 603 533 529 q 469 710 503 676 q 382 744 436 744 q 289 710 325 744 q 235 603 253 676 q 211 407 217 529 l 533 407 m 329 842 q 285 910 311 874 q 232 984 260 947 q 176 1050 204 1021 l 176 1064 l 190 1064 q 253 1024 217 1049 q 326 974 290 1000 q 382 925 361 947 q 438 974 403 947 q 509 1024 472 1000 q 572 1064 546 1049 l 586 1064 l 586 1050 q 531 984 560 1021 q 477 910 503 947 q 433 842 451 874 l 329 842 z "},"Ĝ":{"ha":992,"x_min":79,"x_max":965,"o":"m 557 -14 q 290 50 396 -14 q 131 228 183 114 q 79 497 79 343 q 131 762 79 647 q 287 941 182 876 q 551 1006 392 1006 q 726 986 654 1006 q 835 933 797 967 q 872 854 872 899 q 842 783 872 807 q 743 753 813 758 q 723 892 743 839 q 660 968 703 944 q 546 992 617 992 q 365 942 433 992 q 265 784 296 893 q 233 497 233 675 q 268 209 233 318 q 379 50 303 100 q 579 0 456 0 q 657 6 619 0 q 724 21 694 13 l 724 350 q 711 403 724 382 q 673 434 699 424 q 610 444 647 444 l 604 444 l 604 458 l 965 458 l 965 444 l 960 444 q 903 433 924 444 q 873 400 882 422 q 864 344 864 378 l 864 50 q 721 2 794 18 q 557 -14 647 -14 m 342 1085 q 397 1151 369 1115 q 451 1225 425 1188 q 494 1293 476 1263 l 599 1293 q 642 1225 617 1263 q 697 1151 668 1188 q 751 1085 725 1115 l 751 1071 l 738 1071 q 674 1110 711 1086 q 603 1161 638 1135 q 547 1210 568 1188 q 491 1161 526 1188 q 419 1110 456 1135 q 356 1071 382 1086 l 342 1071 l 342 1085 z "},"ĝ":{"ha":747,"x_min":32,"x_max":731,"o":"m 321 -333 q 104 -281 176 -333 q 32 -143 32 -229 q 54 -59 32 -94 q 122 -3 76 -24 q 238 18 168 18 q 156 72 183 35 q 129 151 129 110 q 156 228 129 192 q 240 285 183 265 q 134 363 174 308 q 94 501 94 418 q 160 690 94 621 q 356 758 225 758 q 443 747 404 758 q 513 713 482 735 q 568 761 533 735 q 650 788 603 788 q 710 766 690 788 q 731 714 731 744 q 713 668 731 686 q 657 650 696 650 q 642 715 657 694 q 596 736 628 736 q 563 730 578 736 q 524 704 547 724 q 585 619 564 671 q 606 506 606 568 q 544 335 606 403 q 356 267 482 267 q 305 270 329 267 q 258 279 281 274 q 213 246 225 265 q 200 203 200 226 q 226 150 200 167 q 303 133 251 133 l 460 133 q 636 75 583 133 q 689 -74 689 17 q 599 -263 689 -193 q 321 -333 510 -333 m 332 -319 q 526 -272 464 -319 q 589 -131 589 -224 q 551 -24 589 -58 q 433 10 513 10 l 283 10 q 212 -4 246 10 q 156 -53 178 -18 q 135 -149 135 -87 q 158 -244 135 -206 q 226 -301 182 -282 q 332 -319 269 -319 m 351 281 q 424 304 397 281 q 463 378 451 328 q 475 506 475 428 q 463 640 475 588 q 423 719 450 693 q 350 744 396 744 q 278 717 306 744 q 238 638 250 690 q 225 504 225 585 q 238 378 225 428 q 279 304 251 328 q 351 281 307 281 m 156 856 q 211 922 183 886 q 265 996 239 958 q 308 1064 290 1033 l 413 1064 q 456 996 431 1033 q 510 922 482 958 q 565 856 539 886 l 565 842 l 551 842 q 488 881 525 857 q 417 932 451 906 q 361 981 382 958 q 305 932 340 958 q 233 881 269 906 q 169 842 196 857 l 156 842 l 156 856 z "},"Ğ":{"ha":992,"x_min":79,"x_max":965,"o":"m 557 -14 q 290 50 396 -14 q 131 228 183 114 q 79 497 79 343 q 131 762 79 647 q 287 941 182 876 q 551 1006 392 1006 q 726 986 654 1006 q 835 933 797 967 q 872 854 872 899 q 842 783 872 807 q 743 753 813 758 q 723 892 743 839 q 660 968 703 944 q 546 992 617 992 q 365 942 433 992 q 265 784 296 893 q 233 497 233 675 q 268 209 233 318 q 379 50 303 100 q 579 0 456 0 q 657 6 619 0 q 724 21 694 13 l 724 350 q 711 403 724 382 q 673 434 699 424 q 610 444 647 444 l 604 444 l 604 458 l 965 458 l 965 444 l 960 444 q 903 433 924 444 q 873 400 882 422 q 864 344 864 378 l 864 50 q 721 2 794 18 q 557 -14 647 -14 m 547 1071 q 440 1097 482 1071 q 378 1166 399 1122 q 353 1261 357 1210 l 367 1261 q 398 1207 378 1228 q 455 1176 418 1186 q 547 1167 492 1167 q 640 1176 604 1167 q 697 1207 676 1186 q 728 1261 718 1228 l 742 1261 q 717 1166 738 1210 q 655 1097 696 1122 q 547 1071 614 1071 z "},"ğ":{"ha":747,"x_min":32,"x_max":731,"o":"m 321 -333 q 104 -281 176 -333 q 32 -143 32 -229 q 54 -59 32 -94 q 122 -3 76 -24 q 238 18 168 18 q 156 72 183 35 q 129 151 129 110 q 156 228 129 192 q 240 285 183 265 q 134 363 174 308 q 94 501 94 418 q 160 690 94 621 q 356 758 225 758 q 443 747 404 758 q 513 713 482 735 q 568 761 533 735 q 650 788 603 788 q 710 766 690 788 q 731 714 731 744 q 713 668 731 686 q 657 650 696 650 q 642 715 657 694 q 596 736 628 736 q 563 730 578 736 q 524 704 547 724 q 585 619 564 671 q 606 506 606 568 q 544 335 606 403 q 356 267 482 267 q 305 270 329 267 q 258 279 281 274 q 213 246 225 265 q 200 203 200 226 q 226 150 200 167 q 303 133 251 133 l 460 133 q 636 75 583 133 q 689 -74 689 17 q 599 -263 689 -193 q 321 -333 510 -333 m 332 -319 q 526 -272 464 -319 q 589 -131 589 -224 q 551 -24 589 -58 q 433 10 513 10 l 283 10 q 212 -4 246 10 q 156 -53 178 -18 q 135 -149 135 -87 q 158 -244 135 -206 q 226 -301 182 -282 q 332 -319 269 -319 m 351 281 q 424 304 397 281 q 463 378 451 328 q 475 506 475 428 q 463 640 475 588 q 423 719 450 693 q 350 744 396 744 q 278 717 306 744 q 238 638 250 690 q 225 504 225 585 q 238 378 225 428 q 279 304 251 328 q 351 281 307 281 m 356 842 q 249 867 290 842 q 186 937 207 893 q 161 1032 165 981 l 175 1032 q 206 978 186 999 q 263 947 226 957 q 356 938 300 938 q 449 947 413 938 q 506 978 485 957 q 536 1032 526 999 l 550 1032 q 525 937 546 981 q 463 867 504 893 q 356 842 422 842 z "},"Ġ":{"ha":992,"x_min":79,"x_max":965,"o":"m 557 -14 q 290 50 396 -14 q 131 228 183 114 q 79 497 79 343 q 131 762 79 647 q 287 941 182 876 q 551 1006 392 1006 q 726 986 654 1006 q 835 933 797 967 q 872 854 872 899 q 842 783 872 807 q 743 753 813 758 q 723 892 743 839 q 660 968 703 944 q 546 992 617 992 q 365 942 433 992 q 265 784 296 893 q 233 497 233 675 q 268 209 233 318 q 379 50 303 100 q 579 0 456 0 q 657 6 619 0 q 724 21 694 13 l 724 350 q 711 403 724 382 q 673 434 699 424 q 610 444 647 444 l 604 444 l 604 458 l 965 458 l 965 444 l 960 444 q 903 433 924 444 q 873 400 882 422 q 864 344 864 378 l 864 50 q 721 2 794 18 q 557 -14 647 -14 m 560 1107 q 516 1124 533 1107 q 499 1185 499 1142 q 516 1246 499 1229 q 560 1263 533 1263 q 603 1246 585 1263 q 621 1185 621 1229 q 603 1124 621 1142 q 560 1107 585 1107 z "},"ġ":{"ha":747,"x_min":32,"x_max":731,"o":"m 321 -333 q 104 -281 176 -333 q 32 -143 32 -229 q 54 -59 32 -94 q 122 -3 76 -24 q 238 18 168 18 q 156 72 183 35 q 129 151 129 110 q 156 228 129 192 q 240 285 183 265 q 134 363 174 308 q 94 501 94 418 q 160 690 94 621 q 356 758 225 758 q 443 747 404 758 q 513 713 482 735 q 568 761 533 735 q 650 788 603 788 q 710 766 690 788 q 731 714 731 744 q 713 668 731 686 q 657 650 696 650 q 642 715 657 694 q 596 736 628 736 q 563 730 578 736 q 524 704 547 724 q 585 619 564 671 q 606 506 606 568 q 544 335 606 403 q 356 267 482 267 q 305 270 329 267 q 258 279 281 274 q 213 246 225 265 q 200 203 200 226 q 226 150 200 167 q 303 133 251 133 l 460 133 q 636 75 583 133 q 689 -74 689 17 q 599 -263 689 -193 q 321 -333 510 -333 m 332 -319 q 526 -272 464 -319 q 589 -131 589 -224 q 551 -24 589 -58 q 433 10 513 10 l 283 10 q 212 -4 246 10 q 156 -53 178 -18 q 135 -149 135 -87 q 158 -244 135 -206 q 226 -301 182 -282 q 332 -319 269 -319 m 351 281 q 424 304 397 281 q 463 378 451 328 q 475 506 475 428 q 463 640 475 588 q 423 719 450 693 q 350 744 396 744 q 278 717 306 744 q 238 638 250 690 q 225 504 225 585 q 238 378 225 428 q 279 304 251 328 q 351 281 307 281 m 356 878 q 312 895 329 878 q 294 956 294 913 q 312 1017 294 1000 q 356 1033 329 1033 q 399 1017 381 1033 q 417 956 417 1000 q 399 895 417 913 q 356 878 381 878 z "},"Ģ":{"ha":992,"x_min":79,"x_max":965,"o":"m 557 -14 q 290 50 396 -14 q 131 228 183 114 q 79 497 79 343 q 131 762 79 647 q 287 941 182 876 q 551 1006 392 1006 q 726 986 654 1006 q 835 933 797 967 q 872 854 872 899 q 842 783 872 807 q 743 753 813 758 q 723 892 743 839 q 660 968 703 944 q 546 992 617 992 q 365 942 433 992 q 265 784 296 893 q 233 497 233 675 q 268 209 233 318 q 379 50 303 100 q 579 0 456 0 q 657 6 619 0 q 724 21 694 13 l 724 350 q 711 403 724 382 q 673 434 699 424 q 610 444 647 444 l 604 444 l 604 458 l 965 458 l 965 444 l 960 444 q 903 433 924 444 q 873 400 882 422 q 864 344 864 378 l 864 50 q 721 2 794 18 q 557 -14 647 -14 m 457 -296 q 478 -222 469 -256 q 493 -154 486 -187 q 506 -85 500 -121 l 610 -85 l 610 -99 q 574 -163 596 -128 q 525 -235 551 -199 q 471 -307 499 -272 l 457 -307 l 457 -296 z "},"ģ":{"ha":747,"x_min":32,"x_max":731,"o":"m 297 856 q 334 920 313 885 q 382 993 356 956 q 436 1064 408 1031 l 450 1064 l 450 1044 q 430 976 439 1010 q 414 910 421 943 q 401 842 407 878 l 297 842 l 297 856 m 321 -333 q 104 -281 176 -333 q 32 -143 32 -229 q 54 -59 32 -94 q 122 -3 76 -24 q 238 18 168 18 q 156 72 183 35 q 129 151 129 110 q 156 228 129 192 q 240 285 183 265 q 134 363 174 308 q 94 501 94 418 q 160 690 94 621 q 356 758 225 758 q 443 747 404 758 q 513 713 482 735 q 568 761 533 735 q 650 788 603 788 q 710 766 690 788 q 731 714 731 744 q 713 668 731 686 q 657 650 696 650 q 642 715 657 694 q 596 736 628 736 q 563 730 578 736 q 524 704 547 724 q 585 619 564 671 q 606 506 606 568 q 544 335 606 403 q 356 267 482 267 q 305 270 329 267 q 258 279 281 274 q 213 246 225 265 q 200 203 200 226 q 226 150 200 167 q 303 133 251 133 l 460 133 q 636 75 583 133 q 689 -74 689 17 q 599 -263 689 -193 q 321 -333 510 -333 m 332 -319 q 526 -272 464 -319 q 589 -131 589 -224 q 551 -24 589 -58 q 433 10 513 10 l 283 10 q 212 -4 246 10 q 156 -53 178 -18 q 135 -149 135 -87 q 158 -244 135 -206 q 226 -301 182 -282 q 332 -319 269 -319 m 351 281 q 424 304 397 281 q 463 378 451 328 q 475 506 475 428 q 463 640 475 588 q 423 719 450 693 q 350 744 396 744 q 278 717 306 744 q 238 638 250 690 q 225 504 225 585 q 238 378 225 428 q 279 304 251 328 q 351 281 307 281 z "},"Ĥ":{"ha":1101,"x_min":54,"x_max":1049,"o":"m 54 0 l 54 14 l 72 14 q 135 25 110 14 q 174 58 161 36 q 186 114 186 81 l 186 883 q 174 936 186 915 q 135 967 161 957 q 72 978 110 978 l 54 978 l 54 992 l 458 992 l 458 978 l 440 978 q 377 967 403 978 q 339 933 351 956 q 326 878 326 911 l 326 525 l 776 525 l 776 878 q 764 933 776 911 q 726 967 751 956 q 663 978 701 978 l 644 978 l 644 992 l 1049 992 l 1049 978 l 1031 978 q 968 967 993 978 q 930 936 943 957 q 917 883 917 915 l 917 114 q 930 58 917 81 q 968 25 943 36 q 1031 14 993 14 l 1049 14 l 1049 0 l 644 0 l 644 14 l 663 14 q 726 25 701 14 q 764 58 751 36 q 776 114 776 81 l 776 511 l 326 511 l 326 114 q 339 58 326 81 q 377 25 351 36 q 440 14 403 14 l 458 14 l 458 0 l 54 0 m 346 1085 q 401 1151 374 1115 q 455 1225 429 1188 q 499 1293 481 1263 l 603 1293 q 647 1225 621 1263 q 701 1151 672 1188 q 756 1085 729 1115 l 756 1071 l 742 1071 q 678 1110 715 1086 q 607 1161 642 1135 q 551 1210 572 1188 q 495 1161 531 1188 q 423 1110 460 1135 q 360 1071 386 1086 l 346 1071 l 346 1085 z "},"ĥ":{"ha":882,"x_min":25,"x_max":843,"o":"m 25 0 l 25 14 l 36 14 q 104 26 79 14 q 140 65 129 38 q 150 142 150 93 l 150 917 q 140 991 150 964 q 106 1030 129 1018 q 39 1042 82 1042 l 32 1042 l 32 1056 l 281 1056 l 281 775 q 281 722 281 749 q 281 668 281 694 q 279 614 281 642 l 282 614 q 336 710 301 679 q 412 749 371 740 q 488 758 453 758 q 672 694 611 758 q 732 486 732 629 l 732 142 q 742 65 732 93 q 774 26 751 38 q 836 14 797 14 l 843 14 l 843 0 l 601 0 l 601 533 q 568 681 601 624 q 453 738 535 738 q 350 703 388 738 q 297 613 313 668 q 281 499 281 558 l 281 142 q 291 65 281 93 q 326 26 301 38 q 392 14 350 14 l 399 14 l 399 0 l 25 0 m 225 1122 q 281 1189 253 1153 q 334 1263 308 1225 q 378 1331 360 1300 l 482 1331 q 526 1263 500 1300 q 580 1189 551 1225 q 635 1122 608 1153 l 635 1108 l 621 1108 q 558 1148 594 1124 q 486 1199 521 1172 q 431 1247 451 1225 q 374 1199 410 1225 q 302 1148 339 1172 q 239 1108 265 1124 l 225 1108 l 225 1122 z "},"Ħ":{"ha":1101,"x_min":53,"x_max":1049,"o":"m 54 0 l 54 14 l 72 14 q 135 25 110 14 q 174 58 161 36 q 186 114 186 81 l 186 721 l 53 721 l 53 735 l 186 735 l 186 883 q 174 936 186 915 q 135 967 161 957 q 72 978 110 978 l 54 978 l 54 992 l 458 992 l 458 978 l 440 978 q 377 967 403 978 q 339 933 351 956 q 326 878 326 911 l 326 735 l 776 735 l 776 878 q 764 933 776 911 q 726 967 751 956 q 663 978 701 978 l 644 978 l 644 992 l 1049 992 l 1049 978 l 1031 978 q 968 967 993 978 q 930 936 943 957 q 917 883 917 915 l 917 735 l 1049 735 l 1049 721 l 917 721 l 917 114 q 930 58 917 81 q 968 25 943 36 q 1031 14 993 14 l 1049 14 l 1049 0 l 644 0 l 644 14 l 663 14 q 726 25 701 14 q 764 58 751 36 q 776 114 776 81 l 776 511 l 326 511 l 326 114 q 339 58 326 81 q 377 25 351 36 q 440 14 403 14 l 458 14 l 458 0 l 54 0 m 326 525 l 776 525 l 776 721 l 326 721 l 326 525 z "},"ħ":{"ha":882,"x_min":24,"x_max":843,"o":"m 25 0 l 25 14 l 36 14 q 104 26 79 14 q 140 65 129 38 q 150 142 150 93 l 150 850 l 24 850 l 24 864 l 150 864 l 150 917 q 140 991 150 964 q 106 1030 129 1018 q 39 1042 82 1042 l 32 1042 l 32 1056 l 281 1056 l 281 864 l 518 864 l 518 850 l 281 850 l 281 747 q 281 667 281 707 q 279 586 281 626 l 282 586 q 336 682 301 651 q 412 722 371 713 q 488 731 453 731 q 672 666 611 731 q 732 458 732 601 l 732 142 q 742 65 732 93 q 774 26 751 38 q 836 14 797 14 l 843 14 l 843 0 l 601 0 l 601 506 q 568 653 601 596 q 453 710 535 710 q 350 675 388 710 q 297 585 313 640 q 281 471 281 531 l 281 142 q 291 65 281 93 q 326 26 301 38 q 392 14 350 14 l 399 14 l 399 0 l 25 0 z "},"Ĩ":{"ha":510,"x_min":7,"x_max":501,"o":"m 53 0 l 53 14 l 71 14 q 134 25 108 14 q 172 58 160 36 q 185 114 185 81 l 185 883 q 172 936 185 915 q 134 967 160 957 q 71 978 108 978 l 53 978 l 53 992 l 457 992 l 457 978 l 439 978 q 376 967 401 978 q 338 933 350 956 q 325 878 325 911 l 325 114 q 338 58 325 81 q 376 25 350 36 q 439 14 401 14 l 457 14 l 457 0 l 53 0 m 368 1071 q 300 1084 333 1071 q 234 1115 267 1097 q 168 1145 201 1132 q 97 1158 135 1158 q 40 1135 51 1158 q 21 1085 28 1113 l 7 1085 q 25 1164 11 1126 q 67 1225 39 1201 q 140 1249 96 1249 q 209 1235 176 1249 q 274 1205 242 1222 q 341 1174 307 1188 q 411 1161 375 1161 q 468 1183 454 1161 q 488 1235 482 1204 l 501 1235 q 483 1158 497 1196 q 442 1095 469 1119 q 368 1071 414 1071 z "},"ĩ":{"ha":444,"x_min":-33,"x_max":461,"o":"m 32 0 l 32 14 l 50 14 q 117 25 92 14 q 153 60 142 36 q 164 121 164 83 l 164 622 q 153 685 164 661 q 117 719 142 708 q 50 731 92 731 l 46 731 l 46 744 l 294 744 l 294 128 q 306 61 294 86 q 342 25 317 36 q 408 14 368 14 l 426 14 l 426 0 l 32 0 m 328 842 q 260 855 293 842 q 194 885 226 868 q 128 916 161 903 q 57 929 94 929 q -1 906 11 929 q -19 856 -12 883 l -33 856 q -15 935 -29 897 q 27 996 -1 972 q 100 1019 56 1019 q 169 1006 136 1019 q 234 976 201 993 q 301 945 267 958 q 371 932 335 932 q 428 953 414 932 q 447 1006 442 975 l 461 1006 q 443 928 457 967 q 401 866 429 890 q 328 842 374 842 z "},"Ī":{"ha":510,"x_min":53,"x_max":457,"o":"m 53 0 l 53 14 l 71 14 q 134 25 108 14 q 172 58 160 36 q 185 114 185 81 l 185 883 q 172 936 185 915 q 134 967 160 957 q 71 978 108 978 l 53 978 l 53 992 l 457 992 l 457 978 l 439 978 q 376 967 401 978 q 338 933 350 956 q 325 878 325 911 l 325 114 q 338 58 325 81 q 376 25 350 36 q 439 14 401 14 l 457 14 l 457 0 l 53 0 m 53 1113 l 53 1140 l 456 1140 l 456 1113 l 53 1113 z "},"ī":{"ha":444,"x_min":0,"x_max":426,"o":"m 32 0 l 32 14 l 50 14 q 117 25 92 14 q 153 60 142 36 q 164 121 164 83 l 164 622 q 153 685 164 661 q 117 719 142 708 q 50 731 92 731 l 46 731 l 46 744 l 294 744 l 294 128 q 306 61 294 86 q 342 25 317 36 q 408 14 368 14 l 426 14 l 426 0 l 32 0 m 0 883 l 0 911 l 403 911 l 403 883 l 0 883 z "},"Ĭ":{"ha":510,"x_min":53,"x_max":457,"o":"m 53 0 l 53 14 l 71 14 q 134 25 108 14 q 172 58 160 36 q 185 114 185 81 l 185 883 q 172 936 185 915 q 134 967 160 957 q 71 978 108 978 l 53 978 l 53 992 l 457 992 l 457 978 l 439 978 q 376 967 401 978 q 338 933 350 956 q 325 878 325 911 l 325 114 q 338 58 325 81 q 376 25 350 36 q 439 14 401 14 l 457 14 l 457 0 l 53 0 m 254 1071 q 147 1097 189 1071 q 85 1166 106 1122 q 60 1261 64 1210 l 74 1261 q 105 1207 85 1228 q 162 1176 125 1186 q 254 1167 199 1167 q 347 1176 311 1167 q 404 1207 383 1186 q 435 1261 425 1228 l 449 1261 q 424 1166 444 1210 q 362 1097 403 1122 q 254 1071 321 1071 z "},"ĭ":{"ha":444,"x_min":17,"x_max":426,"o":"m 32 0 l 32 14 l 50 14 q 117 25 92 14 q 153 60 142 36 q 164 121 164 83 l 164 622 q 153 685 164 661 q 117 719 142 708 q 50 731 92 731 l 46 731 l 46 744 l 294 744 l 294 128 q 306 61 294 86 q 342 25 317 36 q 408 14 368 14 l 426 14 l 426 0 l 32 0 m 211 842 q 104 867 146 842 q 42 937 63 893 q 17 1032 21 981 l 31 1032 q 62 978 42 999 q 119 947 82 957 q 211 938 156 938 q 304 947 268 938 q 361 978 340 957 q 392 1032 382 999 l 406 1032 q 381 937 401 981 q 319 867 360 893 q 211 842 278 842 z "},"Į":{"ha":510,"x_min":53,"x_max":457,"o":"m 53 0 l 53 14 l 71 14 q 134 25 108 14 q 172 58 160 36 q 185 114 185 81 l 185 883 q 172 936 185 915 q 134 967 160 957 q 71 978 108 978 l 53 978 l 53 992 l 457 992 l 457 978 l 439 978 q 376 967 401 978 q 338 933 350 956 q 325 878 325 911 l 325 114 q 338 58 325 81 q 376 25 350 36 q 439 14 401 14 l 457 14 l 457 0 l 53 0 m 293 -333 q 168 -300 218 -333 q 118 -200 118 -267 q 142 -118 118 -156 q 209 -51 165 -81 q 310 0 253 -21 l 339 0 q 253 -62 283 -18 q 224 -182 224 -107 q 249 -283 224 -249 q 326 -317 274 -317 q 369 -312 347 -317 q 415 -297 390 -307 l 415 -311 q 361 -327 393 -321 q 293 -333 329 -333 z "},"į":{"ha":444,"x_min":32,"x_max":426,"o":"m 32 0 l 32 14 l 50 14 q 117 25 92 14 q 153 60 142 36 q 164 121 164 83 l 164 622 q 153 685 164 661 q 117 719 142 708 q 50 731 92 731 l 46 731 l 46 744 l 294 744 l 294 128 q 306 61 294 86 q 342 25 317 36 q 408 14 368 14 l 426 14 l 426 0 l 32 0 m 222 878 q 178 895 196 878 q 161 956 161 913 q 178 1017 161 1000 q 222 1033 196 1033 q 265 1017 247 1033 q 283 956 283 1000 q 265 895 283 913 q 222 878 247 878 m 268 -333 q 143 -300 193 -333 q 93 -200 93 -267 q 117 -118 93 -156 q 184 -51 140 -81 q 285 0 228 -21 l 314 0 q 228 -62 258 -18 q 199 -182 199 -107 q 224 -283 199 -249 q 301 -317 249 -317 q 344 -312 322 -317 q 390 -297 365 -307 l 390 -311 q 336 -327 368 -321 q 268 -333 304 -333 z "},"İ":{"ha":510,"x_min":53,"x_max":457,"o":"m 53 0 l 53 14 l 71 14 q 134 25 108 14 q 172 58 160 36 q 185 114 185 81 l 185 883 q 172 936 185 915 q 134 967 160 957 q 71 978 108 978 l 53 978 l 53 992 l 457 992 l 457 978 l 439 978 q 376 967 401 978 q 338 933 350 956 q 325 878 325 911 l 325 114 q 338 58 325 81 q 376 25 350 36 q 439 14 401 14 l 457 14 l 457 0 l 53 0 m 254 1107 q 210 1124 228 1107 q 193 1185 193 1142 q 210 1246 193 1229 q 254 1263 228 1263 q 297 1246 279 1263 q 315 1185 315 1229 q 297 1124 315 1142 q 254 1107 279 1107 z "},"Ĳ":{"ha":967,"x_min":53,"x_max":928,"o":"m 53 0 l 53 14 l 71 14 q 134 25 108 14 q 172 58 160 36 q 185 114 185 81 l 185 883 q 172 936 185 915 q 134 967 160 957 q 71 978 108 978 l 53 978 l 53 992 l 457 992 l 457 978 l 439 978 q 376 967 401 978 q 338 933 350 956 q 325 878 325 911 l 325 114 q 338 58 325 81 q 376 25 350 36 q 439 14 401 14 l 457 14 l 457 0 l 53 0 m 456 -333 l 456 -319 l 468 -319 q 569 -297 528 -319 q 633 -217 611 -274 q 656 -64 656 -161 l 656 883 q 643 936 656 915 q 605 967 631 957 q 542 978 579 978 l 524 978 l 524 992 l 928 992 l 928 978 l 910 978 q 847 967 872 978 q 808 933 821 956 q 796 878 796 911 l 796 -11 q 772 -167 796 -104 q 704 -265 747 -229 q 603 -317 661 -301 q 479 -333 546 -333 l 456 -333 z "},"ĳ":{"ha":861,"x_min":32,"x_max":725,"o":"m 32 0 l 32 14 l 50 14 q 117 25 92 14 q 153 60 142 36 q 164 121 164 83 l 164 622 q 153 685 164 661 q 117 719 142 708 q 50 731 92 731 l 46 731 l 46 744 l 294 744 l 294 128 q 306 61 294 86 q 342 25 317 36 q 408 14 368 14 l 426 14 l 426 0 l 32 0 m 222 878 q 178 895 196 878 q 161 956 161 913 q 178 1017 161 1000 q 222 1033 196 1033 q 265 1017 247 1033 q 283 956 283 1000 q 265 895 283 913 q 222 878 247 878 m 428 -333 l 428 -319 l 438 -319 q 523 -294 488 -319 q 576 -203 558 -269 q 594 -12 594 -136 l 594 622 q 583 685 594 661 q 547 719 572 708 q 481 731 522 731 l 476 731 l 476 744 l 725 744 l 725 -11 q 690 -206 725 -135 q 592 -305 654 -276 q 450 -333 531 -333 l 428 -333 m 653 878 q 609 895 626 878 q 592 956 592 913 q 609 1017 592 1000 q 653 1033 626 1033 q 696 1017 678 1033 q 714 956 714 1000 q 696 895 714 913 q 653 878 678 878 z "},"Ĵ":{"ha":496,"x_min":-15,"x_max":458,"o":"m -15 -333 l -15 -319 l -3 -319 q 99 -297 57 -319 q 163 -217 140 -274 q 185 -64 185 -161 l 185 883 q 172 936 185 915 q 134 967 160 957 q 71 978 108 978 l 53 978 l 53 992 l 457 992 l 457 978 l 439 978 q 376 967 401 978 q 338 933 350 956 q 325 878 325 911 l 325 -11 q 301 -167 325 -104 q 233 -265 276 -229 q 133 -317 190 -301 q 8 -333 75 -333 l -15 -333 m 49 1085 q 104 1151 76 1115 q 158 1225 132 1188 q 201 1293 183 1263 l 306 1293 q 349 1225 324 1263 q 403 1151 375 1188 q 458 1085 432 1115 l 458 1071 l 444 1071 q 381 1110 418 1086 q 310 1161 344 1135 q 254 1210 275 1188 q 198 1161 233 1188 q 126 1110 163 1135 q 63 1071 89 1086 l 49 1071 l 49 1085 z "},"ĵ":{"ha":417,"x_min":-17,"x_max":393,"o":"m -17 -333 l -17 -319 l -7 -319 q 78 -294 43 -319 q 132 -203 114 -269 q 150 -12 150 -136 l 150 622 q 139 685 150 661 q 103 719 128 708 q 36 731 78 731 l 32 731 l 32 744 l 281 744 l 281 -11 q 245 -206 281 -135 q 148 -305 210 -276 q 6 -333 86 -333 l -17 -333 m -17 856 q 39 922 11 886 q 92 996 67 958 q 136 1064 118 1033 l 240 1064 q 284 996 258 1033 q 338 922 310 958 q 393 856 367 886 l 393 842 l 379 842 q 316 881 353 857 q 244 932 279 906 q 189 981 210 958 q 133 932 168 958 q 60 881 97 906 q -3 842 24 857 l -17 842 l -17 856 z "},"Ķ":{"ha":972,"x_min":53,"x_max":989,"o":"m 53 0 l 53 14 l 71 14 q 134 25 108 14 q 172 58 160 36 q 185 114 185 81 l 185 883 q 172 936 185 915 q 134 967 160 957 q 71 978 108 978 l 53 978 l 53 992 l 457 992 l 457 978 l 439 978 q 376 967 401 978 q 338 933 350 956 q 325 878 325 911 l 325 411 l 679 813 q 720 862 704 840 q 744 901 736 883 q 751 931 751 918 q 738 958 751 947 q 694 972 724 968 q 621 976 665 976 l 621 992 l 928 992 l 928 976 q 868 965 897 976 q 806 924 839 953 q 728 844 772 894 l 514 604 l 819 171 q 876 96 851 126 q 919 47 900 65 q 953 22 938 29 q 986 14 969 14 l 989 14 l 989 0 l 974 0 q 859 6 904 0 q 785 25 814 11 q 732 63 756 39 q 682 125 708 88 l 421 499 l 325 389 l 325 114 q 338 58 325 81 q 376 25 350 36 q 439 14 401 14 l 457 14 l 457 0 l 53 0 m 426 -296 q 447 -222 439 -256 q 463 -154 456 -187 q 475 -85 469 -121 l 579 -85 l 579 -99 q 543 -163 565 -128 q 494 -235 521 -199 q 440 -307 468 -272 l 426 -307 l 426 -296 z "},"ķ":{"ha":813,"x_min":25,"x_max":814,"o":"m 25 0 l 25 14 l 36 14 q 103 25 78 14 q 139 60 128 36 q 150 121 150 83 l 150 933 q 139 996 150 972 q 103 1031 128 1019 q 36 1042 78 1042 l 32 1042 l 32 1056 l 281 1056 l 281 481 q 281 426 281 453 q 280 371 281 399 q 278 315 279 343 l 514 579 q 551 624 536 604 q 574 660 567 644 q 582 688 582 676 q 551 721 582 711 q 457 731 521 731 l 457 744 l 764 744 l 764 731 q 702 724 729 731 q 642 690 675 717 q 556 604 610 664 l 447 482 l 661 153 q 730 58 704 88 q 774 22 756 29 q 810 14 792 14 l 814 14 l 814 0 l 753 0 q 680 6 711 0 q 624 23 649 11 q 580 55 600 35 q 540 106 560 75 l 363 386 l 281 294 l 281 128 q 292 61 281 86 q 328 25 303 36 q 394 14 353 14 l 399 14 l 399 0 l 25 0 m 346 -296 q 367 -222 358 -256 q 382 -154 375 -187 q 394 -85 389 -121 l 499 -85 l 499 -99 q 463 -163 485 -128 q 414 -235 440 -199 q 360 -307 388 -272 l 346 -307 l 346 -296 z "},"ĸ":{"ha":813,"x_min":25,"x_max":814,"o":"m 25 0 l 25 14 l 36 14 q 103 25 78 14 q 139 60 128 36 q 150 121 150 83 l 150 622 q 139 685 150 661 q 103 719 128 708 q 36 731 78 731 l 25 731 l 25 744 l 281 744 l 281 481 q 281 426 281 453 q 280 371 281 399 q 278 315 279 343 l 514 579 q 551 624 536 604 q 574 660 567 644 q 582 688 582 676 q 551 721 582 711 q 457 731 521 731 l 457 744 l 764 744 l 764 731 q 716 727 738 731 q 673 712 694 724 q 624 674 651 700 q 556 604 596 649 l 447 482 l 661 153 q 730 58 704 88 q 774 22 756 29 q 810 14 792 14 l 814 14 l 814 0 l 753 0 q 680 6 711 0 q 624 23 649 11 q 580 55 600 35 q 540 106 560 75 l 363 386 l 281 294 l 281 128 q 292 61 281 86 q 328 25 303 36 q 394 14 353 14 l 399 14 l 399 0 l 25 0 z "},"Ĺ":{"ha":865,"x_min":53,"x_max":807,"o":"m 53 0 l 53 14 l 71 14 q 134 25 108 14 q 172 58 160 36 q 185 114 185 81 l 185 883 q 172 936 185 915 q 134 967 160 957 q 71 978 108 978 l 53 978 l 53 992 l 457 992 l 457 978 l 439 978 q 376 967 401 978 q 338 933 350 956 q 325 878 325 911 l 325 14 l 582 14 q 699 35 656 14 q 764 110 743 57 q 790 253 785 163 l 793 299 l 807 299 l 797 0 l 53 0 m 224 1085 q 265 1151 243 1115 q 306 1225 286 1188 q 340 1293 326 1263 l 465 1293 l 465 1279 q 423 1235 450 1261 q 363 1178 396 1208 q 298 1120 331 1149 q 238 1071 265 1092 l 224 1071 l 224 1085 z "},"ĺ":{"ha":431,"x_min":18,"x_max":413,"o":"m 18 0 l 18 14 l 36 14 q 103 25 78 14 q 139 60 128 36 q 150 121 150 83 l 150 933 q 139 996 150 972 q 103 1031 128 1019 q 36 1042 78 1042 l 18 1042 l 18 1056 l 281 1056 l 281 128 q 292 61 281 86 q 328 25 303 36 q 394 14 353 14 l 413 14 l 413 0 l 18 0 m 164 1124 q 205 1190 183 1154 q 247 1264 226 1226 q 281 1332 267 1301 l 406 1332 l 406 1318 q 363 1274 390 1300 q 303 1217 336 1247 q 238 1159 271 1188 q 178 1110 206 1131 l 164 1110 l 164 1124 z "},"Ļ":{"ha":865,"x_min":53,"x_max":807,"o":"m 53 0 l 53 14 l 71 14 q 134 25 108 14 q 172 58 160 36 q 185 114 185 81 l 185 883 q 172 936 185 915 q 134 967 160 957 q 71 978 108 978 l 53 978 l 53 992 l 457 992 l 457 978 l 439 978 q 376 967 401 978 q 338 933 350 956 q 325 878 325 911 l 325 14 l 582 14 q 699 35 656 14 q 764 110 743 57 q 790 253 785 163 l 793 299 l 807 299 l 797 0 l 53 0 m 365 -296 q 386 -222 378 -256 q 401 -154 394 -187 q 414 -85 408 -121 l 518 -85 l 518 -99 q 482 -163 504 -128 q 433 -235 460 -199 q 379 -307 407 -272 l 365 -307 l 365 -296 z "},"ļ":{"ha":431,"x_min":18,"x_max":413,"o":"m 18 0 l 18 14 l 36 14 q 103 25 78 14 q 139 60 128 36 q 150 121 150 83 l 150 933 q 139 996 150 972 q 103 1031 128 1019 q 36 1042 78 1042 l 18 1042 l 18 1056 l 281 1056 l 281 128 q 292 61 281 86 q 328 25 303 36 q 394 14 353 14 l 413 14 l 413 0 l 18 0 m 121 -296 q 142 -222 133 -256 q 157 -154 150 -187 q 169 -85 164 -121 l 274 -85 l 274 -99 q 238 -163 260 -128 q 189 -235 215 -199 q 135 -307 163 -272 l 121 -307 l 121 -296 z "},"Ľ":{"ha":865,"x_min":53,"x_max":807,"o":"m 589 789 q 610 858 601 825 q 625 923 618 890 q 638 992 632 956 l 742 992 l 742 978 q 706 913 728 949 q 657 841 683 878 q 603 769 631 804 l 589 769 l 589 789 m 53 0 l 53 14 l 71 14 q 134 25 108 14 q 172 58 160 36 q 185 114 185 81 l 185 883 q 172 936 185 915 q 134 967 160 957 q 71 978 108 978 l 53 978 l 53 992 l 457 992 l 457 978 l 439 978 q 376 967 401 978 q 338 933 350 956 q 325 878 325 911 l 325 14 l 582 14 q 699 35 656 14 q 764 110 743 57 q 790 253 785 163 l 793 299 l 807 299 l 797 0 l 53 0 z "},"ľ":{"ha":431,"x_min":18,"x_max":513,"o":"m 360 853 q 381 922 372 889 q 396 987 389 954 q 408 1056 403 1019 l 513 1056 l 513 1042 q 476 977 499 1013 q 428 905 454 942 q 374 833 401 868 l 360 833 l 360 853 m 18 0 l 18 14 l 36 14 q 103 25 78 14 q 139 60 128 36 q 150 121 150 83 l 150 933 q 139 996 150 972 q 103 1031 128 1019 q 36 1042 78 1042 l 18 1042 l 18 1056 l 281 1056 l 281 128 q 292 61 281 86 q 328 25 303 36 q 394 14 353 14 l 413 14 l 413 0 l 18 0 z "},"Ŀ":{"ha":865,"x_min":53,"x_max":807,"o":"m 53 0 l 53 14 l 71 14 q 134 25 108 14 q 172 58 160 36 q 185 114 185 81 l 185 883 q 172 936 185 915 q 134 967 160 957 q 71 978 108 978 l 53 978 l 53 992 l 457 992 l 457 978 l 439 978 q 376 967 401 978 q 338 933 350 956 q 325 878 325 911 l 325 14 l 582 14 q 699 35 656 14 q 764 110 743 57 q 790 253 785 163 l 793 299 l 807 299 l 797 0 l 53 0 m 676 440 q 633 458 650 440 q 615 518 615 475 q 633 579 615 563 q 676 596 650 596 q 719 579 701 596 q 738 518 738 563 q 719 458 738 475 q 676 440 701 440 z "},"ŀ":{"ha":514,"x_min":18,"x_max":533,"o":"m 18 0 l 18 14 l 36 14 q 103 25 78 14 q 139 60 128 36 q 150 121 150 83 l 150 933 q 139 996 150 972 q 103 1031 128 1019 q 36 1042 78 1042 l 18 1042 l 18 1056 l 281 1056 l 281 128 q 292 61 281 86 q 328 25 303 36 q 394 14 353 14 l 413 14 l 413 0 l 18 0 m 472 364 q 428 381 446 364 q 411 442 411 399 q 428 503 411 486 q 472 519 446 519 q 515 503 497 519 q 533 442 533 486 q 515 381 533 399 q 472 364 497 364 z "},"Ł":{"ha":865,"x_min":53,"x_max":807,"o":"m 53 0 l 53 14 l 71 14 q 134 25 108 14 q 172 58 160 36 q 185 114 185 81 l 185 425 l 53 349 l 53 364 l 185 440 l 185 883 q 172 936 185 915 q 134 967 160 957 q 71 978 108 978 l 53 978 l 53 992 l 457 992 l 457 978 l 439 978 q 376 967 401 978 q 338 933 350 956 q 325 878 325 911 l 325 522 l 542 647 l 542 632 l 325 507 l 325 14 l 582 14 q 699 35 656 14 q 764 110 743 57 q 790 253 785 163 l 793 299 l 807 299 l 797 0 l 53 0 z "},"ł":{"ha":450,"x_min":39,"x_max":433,"o":"m 39 0 l 39 14 l 57 14 q 124 25 99 14 q 160 60 149 36 q 171 121 171 83 l 171 415 l 53 347 l 53 364 l 171 432 l 171 933 q 160 996 171 972 q 124 1031 149 1019 q 57 1042 99 1042 l 39 1042 l 39 1056 l 301 1056 l 301 507 l 432 582 l 432 565 l 301 490 l 301 128 q 313 61 301 86 q 349 25 324 36 q 415 14 375 14 l 433 14 l 433 0 l 39 0 z "},"Ń":{"ha":1060,"x_min":53,"x_max":1021,"o":"m 53 0 l 53 14 l 93 14 q 156 25 131 14 q 194 58 182 36 q 207 114 207 81 l 207 883 q 194 936 207 915 q 156 967 182 957 q 93 978 131 978 l 53 978 l 53 992 l 324 992 l 853 199 l 853 878 q 840 933 853 911 q 803 967 828 956 q 739 978 778 978 l 700 978 l 700 992 l 1021 992 l 1021 978 l 981 978 q 918 967 943 978 q 880 933 893 956 q 867 878 867 911 l 867 0 l 825 0 l 221 906 l 221 114 q 233 58 221 81 q 272 25 246 36 q 335 14 297 14 l 374 14 l 374 0 l 53 0 m 497 1085 q 538 1151 517 1115 q 580 1225 560 1188 q 614 1293 600 1263 l 739 1293 l 739 1279 q 697 1235 724 1261 q 637 1178 669 1208 q 572 1120 604 1149 q 511 1071 539 1092 l 497 1071 l 497 1085 z "},"ń":{"ha":896,"x_min":39,"x_max":857,"o":"m 39 0 l 39 14 l 50 14 q 118 26 93 14 q 153 65 143 38 q 164 142 164 93 l 164 606 q 153 680 164 653 q 119 719 143 707 q 53 731 96 731 l 46 731 l 46 744 l 293 744 l 293 614 l 296 614 q 350 710 315 679 q 426 749 385 740 q 501 758 467 758 q 685 694 625 758 q 746 486 746 629 l 746 142 q 756 65 746 93 q 788 26 765 38 q 850 14 811 14 l 857 14 l 857 0 l 615 0 l 615 533 q 582 681 615 624 q 467 738 549 738 q 364 703 401 738 q 310 613 326 668 q 294 499 294 558 l 294 142 q 305 65 294 93 q 340 26 315 38 q 406 14 364 14 l 413 14 l 413 0 l 39 0 m 404 856 q 445 922 424 886 q 487 996 467 958 q 521 1064 507 1033 l 646 1064 l 646 1050 q 603 1006 631 1032 q 544 949 576 979 q 478 891 511 919 q 418 842 446 863 l 404 842 l 404 856 z "},"Ņ":{"ha":1060,"x_min":53,"x_max":1021,"o":"m 53 0 l 53 14 l 93 14 q 156 25 131 14 q 194 58 182 36 q 207 114 207 81 l 207 883 q 194 936 207 915 q 156 967 182 957 q 93 978 131 978 l 53 978 l 53 992 l 324 992 l 853 199 l 853 878 q 840 933 853 911 q 803 967 828 956 q 739 978 778 978 l 700 978 l 700 992 l 1021 992 l 1021 978 l 981 978 q 918 967 943 978 q 880 933 893 956 q 867 878 867 911 l 867 0 l 825 0 l 221 906 l 221 114 q 233 58 221 81 q 272 25 246 36 q 335 14 297 14 l 374 14 l 374 0 l 53 0 m 467 -296 q 488 -222 479 -256 q 503 -154 496 -187 q 515 -85 510 -121 l 619 -85 l 619 -99 q 583 -163 606 -128 q 535 -235 561 -199 q 481 -307 508 -272 l 467 -307 l 467 -296 z "},"ņ":{"ha":896,"x_min":39,"x_max":857,"o":"m 39 0 l 39 14 l 50 14 q 118 26 93 14 q 153 65 143 38 q 164 142 164 93 l 164 606 q 153 680 164 653 q 119 719 143 707 q 53 731 96 731 l 46 731 l 46 744 l 293 744 l 293 614 l 296 614 q 350 710 315 679 q 426 749 385 740 q 501 758 467 758 q 685 694 625 758 q 746 486 746 629 l 746 142 q 756 65 746 93 q 788 26 765 38 q 850 14 811 14 l 857 14 l 857 0 l 615 0 l 615 533 q 582 681 615 624 q 467 738 549 738 q 364 703 401 738 q 310 613 326 668 q 294 499 294 558 l 294 142 q 305 65 294 93 q 340 26 315 38 q 406 14 364 14 l 413 14 l 413 0 l 39 0 m 372 -296 q 393 -222 385 -256 q 408 -154 401 -187 q 421 -85 415 -121 l 525 -85 l 525 -99 q 489 -163 511 -128 q 440 -235 467 -199 q 386 -307 414 -272 l 372 -307 l 372 -296 z "},"Ň":{"ha":1060,"x_min":53,"x_max":1021,"o":"m 53 0 l 53 14 l 93 14 q 156 25 131 14 q 194 58 182 36 q 207 114 207 81 l 207 883 q 194 936 207 915 q 156 967 182 957 q 93 978 131 978 l 53 978 l 53 992 l 324 992 l 853 199 l 853 878 q 840 933 853 911 q 803 967 828 956 q 739 978 778 978 l 700 978 l 700 992 l 1021 992 l 1021 978 l 981 978 q 918 967 943 978 q 880 933 893 956 q 867 878 867 911 l 867 0 l 825 0 l 221 906 l 221 114 q 233 58 221 81 q 272 25 246 36 q 335 14 297 14 l 374 14 l 374 0 l 53 0 m 510 1071 q 466 1140 492 1103 q 413 1213 440 1176 q 357 1279 385 1250 l 357 1293 l 371 1293 q 434 1253 397 1278 q 506 1203 471 1229 q 563 1154 542 1176 q 618 1203 583 1176 q 690 1253 653 1229 q 753 1293 726 1278 l 767 1293 l 767 1279 q 712 1213 740 1250 q 658 1140 683 1176 q 614 1071 632 1103 l 510 1071 z "},"ň":{"ha":896,"x_min":39,"x_max":857,"o":"m 39 0 l 39 14 l 50 14 q 118 26 93 14 q 153 65 143 38 q 164 142 164 93 l 164 606 q 153 680 164 653 q 119 719 143 707 q 53 731 96 731 l 46 731 l 46 744 l 293 744 l 293 614 l 296 614 q 350 710 315 679 q 426 749 385 740 q 501 758 467 758 q 685 694 625 758 q 746 486 746 629 l 746 142 q 756 65 746 93 q 788 26 765 38 q 850 14 811 14 l 857 14 l 857 0 l 615 0 l 615 533 q 582 681 615 624 q 467 738 549 738 q 364 703 401 738 q 310 613 326 668 q 294 499 294 558 l 294 142 q 305 65 294 93 q 340 26 315 38 q 406 14 364 14 l 413 14 l 413 0 l 39 0 m 407 842 q 363 910 389 874 q 310 984 338 947 q 254 1050 282 1021 l 254 1064 l 268 1064 q 331 1024 294 1049 q 403 974 368 1000 q 460 925 439 947 q 515 974 481 947 q 587 1024 550 1000 q 650 1064 624 1049 l 664 1064 l 664 1050 q 609 984 638 1021 q 555 910 581 947 q 511 842 529 874 l 407 842 z "},"ŉ":{"ha":1083,"x_min":0,"x_max":1044,"o":"m 226 0 l 226 14 l 238 14 q 306 26 281 14 q 341 65 331 38 q 351 142 351 93 l 351 606 q 341 680 351 653 q 307 719 331 707 q 240 731 283 731 l 233 731 l 233 744 l 481 744 l 481 614 l 483 614 q 538 710 503 679 q 613 749 572 740 q 689 758 654 758 q 873 694 813 758 q 933 486 933 629 l 933 142 q 943 65 933 93 q 976 26 953 38 q 1038 14 999 14 l 1044 14 l 1044 0 l 803 0 l 803 533 q 769 681 803 624 q 654 738 736 738 q 551 703 589 738 q 498 613 514 668 q 482 499 482 558 l 482 142 q 492 65 482 93 q 527 26 503 38 q 593 14 551 14 l 600 14 l 600 0 l 226 0 m 0 613 q 76 646 43 626 q 127 692 108 665 q 146 753 146 718 q 134 798 146 782 q 106 823 122 814 q 72 840 89 832 q 42 864 54 849 q 31 907 31 879 q 56 970 31 949 q 121 992 82 992 q 196 962 164 992 q 228 863 228 932 q 174 708 228 782 q 0 599 121 633 l 0 613 z "},"Ŋ":{"ha":1060,"x_min":53,"x_max":1021,"o":"m 624 -333 l 624 -319 l 643 -319 q 758 -284 711 -319 q 828 -180 804 -249 q 853 -14 853 -111 l 853 0 l 221 906 l 221 114 q 233 58 221 81 q 272 25 246 36 q 335 14 297 14 l 374 14 l 374 0 l 53 0 l 53 14 l 93 14 q 156 25 131 14 q 194 58 182 36 q 207 114 207 81 l 207 883 q 194 936 207 915 q 156 967 182 957 q 93 978 131 978 l 53 978 l 53 992 l 324 992 l 853 232 l 853 878 q 840 933 853 911 q 803 967 828 956 q 739 978 778 978 l 700 978 l 700 992 l 1021 992 l 1021 978 l 981 978 q 918 967 943 978 q 880 933 893 956 q 867 878 867 911 l 867 -11 q 843 -206 867 -135 q 773 -305 819 -276 q 656 -333 726 -333 l 624 -333 z "},"ŋ":{"ha":882,"x_min":39,"x_max":746,"o":"m 468 -333 l 468 -319 l 476 -319 q 552 -297 521 -319 q 599 -217 583 -274 q 615 -64 615 -161 l 615 533 q 582 681 615 624 q 467 738 549 738 q 364 703 401 738 q 310 613 326 668 q 294 499 294 558 l 294 142 q 305 65 294 93 q 340 26 315 38 q 406 14 364 14 l 413 14 l 413 0 l 39 0 l 39 14 l 50 14 q 118 26 93 14 q 153 65 143 38 q 164 142 164 93 l 164 606 q 153 680 164 653 q 119 719 143 707 q 53 731 96 731 l 46 731 l 46 744 l 293 744 l 293 614 l 296 614 q 350 710 315 679 q 426 749 385 740 q 501 758 467 758 q 685 694 625 758 q 746 486 746 629 l 746 -11 q 713 -206 746 -135 q 622 -305 679 -276 q 489 -333 564 -333 l 468 -333 z "},"Ō":{"ha":1031,"x_min":78,"x_max":951,"o":"m 515 -14 q 271 50 368 -14 q 126 229 174 114 q 78 499 78 344 q 126 767 78 653 q 272 944 174 881 q 517 1007 369 1007 q 753 944 657 1007 q 901 766 850 881 q 951 497 951 651 q 901 228 951 343 q 753 50 850 114 q 515 -14 656 -14 m 515 0 q 642 28 589 0 q 730 117 696 57 q 781 272 764 178 q 797 497 797 367 q 781 722 797 628 q 730 876 764 815 q 643 965 696 936 q 517 993 590 993 q 388 965 442 993 q 300 876 335 936 q 249 722 265 815 q 232 497 232 628 q 249 272 232 367 q 299 117 265 178 q 387 28 333 57 q 515 0 440 0 m 311 1113 l 311 1140 l 714 1140 l 714 1113 l 311 1113 z "},"ō":{"ha":801,"x_min":76,"x_max":725,"o":"m 399 -14 q 163 82 249 -14 q 76 374 76 178 q 159 663 76 568 q 403 758 242 758 q 639 663 553 758 q 725 374 725 568 q 642 82 725 178 q 399 -14 560 -14 m 401 0 q 511 38 469 0 q 572 157 553 75 q 590 374 590 239 q 572 589 590 507 q 511 708 553 671 q 400 744 469 744 q 290 708 332 744 q 230 589 249 671 q 211 374 211 507 q 230 157 211 239 q 291 38 249 75 q 401 0 333 0 m 196 883 l 196 911 l 599 911 l 599 883 l 196 883 z "},"Ŏ":{"ha":1031,"x_min":78,"x_max":951,"o":"m 515 -14 q 271 50 368 -14 q 126 229 174 114 q 78 499 78 344 q 126 767 78 653 q 272 944 174 881 q 517 1007 369 1007 q 753 944 657 1007 q 901 766 850 881 q 951 497 951 651 q 901 228 951 343 q 753 50 850 114 q 515 -14 656 -14 m 515 0 q 642 28 589 0 q 730 117 696 57 q 781 272 764 178 q 797 497 797 367 q 781 722 797 628 q 730 876 764 815 q 643 965 696 936 q 517 993 590 993 q 388 965 442 993 q 300 876 335 936 q 249 722 265 815 q 232 497 232 628 q 249 272 232 367 q 299 117 265 178 q 387 28 333 57 q 515 0 440 0 m 515 1071 q 408 1097 450 1071 q 346 1166 367 1122 q 321 1261 325 1210 l 335 1261 q 366 1207 346 1228 q 423 1176 386 1186 q 515 1167 460 1167 q 608 1176 572 1167 q 665 1207 644 1186 q 696 1261 686 1228 l 710 1261 q 685 1166 706 1210 q 623 1097 664 1122 q 515 1071 582 1071 z "},"ŏ":{"ha":801,"x_min":76,"x_max":725,"o":"m 399 -14 q 163 82 249 -14 q 76 374 76 178 q 159 663 76 568 q 403 758 242 758 q 639 663 553 758 q 725 374 725 568 q 642 82 725 178 q 399 -14 560 -14 m 401 0 q 511 38 469 0 q 572 157 553 75 q 590 374 590 239 q 572 589 590 507 q 511 708 553 671 q 400 744 469 744 q 290 708 332 744 q 230 589 249 671 q 211 374 211 507 q 230 157 211 239 q 291 38 249 75 q 401 0 333 0 m 400 842 q 293 867 335 842 q 231 937 251 893 q 206 1032 210 981 l 219 1032 q 251 978 231 999 q 308 947 271 957 q 400 938 344 938 q 493 947 457 938 q 550 978 529 957 q 581 1032 571 999 l 594 1032 q 569 937 590 981 q 508 867 549 893 q 400 842 467 842 z "},"Ő":{"ha":1031,"x_min":78,"x_max":951,"o":"m 515 -14 q 271 50 368 -14 q 126 229 174 114 q 78 499 78 344 q 126 767 78 653 q 272 944 174 881 q 517 1007 369 1007 q 753 944 657 1007 q 901 766 850 881 q 951 497 951 651 q 901 228 951 343 q 753 50 850 114 q 515 -14 656 -14 m 515 0 q 642 28 589 0 q 730 117 696 57 q 781 272 764 178 q 797 497 797 367 q 781 722 797 628 q 730 876 764 815 q 643 965 696 936 q 517 993 590 993 q 388 965 442 993 q 300 876 335 936 q 249 722 265 815 q 232 497 232 628 q 249 272 232 367 q 299 117 265 178 q 387 28 333 57 q 515 0 440 0 m 319 1085 q 381 1188 349 1129 q 436 1293 414 1246 l 561 1293 l 561 1279 q 519 1235 546 1261 q 459 1178 492 1208 q 394 1120 426 1149 q 333 1071 361 1092 l 319 1071 l 319 1085 m 569 1085 q 631 1188 599 1129 q 686 1293 664 1246 l 811 1293 l 811 1279 q 769 1235 796 1261 q 709 1178 742 1208 q 644 1120 676 1149 q 583 1071 611 1092 l 569 1071 l 569 1085 z "},"ő":{"ha":801,"x_min":76,"x_max":725,"o":"m 399 -14 q 163 82 249 -14 q 76 374 76 178 q 159 663 76 568 q 403 758 242 758 q 639 663 553 758 q 725 374 725 568 q 642 82 725 178 q 399 -14 560 -14 m 401 0 q 511 38 469 0 q 572 157 553 75 q 590 374 590 239 q 572 589 590 507 q 511 708 553 671 q 400 744 469 744 q 290 708 332 744 q 230 589 249 671 q 211 374 211 507 q 230 157 211 239 q 291 38 249 75 q 401 0 333 0 m 207 856 q 269 958 236 900 q 324 1064 301 1017 l 449 1064 l 449 1050 q 406 1006 433 1032 q 347 949 379 979 q 281 891 314 919 q 221 842 249 863 l 207 842 l 207 856 m 457 856 q 519 958 486 900 q 574 1064 551 1017 l 699 1064 l 699 1050 q 656 1006 683 1032 q 597 949 629 979 q 531 891 564 919 q 471 842 499 863 l 457 842 l 457 856 z "},"Œ":{"ha":1332,"x_min":78,"x_max":1274,"o":"m 515 -14 q 271 50 368 -14 q 126 229 174 114 q 78 499 78 344 q 126 767 78 653 q 272 944 174 881 q 517 1007 369 1007 q 591 1003 550 1007 q 660 992 632 999 l 1218 992 l 1226 749 l 1213 749 l 1210 794 q 1186 904 1206 864 q 1126 961 1167 944 q 1014 978 1085 978 l 792 978 l 792 526 l 1140 526 l 1140 513 l 792 513 l 792 14 l 1049 14 q 1168 31 1124 14 q 1233 88 1213 47 q 1257 197 1253 128 l 1260 243 l 1274 243 l 1264 0 l 658 0 q 589 -10 631 -6 q 515 -14 547 -14 m 515 0 q 590 6 556 0 q 651 21 625 11 l 651 969 q 591 987 625 981 q 517 993 557 993 q 351 939 414 993 q 260 775 288 885 q 232 497 232 665 q 260 219 232 329 q 350 54 288 108 q 515 0 413 0 z "},"œ":{"ha":1257,"x_min":76,"x_max":1188,"o":"m 399 -14 q 163 82 249 -14 q 76 374 76 178 q 159 663 76 568 q 403 758 242 758 q 551 726 486 758 q 656 613 615 693 q 757 725 696 692 q 899 758 818 758 q 1110 675 1033 758 q 1188 426 1188 592 l 1188 393 l 725 393 q 746 165 726 251 q 809 40 765 79 q 924 0 853 0 q 1017 19 976 0 q 1086 77 1058 39 q 1124 171 1114 115 q 1149 154 1140 168 q 1157 125 1157 140 q 1131 65 1157 97 q 1052 9 1104 32 q 919 -14 1000 -14 q 768 20 833 -14 q 660 135 703 54 q 555 20 621 54 q 399 -14 489 -14 m 401 0 q 511 38 469 0 q 572 157 553 75 q 590 374 590 239 q 572 589 590 507 q 511 708 553 671 q 400 744 469 744 q 290 708 332 744 q 230 589 249 671 q 211 374 211 507 q 230 157 211 239 q 291 38 249 75 q 401 0 333 0 m 1047 407 q 1032 603 1047 529 q 983 710 1017 676 q 896 744 950 744 q 803 710 839 744 q 749 603 767 676 q 725 407 731 529 l 1047 407 z "},"Ŕ":{"ha":911,"x_min":53,"x_max":919,"o":"m 53 0 l 53 14 l 71 14 q 134 25 108 14 q 172 58 160 36 q 185 114 185 81 l 185 883 q 172 936 185 915 q 134 967 160 957 q 71 978 108 978 l 53 978 l 53 992 l 426 992 q 626 962 547 992 q 744 874 706 932 q 783 732 783 815 q 751 599 783 651 q 667 518 718 547 q 563 474 617 489 l 758 168 q 809 94 788 124 q 849 47 831 64 q 883 22 867 29 q 915 14 899 14 l 919 14 l 919 0 l 900 0 q 792 5 835 0 q 722 22 750 10 q 673 59 694 35 q 626 122 651 83 l 413 463 l 325 463 l 325 114 q 338 58 325 81 q 376 25 350 36 q 439 14 401 14 l 457 14 l 457 0 l 53 0 m 422 476 q 547 501 500 476 q 614 579 593 525 q 635 722 635 633 q 613 870 635 814 q 544 952 592 926 q 419 978 497 978 l 325 978 l 325 476 l 422 476 m 374 1085 q 415 1151 393 1115 q 456 1225 436 1188 q 490 1293 476 1263 l 615 1293 l 615 1279 q 573 1235 600 1261 q 513 1178 546 1208 q 448 1120 481 1149 q 388 1071 415 1092 l 374 1071 l 374 1085 z "},"ŕ":{"ha":654,"x_min":32,"x_max":633,"o":"m 32 0 l 32 14 l 50 14 q 117 25 92 14 q 153 60 142 36 q 164 121 164 83 l 164 622 q 153 685 164 661 q 117 719 142 708 q 50 731 92 731 l 46 731 l 46 744 l 293 744 l 293 606 l 296 606 q 325 676 306 642 q 384 735 344 711 q 490 758 424 758 q 597 731 560 758 q 633 656 633 704 q 603 586 633 614 q 504 558 574 558 q 475 677 504 644 q 410 710 446 710 q 346 681 369 710 q 311 608 322 653 q 297 515 300 563 q 294 426 294 467 l 294 128 q 306 61 294 86 q 342 25 317 36 q 408 14 368 14 l 426 14 l 426 0 l 32 0 m 271 856 q 312 922 290 886 q 353 996 333 958 q 388 1064 374 1033 l 513 1064 l 513 1050 q 470 1006 497 1032 q 410 949 443 979 q 345 891 378 919 q 285 842 313 863 l 271 842 l 271 856 z "},"Ŗ":{"ha":911,"x_min":53,"x_max":919,"o":"m 53 0 l 53 14 l 71 14 q 134 25 108 14 q 172 58 160 36 q 185 114 185 81 l 185 883 q 172 936 185 915 q 134 967 160 957 q 71 978 108 978 l 53 978 l 53 992 l 426 992 q 626 962 547 992 q 744 874 706 932 q 783 732 783 815 q 751 599 783 651 q 667 518 718 547 q 563 474 617 489 l 758 168 q 809 94 788 124 q 849 47 831 64 q 883 22 867 29 q 915 14 899 14 l 919 14 l 919 0 l 900 0 q 792 5 835 0 q 722 22 750 10 q 673 59 694 35 q 626 122 651 83 l 413 463 l 325 463 l 325 114 q 338 58 325 81 q 376 25 350 36 q 439 14 401 14 l 457 14 l 457 0 l 53 0 m 422 476 q 547 501 500 476 q 614 579 593 525 q 635 722 635 633 q 613 870 635 814 q 544 952 592 926 q 419 978 497 978 l 325 978 l 325 476 l 422 476 m 372 -296 q 393 -222 385 -256 q 408 -154 401 -187 q 421 -85 415 -121 l 525 -85 l 525 -99 q 489 -163 511 -128 q 440 -235 467 -199 q 386 -307 414 -272 l 372 -307 l 372 -296 z "},"ŗ":{"ha":654,"x_min":32,"x_max":633,"o":"m 32 0 l 32 14 l 50 14 q 117 25 92 14 q 153 60 142 36 q 164 121 164 83 l 164 622 q 153 685 164 661 q 117 719 142 708 q 50 731 92 731 l 46 731 l 46 744 l 293 744 l 293 606 l 296 606 q 325 676 306 642 q 384 735 344 711 q 490 758 424 758 q 597 731 560 758 q 633 656 633 704 q 603 586 633 614 q 504 558 574 558 q 475 677 504 644 q 410 710 446 710 q 346 681 369 710 q 311 608 322 653 q 297 515 300 563 q 294 426 294 467 l 294 128 q 306 61 294 86 q 342 25 317 36 q 408 14 368 14 l 426 14 l 426 0 l 32 0 m 132 -296 q 153 -222 144 -256 q 168 -154 161 -187 q 181 -85 175 -121 l 285 -85 l 285 -99 q 249 -163 271 -128 q 200 -235 226 -199 q 146 -307 174 -272 l 132 -307 l 132 -296 z "},"Ř":{"ha":911,"x_min":53,"x_max":919,"o":"m 53 0 l 53 14 l 71 14 q 134 25 108 14 q 172 58 160 36 q 185 114 185 81 l 185 883 q 172 936 185 915 q 134 967 160 957 q 71 978 108 978 l 53 978 l 53 992 l 426 992 q 626 962 547 992 q 744 874 706 932 q 783 732 783 815 q 751 599 783 651 q 667 518 718 547 q 563 474 617 489 l 758 168 q 809 94 788 124 q 849 47 831 64 q 883 22 867 29 q 915 14 899 14 l 919 14 l 919 0 l 900 0 q 792 5 835 0 q 722 22 750 10 q 673 59 694 35 q 626 122 651 83 l 413 463 l 325 463 l 325 114 q 338 58 325 81 q 376 25 350 36 q 439 14 401 14 l 457 14 l 457 0 l 53 0 m 422 476 q 547 501 500 476 q 614 579 593 525 q 635 722 635 633 q 613 870 635 814 q 544 952 592 926 q 419 978 497 978 l 325 978 l 325 476 l 422 476 m 371 1071 q 327 1140 353 1103 q 274 1213 301 1176 q 218 1279 246 1250 l 218 1293 l 232 1293 q 295 1253 258 1278 q 367 1203 332 1229 q 424 1154 403 1176 q 479 1203 444 1176 q 551 1253 514 1229 q 614 1293 588 1278 l 628 1293 l 628 1279 q 573 1213 601 1250 q 519 1140 544 1176 q 475 1071 493 1103 l 371 1071 z "},"ř":{"ha":654,"x_min":32,"x_max":633,"o":"m 32 0 l 32 14 l 50 14 q 117 25 92 14 q 153 60 142 36 q 164 121 164 83 l 164 622 q 153 685 164 661 q 117 719 142 708 q 50 731 92 731 l 46 731 l 46 744 l 293 744 l 293 606 l 296 606 q 325 676 306 642 q 384 735 344 711 q 490 758 424 758 q 597 731 560 758 q 633 656 633 704 q 603 586 633 614 q 504 558 574 558 q 475 677 504 644 q 410 710 446 710 q 346 681 369 710 q 311 608 322 653 q 297 515 300 563 q 294 426 294 467 l 294 128 q 306 61 294 86 q 342 25 317 36 q 408 14 368 14 l 426 14 l 426 0 l 32 0 m 257 842 q 213 910 239 874 q 160 984 188 947 q 104 1050 132 1021 l 104 1064 l 118 1064 q 181 1024 144 1049 q 253 974 218 1000 q 310 925 289 947 q 365 974 331 947 q 437 1024 400 1000 q 500 1064 474 1049 l 514 1064 l 514 1050 q 459 984 488 1021 q 405 910 431 947 q 361 842 379 874 l 257 842 z "},"Ś":{"ha":756,"x_min":67,"x_max":685,"o":"m 358 -14 q 236 1 290 -14 q 144 41 182 15 q 86 101 106 67 q 67 178 67 136 q 78 231 67 210 q 113 264 90 253 q 167 275 135 275 q 190 123 168 185 q 256 31 211 61 q 368 0 300 0 q 512 52 457 0 q 567 206 567 104 q 544 307 567 268 q 470 377 521 346 q 338 446 419 408 q 249 491 294 467 q 166 549 204 515 q 105 633 128 583 q 82 750 82 682 q 118 890 82 833 q 220 976 154 947 q 375 1006 286 1006 q 517 983 457 1006 q 612 925 578 961 q 646 846 646 889 q 615 783 646 806 q 536 760 585 760 q 499 933 536 875 q 374 992 461 992 q 281 970 321 992 q 219 906 240 949 q 197 800 197 864 q 222 690 197 732 q 298 619 247 649 q 425 553 349 589 q 553 486 494 521 q 649 399 613 451 q 685 260 685 346 q 647 114 685 175 q 535 19 608 53 q 358 -14 463 -14 m 324 1085 q 365 1151 343 1115 q 406 1225 386 1188 q 440 1293 426 1263 l 565 1293 l 565 1279 q 523 1235 550 1261 q 463 1178 496 1208 q 398 1120 431 1149 q 338 1071 365 1092 l 324 1071 l 324 1085 z "},"ś":{"ha":626,"x_min":63,"x_max":565,"o":"m 297 -14 q 175 3 228 -14 q 92 52 122 19 q 63 133 63 85 q 78 192 63 171 q 113 221 93 213 q 150 229 133 229 q 164 103 150 154 q 211 26 178 53 q 300 0 244 0 q 417 38 374 0 q 460 151 460 76 q 443 228 460 200 q 388 279 426 257 q 282 331 350 301 q 157 398 203 365 q 92 469 111 431 q 72 561 72 508 q 139 706 72 656 q 324 757 206 757 q 438 740 390 757 q 511 693 486 722 q 536 629 536 664 q 510 569 536 592 q 436 546 485 546 q 407 698 436 653 q 317 743 378 743 q 238 728 269 743 q 191 683 207 713 q 175 610 175 654 q 194 532 175 561 q 255 482 214 503 q 357 435 296 461 q 482 370 436 403 q 547 298 528 338 q 565 204 565 258 q 493 41 565 96 q 297 -14 421 -14 m 265 856 q 306 922 285 886 q 348 996 328 958 q 382 1064 368 1033 l 507 1064 l 507 1050 q 465 1006 492 1032 q 405 949 438 979 q 340 891 372 919 q 279 842 307 863 l 265 842 l 265 856 z "},"Ŝ":{"ha":756,"x_min":67,"x_max":685,"o":"m 358 -14 q 236 1 290 -14 q 144 41 182 15 q 86 101 106 67 q 67 178 67 136 q 78 231 67 210 q 113 264 90 253 q 167 275 135 275 q 190 123 168 185 q 256 31 211 61 q 368 0 300 0 q 512 52 457 0 q 567 206 567 104 q 544 307 567 268 q 470 377 521 346 q 338 446 419 408 q 249 491 294 467 q 166 549 204 515 q 105 633 128 583 q 82 750 82 682 q 118 890 82 833 q 220 976 154 947 q 375 1006 286 1006 q 517 983 457 1006 q 612 925 578 961 q 646 846 646 889 q 615 783 646 806 q 536 760 585 760 q 499 933 536 875 q 374 992 461 992 q 281 970 321 992 q 219 906 240 949 q 197 800 197 864 q 222 690 197 732 q 298 619 247 649 q 425 553 349 589 q 553 486 494 521 q 649 399 613 451 q 685 260 685 346 q 647 114 685 175 q 535 19 608 53 q 358 -14 463 -14 m 182 1085 q 238 1151 210 1115 q 291 1225 265 1188 q 335 1293 317 1263 l 439 1293 q 483 1225 457 1263 q 537 1151 508 1188 q 592 1085 565 1115 l 592 1071 l 578 1071 q 515 1110 551 1086 q 443 1161 478 1135 q 388 1210 408 1188 q 331 1161 367 1188 q 259 1110 296 1135 q 196 1071 222 1086 l 182 1071 l 182 1085 z "},"ŝ":{"ha":626,"x_min":63,"x_max":565,"o":"m 297 -14 q 175 3 228 -14 q 92 52 122 19 q 63 133 63 85 q 78 192 63 171 q 113 221 93 213 q 150 229 133 229 q 164 103 150 154 q 211 26 178 53 q 300 0 244 0 q 417 38 374 0 q 460 151 460 76 q 443 228 460 200 q 388 279 426 257 q 282 331 350 301 q 157 398 203 365 q 92 469 111 431 q 72 561 72 508 q 139 706 72 656 q 324 757 206 757 q 438 740 390 757 q 511 693 486 722 q 536 629 536 664 q 510 569 536 592 q 436 546 485 546 q 407 698 436 653 q 317 743 378 743 q 238 728 269 743 q 191 683 207 713 q 175 610 175 654 q 194 532 175 561 q 255 482 214 503 q 357 435 296 461 q 482 370 436 403 q 547 298 528 338 q 565 204 565 258 q 493 41 565 96 q 297 -14 421 -14 m 126 856 q 182 922 154 886 q 235 996 210 958 q 279 1064 261 1033 l 383 1064 q 427 996 401 1033 q 481 922 453 958 q 536 856 510 886 l 536 842 l 522 842 q 459 881 496 857 q 388 932 422 906 q 332 981 353 958 q 276 932 311 958 q 203 881 240 906 q 140 842 167 857 l 126 842 l 126 856 z "},"Ş":{"ha":756,"x_min":67,"x_max":685,"o":"m 358 -14 q 236 1 290 -14 q 144 41 182 15 q 86 101 106 67 q 67 178 67 136 q 78 231 67 210 q 113 264 90 253 q 167 275 135 275 q 190 123 168 185 q 256 31 211 61 q 368 0 300 0 q 512 52 457 0 q 567 206 567 104 q 544 307 567 268 q 470 377 521 346 q 338 446 419 408 q 249 491 294 467 q 166 549 204 515 q 105 633 128 583 q 82 750 82 682 q 118 890 82 833 q 220 976 154 947 q 375 1006 286 1006 q 517 983 457 1006 q 612 925 578 961 q 646 846 646 889 q 615 783 646 806 q 536 760 585 760 q 499 933 536 875 q 374 992 461 992 q 281 970 321 992 q 219 906 240 949 q 197 800 197 864 q 222 690 197 732 q 298 619 247 649 q 425 553 349 589 q 553 486 494 521 q 649 399 613 451 q 685 260 685 346 q 647 114 685 175 q 535 19 608 53 q 358 -14 463 -14 m 331 -333 q 269 -328 294 -333 q 222 -318 243 -324 l 222 -303 q 260 -311 242 -308 q 296 -314 278 -314 q 376 -284 351 -314 q 401 -190 401 -254 q 394 -135 401 -158 q 371 -99 386 -112 q 329 -82 356 -85 l 349 0 l 363 0 l 347 -69 q 469 -106 425 -75 q 513 -194 513 -136 q 469 -294 513 -254 q 331 -333 426 -333 z "},"ş":{"ha":626,"x_min":63,"x_max":565,"o":"m 297 -14 q 175 3 228 -14 q 92 52 122 19 q 63 133 63 85 q 78 192 63 171 q 113 221 93 213 q 150 229 133 229 q 164 103 150 154 q 211 26 178 53 q 300 0 244 0 q 417 38 374 0 q 460 151 460 76 q 443 228 460 200 q 388 279 426 257 q 282 331 350 301 q 157 398 203 365 q 92 469 111 431 q 72 561 72 508 q 139 706 72 656 q 324 757 206 757 q 438 740 390 757 q 511 693 486 722 q 536 629 536 664 q 510 569 536 592 q 436 546 485 546 q 407 698 436 653 q 317 743 378 743 q 238 728 269 743 q 191 683 207 713 q 175 610 175 654 q 194 532 175 561 q 255 482 214 503 q 357 435 296 461 q 482 370 436 403 q 547 298 528 338 q 565 204 565 258 q 493 41 565 96 q 297 -14 421 -14 m 268 -333 q 206 -328 232 -333 q 160 -318 181 -324 l 160 -303 q 197 -311 179 -308 q 233 -314 215 -314 q 314 -284 289 -314 q 339 -190 339 -254 q 331 -135 339 -158 q 308 -99 324 -112 q 267 -82 293 -85 l 286 0 l 300 0 l 285 -69 q 406 -106 363 -75 q 450 -194 450 -136 q 407 -294 450 -254 q 268 -333 364 -333 z "},"Š":{"ha":756,"x_min":67,"x_max":685,"o":"m 358 -14 q 236 1 290 -14 q 144 41 182 15 q 86 101 106 67 q 67 178 67 136 q 78 231 67 210 q 113 264 90 253 q 167 275 135 275 q 190 123 168 185 q 256 31 211 61 q 368 0 300 0 q 512 52 457 0 q 567 206 567 104 q 544 307 567 268 q 470 377 521 346 q 338 446 419 408 q 249 491 294 467 q 166 549 204 515 q 105 633 128 583 q 82 750 82 682 q 118 890 82 833 q 220 976 154 947 q 375 1006 286 1006 q 517 983 457 1006 q 612 925 578 961 q 646 846 646 889 q 615 783 646 806 q 536 760 585 760 q 499 933 536 875 q 374 992 461 992 q 281 970 321 992 q 219 906 240 949 q 197 800 197 864 q 222 690 197 732 q 298 619 247 649 q 425 553 349 589 q 553 486 494 521 q 649 399 613 451 q 685 260 685 346 q 647 114 685 175 q 535 19 608 53 q 358 -14 463 -14 m 331 1071 q 287 1140 313 1103 q 233 1213 261 1176 q 178 1279 206 1250 l 178 1293 l 192 1293 q 255 1253 218 1278 q 327 1203 292 1229 q 383 1154 363 1176 q 439 1203 404 1176 q 510 1253 474 1229 q 574 1293 547 1278 l 588 1293 l 588 1279 q 533 1213 561 1250 q 478 1140 504 1176 q 435 1071 453 1103 l 331 1071 z "},"š":{"ha":626,"x_min":63,"x_max":565,"o":"m 297 -14 q 175 3 228 -14 q 92 52 122 19 q 63 133 63 85 q 78 192 63 171 q 113 221 93 213 q 150 229 133 229 q 164 103 150 154 q 211 26 178 53 q 300 0 244 0 q 417 38 374 0 q 460 151 460 76 q 443 228 460 200 q 388 279 426 257 q 282 331 350 301 q 157 398 203 365 q 92 469 111 431 q 72 561 72 508 q 139 706 72 656 q 324 757 206 757 q 438 740 390 757 q 511 693 486 722 q 536 629 536 664 q 510 569 536 592 q 436 546 485 546 q 407 698 436 653 q 317 743 378 743 q 238 728 269 743 q 191 683 207 713 q 175 610 175 654 q 194 532 175 561 q 255 482 214 503 q 357 435 296 461 q 482 370 436 403 q 547 298 528 338 q 565 204 565 258 q 493 41 565 96 q 297 -14 421 -14 m 267 842 q 223 910 249 874 q 169 984 197 947 q 114 1050 142 1021 l 114 1064 l 128 1064 q 191 1024 154 1049 q 263 974 228 1000 q 319 925 299 947 q 375 974 340 947 q 447 1024 410 1000 q 510 1064 483 1049 l 524 1064 l 524 1050 q 469 984 497 1021 q 415 910 440 947 q 371 842 389 874 l 267 842 z "},"Ț":{"ha":851,"x_min":28,"x_max":824,"o":"m 222 0 l 222 14 l 240 14 q 303 25 278 14 q 342 58 329 36 q 354 114 354 81 l 354 978 l 240 978 q 129 961 171 978 q 68 904 88 944 q 44 794 49 864 l 42 749 l 28 749 l 36 992 l 815 992 l 824 749 l 810 749 l 807 794 q 783 904 803 864 q 723 961 764 944 q 611 978 682 978 l 494 978 l 494 114 q 507 58 494 81 q 545 25 519 36 q 608 14 571 14 l 626 14 l 626 0 l 222 0 m 326 -296 q 347 -222 339 -256 q 363 -154 356 -187 q 375 -85 369 -121 l 479 -85 l 479 -99 q 443 -163 465 -128 q 394 -235 421 -199 q 340 -307 368 -272 l 326 -307 l 326 -296 z "},"ț":{"ha":489,"x_min":26,"x_max":457,"o":"m 333 -14 q 180 34 228 -14 q 132 201 132 82 l 132 731 l 26 731 l 26 744 q 113 753 76 744 q 176 782 150 763 q 222 835 204 801 q 249 915 239 868 l 263 915 l 263 744 l 457 744 l 457 731 l 263 731 l 263 150 q 290 42 263 78 q 372 6 318 6 q 413 10 392 6 q 457 22 433 14 l 457 8 q 403 -7 439 0 q 333 -14 367 -14 m 199 -296 q 219 -222 211 -256 q 235 -154 228 -187 q 247 -85 242 -121 l 351 -85 l 351 -99 q 315 -163 338 -128 q 267 -235 293 -199 q 213 -307 240 -272 l 199 -307 l 199 -296 z "},"Ť":{"ha":851,"x_min":28,"x_max":824,"o":"m 222 0 l 222 14 l 240 14 q 303 25 278 14 q 342 58 329 36 q 354 114 354 81 l 354 978 l 240 978 q 129 961 171 978 q 68 904 88 944 q 44 794 49 864 l 42 749 l 28 749 l 36 992 l 815 992 l 824 749 l 810 749 l 807 794 q 783 904 803 864 q 723 961 764 944 q 611 978 682 978 l 494 978 l 494 114 q 507 58 494 81 q 545 25 519 36 q 608 14 571 14 l 626 14 l 626 0 l 222 0 m 372 1071 q 328 1140 354 1103 q 275 1213 303 1176 q 219 1279 247 1250 l 219 1293 l 233 1293 q 297 1253 260 1278 q 369 1203 333 1229 q 425 1154 404 1176 q 481 1203 446 1176 q 552 1253 515 1229 q 615 1293 589 1278 l 629 1293 l 629 1279 q 574 1213 603 1250 q 520 1140 546 1176 q 476 1071 494 1103 l 372 1071 z "},"ť":{"ha":489,"x_min":26,"x_max":517,"o":"m 364 853 q 385 922 376 889 q 400 987 393 954 q 413 1056 407 1019 l 517 1056 l 517 1042 q 481 977 503 1013 q 432 905 458 942 q 378 833 406 868 l 364 833 l 364 853 m 333 -14 q 180 34 228 -14 q 132 201 132 82 l 132 731 l 26 731 l 26 744 q 113 753 76 744 q 176 782 150 763 q 222 835 204 801 q 249 915 239 868 l 263 915 l 263 744 l 457 744 l 457 731 l 263 731 l 263 150 q 290 42 263 78 q 372 6 318 6 q 413 10 392 6 q 457 22 433 14 l 457 8 q 403 -7 439 0 q 333 -14 367 -14 z "},"Ŧ":{"ha":851,"x_min":28,"x_max":824,"o":"m 222 0 l 222 14 l 240 14 q 303 25 278 14 q 342 58 329 36 q 354 114 354 81 l 354 483 l 122 483 l 122 497 l 354 497 l 354 978 l 240 978 q 129 961 171 978 q 68 904 88 944 q 44 794 49 864 l 42 749 l 28 749 l 36 992 l 815 992 l 824 749 l 810 749 l 807 794 q 783 904 803 864 q 723 961 764 944 q 611 978 682 978 l 494 978 l 494 497 l 729 497 l 729 483 l 494 483 l 494 114 q 507 58 494 81 q 545 25 519 36 q 608 14 571 14 l 626 14 l 626 0 l 222 0 z "},"ŧ":{"ha":489,"x_min":26,"x_max":458,"o":"m 26 431 l 26 444 l 458 444 l 458 431 l 26 431 m 333 -14 q 180 34 228 -14 q 132 201 132 82 l 132 731 l 26 731 l 26 744 q 113 753 76 744 q 176 782 150 763 q 222 835 204 801 q 249 915 239 868 l 263 915 l 263 744 l 457 744 l 457 731 l 263 731 l 263 150 q 290 42 263 78 q 372 6 318 6 q 413 10 392 6 q 457 22 433 14 l 457 8 q 403 -7 439 0 q 333 -14 367 -14 z "},"Ũ":{"ha":996,"x_min":21,"x_max":975,"o":"m 503 -14 q 315 17 393 -14 q 194 118 236 49 q 153 300 153 188 l 153 883 q 140 936 153 915 q 102 967 128 957 q 39 978 76 978 l 21 978 l 21 992 l 425 992 l 425 978 l 407 978 q 344 967 369 978 q 306 934 318 956 q 293 879 293 913 l 293 292 q 323 118 293 181 q 406 31 353 56 q 525 7 458 7 q 688 40 619 7 q 792 137 756 74 q 829 286 829 200 l 829 883 q 817 936 829 915 q 778 967 804 957 q 715 978 753 978 l 697 978 l 697 992 l 975 992 l 975 978 l 957 978 q 894 967 919 978 q 856 933 868 956 q 843 878 843 911 l 843 283 q 804 125 843 192 q 690 22 765 58 q 503 -14 614 -14 m 628 1071 q 560 1084 593 1071 q 494 1115 526 1097 q 428 1145 461 1132 q 357 1158 394 1158 q 299 1135 311 1158 q 281 1085 288 1113 l 267 1085 q 285 1164 271 1126 q 327 1225 299 1201 q 400 1249 356 1249 q 469 1235 436 1249 q 534 1205 501 1222 q 601 1174 567 1188 q 671 1161 635 1161 q 728 1183 714 1161 q 747 1235 742 1204 l 761 1235 q 743 1158 757 1196 q 701 1095 729 1119 q 628 1071 674 1071 z "},"ũ":{"ha":882,"x_min":32,"x_max":850,"o":"m 393 -14 q 210 51 271 -14 q 150 258 150 115 l 150 606 q 140 680 150 653 q 104 719 129 707 q 36 731 79 731 l 32 731 l 32 744 l 281 744 l 281 251 q 293 109 281 163 q 335 31 306 56 q 415 6 365 6 q 519 38 478 6 q 581 134 560 71 q 601 286 601 197 l 601 606 q 591 680 601 653 q 556 719 581 707 q 488 731 531 731 l 483 731 l 483 744 l 732 744 l 732 138 q 742 63 732 90 q 778 25 753 36 q 846 14 803 14 l 850 14 l 850 0 l 611 0 l 611 190 l 608 190 q 573 78 597 119 q 517 18 549 38 q 453 -8 486 -1 q 393 -14 421 -14 m 544 842 q 476 855 510 842 q 410 885 443 868 q 344 916 378 903 q 274 929 311 929 q 216 906 228 929 q 197 856 204 883 l 183 856 q 201 935 188 897 q 244 996 215 972 q 317 1019 272 1019 q 385 1006 353 1019 q 451 976 418 993 q 517 945 483 958 q 588 932 551 932 q 644 953 631 932 q 664 1006 658 975 l 678 1006 q 660 928 674 967 q 618 866 646 890 q 544 842 590 842 z "},"Ū":{"ha":996,"x_min":21,"x_max":975,"o":"m 503 -14 q 315 17 393 -14 q 194 118 236 49 q 153 300 153 188 l 153 883 q 140 936 153 915 q 102 967 128 957 q 39 978 76 978 l 21 978 l 21 992 l 425 992 l 425 978 l 407 978 q 344 967 369 978 q 306 934 318 956 q 293 879 293 913 l 293 292 q 323 118 293 181 q 406 31 353 56 q 525 7 458 7 q 688 40 619 7 q 792 137 756 74 q 829 286 829 200 l 829 883 q 817 936 829 915 q 778 967 804 957 q 715 978 753 978 l 697 978 l 697 992 l 975 992 l 975 978 l 957 978 q 894 967 919 978 q 856 933 868 956 q 843 878 843 911 l 843 283 q 804 125 843 192 q 690 22 765 58 q 503 -14 614 -14 m 322 1113 l 322 1140 l 725 1140 l 725 1113 l 322 1113 z "},"ū":{"ha":882,"x_min":32,"x_max":850,"o":"m 393 -14 q 210 51 271 -14 q 150 258 150 115 l 150 606 q 140 680 150 653 q 104 719 129 707 q 36 731 79 731 l 32 731 l 32 744 l 281 744 l 281 251 q 293 109 281 163 q 335 31 306 56 q 415 6 365 6 q 519 38 478 6 q 581 134 560 71 q 601 286 601 197 l 601 606 q 591 680 601 653 q 556 719 581 707 q 488 731 531 731 l 483 731 l 483 744 l 732 744 l 732 138 q 742 63 732 90 q 778 25 753 36 q 846 14 803 14 l 850 14 l 850 0 l 611 0 l 611 190 l 608 190 q 573 78 597 119 q 517 18 549 38 q 453 -8 486 -1 q 393 -14 421 -14 m 222 883 l 222 911 l 625 911 l 625 883 l 222 883 z "},"Ŭ":{"ha":996,"x_min":21,"x_max":975,"o":"m 503 -14 q 315 17 393 -14 q 194 118 236 49 q 153 300 153 188 l 153 883 q 140 936 153 915 q 102 967 128 957 q 39 978 76 978 l 21 978 l 21 992 l 425 992 l 425 978 l 407 978 q 344 967 369 978 q 306 934 318 956 q 293 879 293 913 l 293 292 q 323 118 293 181 q 406 31 353 56 q 525 7 458 7 q 688 40 619 7 q 792 137 756 74 q 829 286 829 200 l 829 883 q 817 936 829 915 q 778 967 804 957 q 715 978 753 978 l 697 978 l 697 992 l 975 992 l 975 978 l 957 978 q 894 967 919 978 q 856 933 868 956 q 843 878 843 911 l 843 283 q 804 125 843 192 q 690 22 765 58 q 503 -14 614 -14 m 515 1071 q 408 1097 450 1071 q 346 1166 367 1122 q 321 1261 325 1210 l 335 1261 q 366 1207 346 1228 q 423 1176 386 1186 q 515 1167 460 1167 q 608 1176 572 1167 q 665 1207 644 1186 q 696 1261 686 1228 l 710 1261 q 685 1166 706 1210 q 623 1097 664 1122 q 515 1071 582 1071 z "},"ŭ":{"ha":882,"x_min":32,"x_max":850,"o":"m 393 -14 q 210 51 271 -14 q 150 258 150 115 l 150 606 q 140 680 150 653 q 104 719 129 707 q 36 731 79 731 l 32 731 l 32 744 l 281 744 l 281 251 q 293 109 281 163 q 335 31 306 56 q 415 6 365 6 q 519 38 478 6 q 581 134 560 71 q 601 286 601 197 l 601 606 q 591 680 601 653 q 556 719 581 707 q 488 731 531 731 l 483 731 l 483 744 l 732 744 l 732 138 q 742 63 732 90 q 778 25 753 36 q 846 14 803 14 l 850 14 l 850 0 l 611 0 l 611 190 l 608 190 q 573 78 597 119 q 517 18 549 38 q 453 -8 486 -1 q 393 -14 421 -14 m 431 842 q 324 867 365 842 q 261 937 282 893 q 236 1032 240 981 l 250 1032 q 281 978 261 999 q 338 947 301 957 q 431 938 375 938 q 524 947 488 938 q 581 978 560 957 q 611 1032 601 999 l 625 1032 q 600 937 621 981 q 538 867 579 893 q 431 842 497 842 z "},"Ů":{"ha":996,"x_min":21,"x_max":975,"o":"m 503 -14 q 315 17 393 -14 q 194 118 236 49 q 153 300 153 188 l 153 883 q 140 936 153 915 q 102 967 128 957 q 39 978 76 978 l 21 978 l 21 992 l 425 992 l 425 978 l 407 978 q 344 967 369 978 q 306 934 318 956 q 293 879 293 913 l 293 292 q 323 118 293 181 q 406 31 353 56 q 525 7 458 7 q 688 40 619 7 q 792 137 756 74 q 829 286 829 200 l 829 883 q 817 936 829 915 q 778 967 804 957 q 715 978 753 978 l 697 978 l 697 992 l 975 992 l 975 978 l 957 978 q 894 967 919 978 q 856 933 868 956 q 843 878 843 911 l 843 283 q 804 125 843 192 q 690 22 765 58 q 503 -14 614 -14 m 515 1057 q 397 1096 446 1057 q 349 1208 349 1135 q 397 1321 349 1282 q 515 1360 446 1360 q 633 1321 585 1360 q 682 1208 682 1282 q 633 1096 682 1135 q 515 1057 585 1057 m 515 1071 q 624 1106 582 1071 q 665 1208 665 1140 q 624 1312 665 1278 q 515 1346 582 1346 q 407 1312 449 1346 q 365 1208 365 1278 q 407 1106 365 1140 q 515 1071 449 1071 z "},"ů":{"ha":882,"x_min":32,"x_max":850,"o":"m 393 -14 q 210 51 271 -14 q 150 258 150 115 l 150 606 q 140 680 150 653 q 104 719 129 707 q 36 731 79 731 l 32 731 l 32 744 l 281 744 l 281 251 q 293 109 281 163 q 335 31 306 56 q 415 6 365 6 q 519 38 478 6 q 581 134 560 71 q 601 286 601 197 l 601 606 q 591 680 601 653 q 556 719 581 707 q 488 731 531 731 l 483 731 l 483 744 l 732 744 l 732 138 q 742 63 732 90 q 778 25 753 36 q 846 14 803 14 l 850 14 l 850 0 l 611 0 l 611 190 l 608 190 q 573 78 597 119 q 517 18 549 38 q 453 -8 486 -1 q 393 -14 421 -14 m 422 828 q 304 867 353 828 q 256 979 256 906 q 304 1092 256 1053 q 422 1131 353 1131 q 540 1092 492 1131 q 589 979 589 1053 q 540 867 589 906 q 422 828 492 828 m 422 842 q 531 876 489 842 q 572 979 572 911 q 531 1083 572 1049 q 422 1117 489 1117 q 314 1083 356 1117 q 272 979 272 1049 q 314 876 272 911 q 422 842 356 842 z "},"Ű":{"ha":996,"x_min":21,"x_max":975,"o":"m 503 -14 q 315 17 393 -14 q 194 118 236 49 q 153 300 153 188 l 153 883 q 140 936 153 915 q 102 967 128 957 q 39 978 76 978 l 21 978 l 21 992 l 425 992 l 425 978 l 407 978 q 344 967 369 978 q 306 934 318 956 q 293 879 293 913 l 293 292 q 323 118 293 181 q 406 31 353 56 q 525 7 458 7 q 688 40 619 7 q 792 137 756 74 q 829 286 829 200 l 829 883 q 817 936 829 915 q 778 967 804 957 q 715 978 753 978 l 697 978 l 697 992 l 975 992 l 975 978 l 957 978 q 894 967 919 978 q 856 933 868 956 q 843 878 843 911 l 843 283 q 804 125 843 192 q 690 22 765 58 q 503 -14 614 -14 m 329 1085 q 391 1188 358 1129 q 446 1293 424 1246 l 571 1293 l 571 1279 q 528 1235 556 1261 q 469 1178 501 1208 q 403 1120 436 1149 q 343 1071 371 1092 l 329 1071 l 329 1085 m 579 1085 q 641 1188 608 1129 q 696 1293 674 1246 l 821 1293 l 821 1279 q 778 1235 806 1261 q 719 1178 751 1208 q 653 1120 686 1149 q 593 1071 621 1092 l 579 1071 l 579 1085 z "},"ű":{"ha":882,"x_min":32,"x_max":850,"o":"m 393 -14 q 210 51 271 -14 q 150 258 150 115 l 150 606 q 140 680 150 653 q 104 719 129 707 q 36 731 79 731 l 32 731 l 32 744 l 281 744 l 281 251 q 293 109 281 163 q 335 31 306 56 q 415 6 365 6 q 519 38 478 6 q 581 134 560 71 q 601 286 601 197 l 601 606 q 591 680 601 653 q 556 719 581 707 q 488 731 531 731 l 483 731 l 483 744 l 732 744 l 732 138 q 742 63 732 90 q 778 25 753 36 q 846 14 803 14 l 850 14 l 850 0 l 611 0 l 611 190 l 608 190 q 573 78 597 119 q 517 18 549 38 q 453 -8 486 -1 q 393 -14 421 -14 m 247 856 q 309 958 276 900 q 364 1064 342 1017 l 489 1064 l 489 1050 q 447 1006 474 1032 q 387 949 419 979 q 322 891 354 919 q 261 842 289 863 l 247 842 l 247 856 m 497 856 q 559 958 526 900 q 614 1064 592 1017 l 739 1064 l 739 1050 q 697 1006 724 1032 q 637 949 669 979 q 572 891 604 919 q 511 842 539 863 l 497 842 l 497 856 z "},"Ų":{"ha":1007,"x_min":32,"x_max":986,"o":"m 514 -14 q 326 17 404 -14 q 206 118 247 49 q 164 300 164 188 l 164 883 q 151 936 164 915 q 113 967 139 957 q 50 978 88 978 l 32 978 l 32 992 l 436 992 l 436 978 l 418 978 q 355 967 381 978 q 317 934 329 956 q 304 879 304 913 l 304 292 q 334 118 304 181 q 417 31 364 56 q 536 7 469 7 q 699 40 631 7 q 803 137 767 74 q 840 286 840 200 l 840 883 q 828 936 840 915 q 790 967 815 957 q 726 978 764 978 l 708 978 l 708 992 l 986 992 l 986 978 l 968 978 q 905 967 931 978 q 867 933 879 956 q 854 878 854 911 l 854 283 q 815 125 854 192 q 701 22 776 58 q 514 -14 625 -14 m 553 -333 q 428 -300 478 -333 q 378 -200 378 -267 q 401 -118 378 -156 q 469 -51 425 -81 q 569 0 513 -21 l 599 0 q 513 -62 543 -18 q 483 -182 483 -107 q 508 -283 483 -249 q 586 -317 533 -317 q 628 -312 607 -317 q 675 -297 650 -307 l 675 -311 q 621 -327 653 -321 q 553 -333 589 -333 z "}}}
